G04 MADE WITH FRITZING*
G04 WWW.FRITZING.ORG*
G04 DOUBLE SIDED*
G04 HOLES PLATED*
G04 CONTOUR ON CENTER OF CONTOUR VECTOR*
%ASAXBY*%
%FSLAX23Y23*%
%MOIN*%
%OFA0B0*%
%SFA1.0B1.0*%
%ADD10C,0.075000*%
%ADD11C,0.080000*%
%ADD12C,0.078000*%
%ADD13C,0.082000*%
%ADD14C,0.070925*%
%ADD15C,0.070866*%
%ADD16C,0.140000*%
%ADD17C,0.039370*%
%ADD18R,0.080000X0.080000*%
%ADD19R,0.075000X0.075000*%
%ADD20R,0.082000X0.082000*%
%ADD21R,0.078000X0.078000*%
%ADD22C,0.024000*%
%LNCOPPER1*%
G90*
G70*
G54D10*
X1214Y1291D03*
X1214Y891D03*
X715Y2314D03*
X2937Y1423D03*
G54D11*
X194Y1401D03*
X194Y1263D03*
X194Y1126D03*
X194Y1901D03*
X194Y1763D03*
X194Y1626D03*
X194Y401D03*
X194Y263D03*
X194Y126D03*
X194Y901D03*
X194Y763D03*
X194Y626D03*
G54D12*
X2434Y536D03*
X2434Y436D03*
X2434Y336D03*
X2534Y536D03*
X2534Y436D03*
X2534Y336D03*
G54D10*
X868Y2032D03*
X968Y2032D03*
X1068Y2032D03*
X1168Y2032D03*
X1268Y2032D03*
X1368Y2032D03*
X1468Y2032D03*
X1568Y2032D03*
X1738Y2032D03*
X1838Y2032D03*
X1938Y2032D03*
X2038Y2032D03*
X2138Y2032D03*
X2238Y2032D03*
X2338Y2032D03*
X2438Y2032D03*
X1238Y132D03*
X1338Y132D03*
X1438Y132D03*
X1538Y132D03*
X1638Y132D03*
X1738Y132D03*
X1938Y132D03*
X2038Y132D03*
X2138Y132D03*
X2238Y132D03*
X2338Y132D03*
X2438Y132D03*
X2638Y2032D03*
X2738Y2032D03*
X2838Y2032D03*
X2938Y2032D03*
X3038Y2032D03*
X3138Y2032D03*
X3238Y2032D03*
X3338Y2032D03*
X2538Y132D03*
X2638Y132D03*
X2838Y132D03*
X2938Y132D03*
X3038Y132D03*
X3138Y132D03*
X3238Y132D03*
X3338Y132D03*
X3438Y132D03*
X3538Y132D03*
X3638Y2032D03*
X3738Y2032D03*
X3638Y1932D03*
X3738Y1932D03*
X3638Y1832D03*
X3738Y1832D03*
X3638Y1732D03*
X3738Y1732D03*
X3638Y1632D03*
X3738Y1632D03*
X3638Y1532D03*
X3738Y1532D03*
X3638Y1432D03*
X3738Y1432D03*
X3638Y1332D03*
X3738Y1332D03*
X3638Y1232D03*
X3738Y1232D03*
X3638Y1132D03*
X3738Y1132D03*
X3638Y1032D03*
X3738Y1032D03*
X3638Y932D03*
X3738Y932D03*
X3638Y832D03*
X3738Y832D03*
X3638Y732D03*
X3738Y732D03*
X3638Y632D03*
X3738Y632D03*
X3638Y532D03*
X3738Y532D03*
X3638Y432D03*
X3738Y432D03*
X3638Y332D03*
X3738Y332D03*
G54D12*
X2634Y536D03*
X2634Y436D03*
X2634Y336D03*
G54D10*
X1534Y836D03*
X1534Y936D03*
X1534Y1036D03*
X1534Y436D03*
X1534Y536D03*
X1534Y636D03*
X1534Y1636D03*
X1534Y1736D03*
X1534Y1836D03*
X1534Y1236D03*
X1534Y1336D03*
X1534Y1436D03*
X1734Y636D03*
X1734Y1036D03*
X1834Y1336D03*
X1834Y1736D03*
X1734Y1236D03*
X1734Y1636D03*
X1834Y836D03*
X1834Y1236D03*
X438Y732D03*
X538Y732D03*
X938Y732D03*
X938Y1032D03*
X538Y1032D03*
X438Y1032D03*
X438Y332D03*
X538Y332D03*
X938Y332D03*
X938Y632D03*
X538Y632D03*
X438Y632D03*
X438Y1532D03*
X538Y1532D03*
X938Y1532D03*
X938Y1832D03*
X538Y1832D03*
X438Y1832D03*
X438Y1132D03*
X538Y1132D03*
X938Y1132D03*
X938Y1432D03*
X538Y1432D03*
X438Y1432D03*
G54D13*
X1138Y1432D03*
X1138Y1134D03*
X1138Y1032D03*
X1138Y734D03*
X1138Y1832D03*
X1138Y1534D03*
X1138Y632D03*
X1138Y334D03*
X2034Y1736D03*
X2034Y1636D03*
X2034Y1536D03*
G54D10*
X3334Y1636D03*
X3334Y1336D03*
X3234Y1636D03*
X3234Y1336D03*
X3134Y1636D03*
X3134Y1336D03*
X3034Y1636D03*
X3034Y1336D03*
G54D14*
X3141Y1835D03*
G54D15*
X3334Y1836D03*
G54D12*
X2838Y432D03*
X2838Y532D03*
G54D10*
X3534Y1136D03*
X3534Y1536D03*
G54D12*
X2638Y1632D03*
X2638Y1732D03*
X2638Y1832D03*
X2738Y1632D03*
X2738Y1732D03*
X2738Y1832D03*
G54D10*
X2234Y836D03*
X2234Y1236D03*
X2434Y836D03*
X2434Y1236D03*
G54D12*
X1934Y536D03*
X1934Y436D03*
X1934Y336D03*
X2234Y536D03*
X2234Y436D03*
X2234Y336D03*
X2034Y536D03*
X2034Y436D03*
X2034Y336D03*
X2334Y536D03*
X2334Y436D03*
X2334Y336D03*
X2134Y536D03*
X2134Y436D03*
X2134Y336D03*
G54D16*
X574Y2236D03*
X334Y2236D03*
X454Y2046D03*
G54D10*
X1334Y1536D03*
X1334Y1136D03*
X1338Y632D03*
X1338Y232D03*
X1238Y1832D03*
X1238Y1432D03*
X1238Y1032D03*
X1238Y632D03*
G54D12*
X2334Y1336D03*
X2334Y1236D03*
X2334Y1136D03*
X2334Y1036D03*
X2534Y1336D03*
X2534Y1236D03*
X2534Y1136D03*
X2534Y1036D03*
G54D17*
X834Y736D03*
X1434Y1736D03*
X2534Y1736D03*
X2534Y1536D03*
X3234Y1536D03*
X1434Y1936D03*
X834Y1136D03*
X834Y1636D03*
G54D10*
X3238Y1232D03*
X3238Y832D03*
G54D12*
X3038Y1132D03*
X3038Y1032D03*
G54D18*
X194Y1401D03*
X194Y1901D03*
X194Y401D03*
X194Y901D03*
G54D19*
X1534Y1036D03*
X1534Y636D03*
X1534Y1836D03*
X1534Y1436D03*
X1734Y636D03*
X1834Y1336D03*
X1734Y1236D03*
X1834Y836D03*
X438Y732D03*
X438Y332D03*
X438Y1532D03*
X438Y1132D03*
G54D20*
X1138Y1433D03*
X1138Y1033D03*
X1138Y1833D03*
X1138Y633D03*
X2034Y1736D03*
G54D19*
X3334Y1636D03*
G54D21*
X2838Y432D03*
G54D19*
X3534Y1136D03*
G54D21*
X2638Y1632D03*
X2738Y1632D03*
G54D19*
X2234Y836D03*
X2434Y836D03*
X1334Y1536D03*
X1338Y632D03*
X1238Y1832D03*
X1238Y1032D03*
X3238Y1232D03*
G54D22*
X3235Y1311D02*
X3237Y1257D01*
D02*
X734Y1036D02*
X563Y1032D01*
D02*
X734Y636D02*
X734Y1036D01*
D02*
X563Y632D02*
X734Y636D01*
D02*
X734Y1436D02*
X734Y1036D01*
D02*
X734Y1036D02*
X534Y1036D01*
D02*
X534Y1036D02*
X520Y1049D01*
D02*
X563Y1432D02*
X734Y1436D01*
D02*
X734Y1436D02*
X563Y1432D01*
D02*
X734Y1836D02*
X734Y1436D01*
D02*
X563Y1832D02*
X734Y1836D01*
D02*
X1134Y1236D02*
X1137Y1160D01*
D02*
X834Y1236D02*
X1134Y1236D01*
D02*
X834Y1155D02*
X834Y1236D01*
D02*
X834Y836D02*
X1134Y836D01*
D02*
X1134Y836D02*
X1137Y760D01*
D02*
X834Y755D02*
X834Y836D01*
D02*
X1509Y1836D02*
X1334Y1836D01*
D02*
X1334Y1836D02*
X1263Y1833D01*
D02*
X1509Y1436D02*
X1334Y1436D01*
D02*
X1334Y1436D02*
X1334Y1511D01*
D02*
X1434Y1036D02*
X1263Y1032D01*
D02*
X1509Y1036D02*
X1434Y1036D01*
D02*
X1509Y636D02*
X1434Y636D01*
D02*
X1434Y636D02*
X1363Y633D01*
D02*
X1282Y2011D02*
X1334Y1936D01*
D02*
X1334Y1936D02*
X1415Y1936D01*
D02*
X1634Y436D02*
X1559Y436D01*
D02*
X1559Y836D02*
X1634Y836D01*
D02*
X1634Y836D02*
X1634Y436D01*
D02*
X1559Y1236D02*
X1634Y1236D01*
D02*
X1634Y1236D02*
X1634Y836D01*
D02*
X1634Y836D02*
X1559Y836D01*
D02*
X1834Y1836D02*
X1834Y1760D01*
D02*
X1634Y1836D02*
X1834Y1836D01*
D02*
X1634Y2136D02*
X1634Y1836D01*
D02*
X1434Y2136D02*
X1634Y2136D01*
D02*
X1381Y2053D02*
X1434Y2136D01*
D02*
X2007Y1536D02*
X1734Y1536D01*
D02*
X1734Y1536D02*
X1556Y1624D01*
D02*
X1634Y1136D02*
X1634Y1236D01*
D02*
X1934Y1136D02*
X1634Y1136D01*
D02*
X1734Y1536D02*
X1934Y1536D01*
D02*
X1634Y1236D02*
X1559Y1236D01*
D02*
X1934Y1536D02*
X1934Y1136D01*
D02*
X1556Y1624D02*
X1734Y1536D01*
D02*
X1834Y236D02*
X1834Y736D01*
D02*
X1834Y736D02*
X2034Y736D01*
D02*
X1434Y236D02*
X1834Y236D01*
D02*
X2034Y736D02*
X2134Y836D01*
D02*
X1355Y150D02*
X1434Y236D01*
D02*
X2134Y836D02*
X2209Y836D01*
D02*
X1838Y36D02*
X1834Y136D01*
D02*
X1638Y36D02*
X1838Y36D01*
D02*
X1834Y136D02*
X1934Y236D01*
D02*
X1934Y236D02*
X2734Y236D01*
D02*
X1638Y107D02*
X1638Y36D01*
D02*
X2734Y236D02*
X2734Y336D01*
D02*
X2734Y336D02*
X2819Y414D01*
D02*
X2308Y1236D02*
X2259Y1236D01*
D02*
X2434Y1236D02*
X2508Y1236D01*
D02*
X2334Y1436D02*
X2438Y1436D01*
D02*
X2438Y1436D02*
X2435Y1260D01*
D02*
X2334Y1836D02*
X2334Y1436D01*
D02*
X2249Y2010D02*
X2334Y1836D01*
D02*
X2149Y2010D02*
X2238Y1836D01*
D02*
X2238Y1836D02*
X2238Y1436D01*
D02*
X2234Y1436D02*
X2234Y1260D01*
D02*
X2238Y1436D02*
X2234Y1436D01*
D02*
X2534Y1717D02*
X2534Y1555D01*
D02*
X3034Y1536D02*
X2834Y1536D01*
D02*
X2834Y1536D02*
X2834Y1436D01*
D02*
X3134Y1536D02*
X3034Y1536D01*
D02*
X3134Y1611D02*
X3134Y1536D01*
D02*
X2834Y1436D02*
X2838Y557D01*
D02*
X3334Y1660D02*
X3334Y1736D01*
D02*
X3334Y1736D02*
X3334Y1812D01*
D02*
X3034Y1360D02*
X3034Y1436D01*
D02*
X3034Y1436D02*
X3534Y1436D01*
D02*
X3534Y1436D02*
X3534Y1511D01*
D02*
X3534Y2136D02*
X3534Y1560D01*
D02*
X3234Y2136D02*
X3534Y2136D01*
D02*
X3237Y2057D02*
X3234Y2136D01*
D02*
X3434Y1536D02*
X3253Y1536D01*
D02*
X3434Y2036D02*
X3434Y1536D01*
D02*
X3363Y2033D02*
X3434Y2036D01*
D02*
X1734Y1336D02*
X1816Y1253D01*
D02*
X1434Y1536D02*
X1534Y1536D01*
D02*
X1534Y1536D02*
X1734Y1436D01*
D02*
X1734Y1436D02*
X1734Y1336D01*
D02*
X1434Y1636D02*
X1434Y1536D01*
D02*
X1434Y1717D02*
X1434Y1636D01*
D02*
X1134Y1636D02*
X1137Y1560D01*
D02*
X853Y1636D02*
X1134Y1636D01*
G36*
X1508Y1976D02*
X1508Y1974D01*
X1506Y1974D01*
X1506Y1972D01*
X1502Y1972D01*
X1502Y1970D01*
X1498Y1970D01*
X1498Y1968D01*
X1494Y1968D01*
X1494Y1966D01*
X1490Y1966D01*
X1490Y1964D01*
X1486Y1964D01*
X1486Y1906D01*
X1590Y1906D01*
X1590Y1962D01*
X1554Y1962D01*
X1554Y1964D01*
X1546Y1964D01*
X1546Y1966D01*
X1540Y1966D01*
X1540Y1968D01*
X1536Y1968D01*
X1536Y1970D01*
X1534Y1970D01*
X1534Y1972D01*
X1530Y1972D01*
X1530Y1974D01*
X1528Y1974D01*
X1528Y1976D01*
X1508Y1976D01*
G37*
D02*
G36*
X1604Y1792D02*
X1604Y1722D01*
X1602Y1722D01*
X1602Y1714D01*
X1600Y1714D01*
X1600Y1708D01*
X1598Y1708D01*
X1598Y1706D01*
X1746Y1706D01*
X1746Y1704D01*
X1766Y1704D01*
X1766Y1722D01*
X1764Y1722D01*
X1764Y1748D01*
X1766Y1748D01*
X1766Y1758D01*
X1768Y1758D01*
X1768Y1762D01*
X1770Y1762D01*
X1770Y1766D01*
X1772Y1766D01*
X1772Y1770D01*
X1774Y1770D01*
X1774Y1792D01*
X1604Y1792D01*
G37*
D02*
G36*
X1598Y1706D02*
X1598Y1704D01*
X1596Y1704D01*
X1596Y1702D01*
X1594Y1702D01*
X1594Y1698D01*
X1592Y1698D01*
X1592Y1696D01*
X1590Y1696D01*
X1590Y1676D01*
X1592Y1676D01*
X1592Y1674D01*
X1594Y1674D01*
X1594Y1670D01*
X1596Y1670D01*
X1596Y1666D01*
X1598Y1666D01*
X1598Y1662D01*
X1600Y1662D01*
X1600Y1658D01*
X1602Y1658D01*
X1602Y1654D01*
X1604Y1654D01*
X1604Y1652D01*
X1608Y1652D01*
X1608Y1650D01*
X1612Y1650D01*
X1612Y1648D01*
X1616Y1648D01*
X1616Y1646D01*
X1620Y1646D01*
X1620Y1644D01*
X1624Y1644D01*
X1624Y1642D01*
X1628Y1642D01*
X1628Y1640D01*
X1632Y1640D01*
X1632Y1638D01*
X1636Y1638D01*
X1636Y1636D01*
X1640Y1636D01*
X1640Y1634D01*
X1644Y1634D01*
X1644Y1632D01*
X1664Y1632D01*
X1664Y1648D01*
X1666Y1648D01*
X1666Y1658D01*
X1668Y1658D01*
X1668Y1662D01*
X1670Y1662D01*
X1670Y1666D01*
X1672Y1666D01*
X1672Y1670D01*
X1674Y1670D01*
X1674Y1674D01*
X1676Y1674D01*
X1676Y1676D01*
X1678Y1676D01*
X1678Y1678D01*
X1680Y1678D01*
X1680Y1682D01*
X1682Y1682D01*
X1682Y1684D01*
X1684Y1684D01*
X1684Y1686D01*
X1686Y1686D01*
X1686Y1688D01*
X1688Y1688D01*
X1688Y1690D01*
X1692Y1690D01*
X1692Y1692D01*
X1694Y1692D01*
X1694Y1694D01*
X1696Y1694D01*
X1696Y1696D01*
X1700Y1696D01*
X1700Y1698D01*
X1704Y1698D01*
X1704Y1700D01*
X1708Y1700D01*
X1708Y1702D01*
X1714Y1702D01*
X1714Y1704D01*
X1722Y1704D01*
X1722Y1706D01*
X1598Y1706D01*
G37*
D02*
G36*
X778Y1598D02*
X778Y1584D01*
X820Y1584D01*
X820Y1586D01*
X814Y1586D01*
X814Y1588D01*
X810Y1588D01*
X810Y1590D01*
X806Y1590D01*
X806Y1592D01*
X804Y1592D01*
X804Y1594D01*
X802Y1594D01*
X802Y1596D01*
X798Y1596D01*
X798Y1598D01*
X778Y1598D01*
G37*
D02*
G36*
X862Y1592D02*
X862Y1590D01*
X858Y1590D01*
X858Y1588D01*
X854Y1588D01*
X854Y1586D01*
X848Y1586D01*
X848Y1584D01*
X882Y1584D01*
X882Y1592D01*
X862Y1592D01*
G37*
D02*
G36*
X994Y1592D02*
X994Y1572D01*
X996Y1572D01*
X996Y1570D01*
X998Y1570D01*
X998Y1566D01*
X1000Y1566D01*
X1000Y1562D01*
X1002Y1562D01*
X1002Y1558D01*
X1004Y1558D01*
X1004Y1552D01*
X1006Y1552D01*
X1006Y1544D01*
X1008Y1544D01*
X1008Y1520D01*
X1006Y1520D01*
X1006Y1512D01*
X1004Y1512D01*
X1004Y1506D01*
X1002Y1506D01*
X1002Y1502D01*
X1000Y1502D01*
X1000Y1498D01*
X998Y1498D01*
X998Y1494D01*
X996Y1494D01*
X996Y1492D01*
X994Y1492D01*
X994Y1472D01*
X996Y1472D01*
X996Y1470D01*
X998Y1470D01*
X998Y1466D01*
X1000Y1466D01*
X1000Y1462D01*
X1002Y1462D01*
X1002Y1458D01*
X1004Y1458D01*
X1004Y1452D01*
X1006Y1452D01*
X1006Y1444D01*
X1008Y1444D01*
X1008Y1420D01*
X1006Y1420D01*
X1006Y1412D01*
X1004Y1412D01*
X1004Y1406D01*
X1002Y1406D01*
X1002Y1402D01*
X1000Y1402D01*
X1000Y1398D01*
X998Y1398D01*
X998Y1394D01*
X996Y1394D01*
X996Y1392D01*
X994Y1392D01*
X994Y1390D01*
X992Y1390D01*
X992Y1386D01*
X990Y1386D01*
X990Y1384D01*
X988Y1384D01*
X988Y1382D01*
X986Y1382D01*
X986Y1380D01*
X984Y1380D01*
X984Y1378D01*
X980Y1378D01*
X980Y1376D01*
X978Y1376D01*
X978Y1374D01*
X976Y1374D01*
X976Y1372D01*
X972Y1372D01*
X972Y1370D01*
X968Y1370D01*
X968Y1368D01*
X964Y1368D01*
X964Y1366D01*
X960Y1366D01*
X960Y1364D01*
X952Y1364D01*
X952Y1362D01*
X1064Y1362D01*
X1064Y1546D01*
X1066Y1546D01*
X1066Y1556D01*
X1068Y1556D01*
X1068Y1562D01*
X1070Y1562D01*
X1070Y1566D01*
X1072Y1566D01*
X1072Y1570D01*
X1074Y1570D01*
X1074Y1572D01*
X1076Y1572D01*
X1076Y1592D01*
X994Y1592D01*
G37*
D02*
G36*
X778Y1584D02*
X778Y1582D01*
X882Y1582D01*
X882Y1584D01*
X778Y1584D01*
G37*
D02*
G36*
X778Y1584D02*
X778Y1582D01*
X882Y1582D01*
X882Y1584D01*
X778Y1584D01*
G37*
D02*
G36*
X778Y1582D02*
X778Y1362D01*
X924Y1362D01*
X924Y1364D01*
X916Y1364D01*
X916Y1366D01*
X910Y1366D01*
X910Y1368D01*
X906Y1368D01*
X906Y1370D01*
X904Y1370D01*
X904Y1372D01*
X900Y1372D01*
X900Y1374D01*
X898Y1374D01*
X898Y1376D01*
X894Y1376D01*
X894Y1378D01*
X892Y1378D01*
X892Y1380D01*
X890Y1380D01*
X890Y1382D01*
X888Y1382D01*
X888Y1384D01*
X886Y1384D01*
X886Y1386D01*
X884Y1386D01*
X884Y1388D01*
X882Y1388D01*
X882Y1392D01*
X880Y1392D01*
X880Y1394D01*
X878Y1394D01*
X878Y1396D01*
X876Y1396D01*
X876Y1400D01*
X874Y1400D01*
X874Y1404D01*
X872Y1404D01*
X872Y1410D01*
X870Y1410D01*
X870Y1418D01*
X868Y1418D01*
X868Y1446D01*
X870Y1446D01*
X870Y1454D01*
X872Y1454D01*
X872Y1460D01*
X874Y1460D01*
X874Y1464D01*
X876Y1464D01*
X876Y1468D01*
X878Y1468D01*
X878Y1470D01*
X880Y1470D01*
X880Y1472D01*
X882Y1472D01*
X882Y1492D01*
X880Y1492D01*
X880Y1494D01*
X878Y1494D01*
X878Y1496D01*
X876Y1496D01*
X876Y1500D01*
X874Y1500D01*
X874Y1504D01*
X872Y1504D01*
X872Y1510D01*
X870Y1510D01*
X870Y1518D01*
X868Y1518D01*
X868Y1546D01*
X870Y1546D01*
X870Y1554D01*
X872Y1554D01*
X872Y1560D01*
X874Y1560D01*
X874Y1564D01*
X876Y1564D01*
X876Y1568D01*
X878Y1568D01*
X878Y1570D01*
X880Y1570D01*
X880Y1572D01*
X882Y1572D01*
X882Y1582D01*
X778Y1582D01*
G37*
D02*
G36*
X1296Y1394D02*
X1296Y1392D01*
X1294Y1392D01*
X1294Y1390D01*
X1292Y1390D01*
X1292Y1386D01*
X1290Y1386D01*
X1290Y1384D01*
X1288Y1384D01*
X1288Y1382D01*
X1286Y1382D01*
X1286Y1380D01*
X1284Y1380D01*
X1284Y1378D01*
X1280Y1378D01*
X1280Y1376D01*
X1278Y1376D01*
X1278Y1374D01*
X1276Y1374D01*
X1276Y1372D01*
X1272Y1372D01*
X1272Y1370D01*
X1268Y1370D01*
X1268Y1368D01*
X1264Y1368D01*
X1264Y1366D01*
X1260Y1366D01*
X1260Y1364D01*
X1252Y1364D01*
X1252Y1362D01*
X1210Y1362D01*
X1210Y1360D01*
X1464Y1360D01*
X1464Y1392D01*
X1318Y1392D01*
X1318Y1394D01*
X1296Y1394D01*
G37*
D02*
G36*
X778Y1362D02*
X778Y1360D01*
X1064Y1360D01*
X1064Y1362D01*
X778Y1362D01*
G37*
D02*
G36*
X778Y1362D02*
X778Y1360D01*
X1064Y1360D01*
X1064Y1362D01*
X778Y1362D01*
G37*
D02*
G36*
X778Y1360D02*
X778Y1358D01*
X1464Y1358D01*
X1464Y1360D01*
X778Y1360D01*
G37*
D02*
G36*
X778Y1360D02*
X778Y1358D01*
X1464Y1358D01*
X1464Y1360D01*
X778Y1360D01*
G37*
D02*
G36*
X778Y1358D02*
X778Y1280D01*
X1148Y1280D01*
X1148Y1278D01*
X1156Y1278D01*
X1156Y1276D01*
X1160Y1276D01*
X1160Y1274D01*
X1162Y1274D01*
X1162Y1272D01*
X1164Y1272D01*
X1164Y1270D01*
X1168Y1270D01*
X1168Y1266D01*
X1170Y1266D01*
X1170Y1264D01*
X1172Y1264D01*
X1172Y1262D01*
X1174Y1262D01*
X1174Y1258D01*
X1176Y1258D01*
X1176Y1252D01*
X1178Y1252D01*
X1178Y1218D01*
X1180Y1218D01*
X1180Y1206D01*
X1346Y1206D01*
X1346Y1204D01*
X1354Y1204D01*
X1354Y1202D01*
X1360Y1202D01*
X1360Y1200D01*
X1364Y1200D01*
X1364Y1198D01*
X1368Y1198D01*
X1368Y1196D01*
X1372Y1196D01*
X1372Y1194D01*
X1374Y1194D01*
X1374Y1192D01*
X1376Y1192D01*
X1376Y1190D01*
X1380Y1190D01*
X1380Y1188D01*
X1382Y1188D01*
X1382Y1186D01*
X1384Y1186D01*
X1384Y1184D01*
X1386Y1184D01*
X1386Y1182D01*
X1388Y1182D01*
X1388Y1178D01*
X1390Y1178D01*
X1390Y1176D01*
X1392Y1176D01*
X1392Y1174D01*
X1394Y1174D01*
X1394Y1170D01*
X1396Y1170D01*
X1396Y1166D01*
X1520Y1166D01*
X1520Y1168D01*
X1512Y1168D01*
X1512Y1170D01*
X1506Y1170D01*
X1506Y1172D01*
X1502Y1172D01*
X1502Y1174D01*
X1498Y1174D01*
X1498Y1176D01*
X1496Y1176D01*
X1496Y1178D01*
X1494Y1178D01*
X1494Y1180D01*
X1490Y1180D01*
X1490Y1182D01*
X1488Y1182D01*
X1488Y1184D01*
X1486Y1184D01*
X1486Y1186D01*
X1484Y1186D01*
X1484Y1188D01*
X1482Y1188D01*
X1482Y1190D01*
X1480Y1190D01*
X1480Y1192D01*
X1478Y1192D01*
X1478Y1196D01*
X1476Y1196D01*
X1476Y1198D01*
X1474Y1198D01*
X1474Y1202D01*
X1472Y1202D01*
X1472Y1204D01*
X1470Y1204D01*
X1470Y1208D01*
X1468Y1208D01*
X1468Y1214D01*
X1466Y1214D01*
X1466Y1222D01*
X1464Y1222D01*
X1464Y1248D01*
X1466Y1248D01*
X1466Y1258D01*
X1468Y1258D01*
X1468Y1262D01*
X1470Y1262D01*
X1470Y1266D01*
X1472Y1266D01*
X1472Y1270D01*
X1474Y1270D01*
X1474Y1274D01*
X1476Y1274D01*
X1476Y1276D01*
X1478Y1276D01*
X1478Y1296D01*
X1476Y1296D01*
X1476Y1298D01*
X1474Y1298D01*
X1474Y1302D01*
X1472Y1302D01*
X1472Y1304D01*
X1470Y1304D01*
X1470Y1308D01*
X1468Y1308D01*
X1468Y1314D01*
X1466Y1314D01*
X1466Y1322D01*
X1464Y1322D01*
X1464Y1358D01*
X778Y1358D01*
G37*
D02*
G36*
X778Y1280D02*
X778Y1264D01*
X798Y1264D01*
X798Y1266D01*
X800Y1266D01*
X800Y1268D01*
X802Y1268D01*
X802Y1270D01*
X804Y1270D01*
X804Y1272D01*
X806Y1272D01*
X806Y1274D01*
X808Y1274D01*
X808Y1276D01*
X814Y1276D01*
X814Y1278D01*
X820Y1278D01*
X820Y1280D01*
X778Y1280D01*
G37*
D02*
G36*
X1180Y1206D02*
X1180Y1194D01*
X1182Y1194D01*
X1182Y1192D01*
X1184Y1192D01*
X1184Y1190D01*
X1186Y1190D01*
X1186Y1188D01*
X1188Y1188D01*
X1188Y1186D01*
X1190Y1186D01*
X1190Y1184D01*
X1192Y1184D01*
X1192Y1182D01*
X1194Y1182D01*
X1194Y1180D01*
X1196Y1180D01*
X1196Y1178D01*
X1198Y1178D01*
X1198Y1174D01*
X1200Y1174D01*
X1200Y1172D01*
X1202Y1172D01*
X1202Y1168D01*
X1204Y1168D01*
X1204Y1164D01*
X1206Y1164D01*
X1206Y1160D01*
X1208Y1160D01*
X1208Y1154D01*
X1210Y1154D01*
X1210Y1102D01*
X1266Y1102D01*
X1266Y1122D01*
X1264Y1122D01*
X1264Y1148D01*
X1266Y1148D01*
X1266Y1158D01*
X1268Y1158D01*
X1268Y1162D01*
X1270Y1162D01*
X1270Y1166D01*
X1272Y1166D01*
X1272Y1170D01*
X1274Y1170D01*
X1274Y1174D01*
X1276Y1174D01*
X1276Y1176D01*
X1278Y1176D01*
X1278Y1178D01*
X1280Y1178D01*
X1280Y1182D01*
X1282Y1182D01*
X1282Y1184D01*
X1284Y1184D01*
X1284Y1186D01*
X1286Y1186D01*
X1286Y1188D01*
X1288Y1188D01*
X1288Y1190D01*
X1292Y1190D01*
X1292Y1192D01*
X1294Y1192D01*
X1294Y1194D01*
X1296Y1194D01*
X1296Y1196D01*
X1300Y1196D01*
X1300Y1198D01*
X1304Y1198D01*
X1304Y1200D01*
X1308Y1200D01*
X1308Y1202D01*
X1314Y1202D01*
X1314Y1204D01*
X1322Y1204D01*
X1322Y1206D01*
X1180Y1206D01*
G37*
D02*
G36*
X1570Y1176D02*
X1570Y1174D01*
X1566Y1174D01*
X1566Y1172D01*
X1562Y1172D01*
X1562Y1170D01*
X1556Y1170D01*
X1556Y1168D01*
X1550Y1168D01*
X1550Y1166D01*
X1590Y1166D01*
X1590Y1176D01*
X1570Y1176D01*
G37*
D02*
G36*
X1398Y1166D02*
X1398Y1164D01*
X1590Y1164D01*
X1590Y1166D01*
X1398Y1166D01*
G37*
D02*
G36*
X1398Y1166D02*
X1398Y1164D01*
X1590Y1164D01*
X1590Y1166D01*
X1398Y1166D01*
G37*
D02*
G36*
X1398Y1164D02*
X1398Y1162D01*
X1400Y1162D01*
X1400Y1158D01*
X1402Y1158D01*
X1402Y1150D01*
X1404Y1150D01*
X1404Y1122D01*
X1402Y1122D01*
X1402Y1114D01*
X1400Y1114D01*
X1400Y1108D01*
X1398Y1108D01*
X1398Y1104D01*
X1396Y1104D01*
X1396Y1102D01*
X1394Y1102D01*
X1394Y1080D01*
X1464Y1080D01*
X1464Y1104D01*
X1466Y1104D01*
X1466Y1106D01*
X1590Y1106D01*
X1590Y1164D01*
X1398Y1164D01*
G37*
D02*
G36*
X1762Y1492D02*
X1762Y1472D01*
X1764Y1472D01*
X1764Y1470D01*
X1768Y1470D01*
X1768Y1466D01*
X1770Y1466D01*
X1770Y1464D01*
X1772Y1464D01*
X1772Y1462D01*
X1774Y1462D01*
X1774Y1458D01*
X1776Y1458D01*
X1776Y1452D01*
X1778Y1452D01*
X1778Y1406D01*
X1890Y1406D01*
X1890Y1492D01*
X1762Y1492D01*
G37*
D02*
G36*
X1604Y1440D02*
X1604Y1322D01*
X1602Y1322D01*
X1602Y1314D01*
X1600Y1314D01*
X1600Y1308D01*
X1598Y1308D01*
X1598Y1304D01*
X1596Y1304D01*
X1596Y1302D01*
X1594Y1302D01*
X1594Y1280D01*
X1664Y1280D01*
X1664Y1304D01*
X1666Y1304D01*
X1666Y1306D01*
X1690Y1306D01*
X1690Y1406D01*
X1688Y1406D01*
X1688Y1408D01*
X1684Y1408D01*
X1684Y1410D01*
X1680Y1410D01*
X1680Y1412D01*
X1676Y1412D01*
X1676Y1414D01*
X1672Y1414D01*
X1672Y1416D01*
X1668Y1416D01*
X1668Y1418D01*
X1664Y1418D01*
X1664Y1420D01*
X1660Y1420D01*
X1660Y1422D01*
X1656Y1422D01*
X1656Y1424D01*
X1652Y1424D01*
X1652Y1426D01*
X1648Y1426D01*
X1648Y1428D01*
X1644Y1428D01*
X1644Y1430D01*
X1640Y1430D01*
X1640Y1432D01*
X1636Y1432D01*
X1636Y1434D01*
X1632Y1434D01*
X1632Y1436D01*
X1628Y1436D01*
X1628Y1438D01*
X1624Y1438D01*
X1624Y1440D01*
X1604Y1440D01*
G37*
D02*
G36*
X994Y1192D02*
X994Y1172D01*
X996Y1172D01*
X996Y1170D01*
X998Y1170D01*
X998Y1166D01*
X1000Y1166D01*
X1000Y1162D01*
X1002Y1162D01*
X1002Y1158D01*
X1004Y1158D01*
X1004Y1152D01*
X1006Y1152D01*
X1006Y1144D01*
X1008Y1144D01*
X1008Y1120D01*
X1006Y1120D01*
X1006Y1112D01*
X1004Y1112D01*
X1004Y1106D01*
X1002Y1106D01*
X1002Y1102D01*
X1000Y1102D01*
X1000Y1098D01*
X998Y1098D01*
X998Y1094D01*
X996Y1094D01*
X996Y1092D01*
X994Y1092D01*
X994Y1072D01*
X996Y1072D01*
X996Y1070D01*
X998Y1070D01*
X998Y1066D01*
X1000Y1066D01*
X1000Y1062D01*
X1002Y1062D01*
X1002Y1058D01*
X1004Y1058D01*
X1004Y1052D01*
X1006Y1052D01*
X1006Y1044D01*
X1008Y1044D01*
X1008Y1020D01*
X1006Y1020D01*
X1006Y1012D01*
X1004Y1012D01*
X1004Y1006D01*
X1002Y1006D01*
X1002Y1002D01*
X1000Y1002D01*
X1000Y998D01*
X998Y998D01*
X998Y994D01*
X996Y994D01*
X996Y992D01*
X994Y992D01*
X994Y990D01*
X992Y990D01*
X992Y986D01*
X990Y986D01*
X990Y984D01*
X988Y984D01*
X988Y982D01*
X986Y982D01*
X986Y980D01*
X984Y980D01*
X984Y978D01*
X980Y978D01*
X980Y976D01*
X978Y976D01*
X978Y974D01*
X976Y974D01*
X976Y972D01*
X972Y972D01*
X972Y970D01*
X968Y970D01*
X968Y968D01*
X964Y968D01*
X964Y966D01*
X960Y966D01*
X960Y964D01*
X952Y964D01*
X952Y962D01*
X1064Y962D01*
X1064Y1146D01*
X1066Y1146D01*
X1066Y1156D01*
X1068Y1156D01*
X1068Y1162D01*
X1070Y1162D01*
X1070Y1166D01*
X1072Y1166D01*
X1072Y1170D01*
X1074Y1170D01*
X1074Y1172D01*
X1076Y1172D01*
X1076Y1192D01*
X994Y1192D01*
G37*
D02*
G36*
X778Y1098D02*
X778Y1084D01*
X820Y1084D01*
X820Y1086D01*
X814Y1086D01*
X814Y1088D01*
X810Y1088D01*
X810Y1090D01*
X806Y1090D01*
X806Y1092D01*
X804Y1092D01*
X804Y1094D01*
X802Y1094D01*
X802Y1096D01*
X798Y1096D01*
X798Y1098D01*
X778Y1098D01*
G37*
D02*
G36*
X862Y1092D02*
X862Y1090D01*
X858Y1090D01*
X858Y1088D01*
X854Y1088D01*
X854Y1086D01*
X848Y1086D01*
X848Y1084D01*
X882Y1084D01*
X882Y1092D01*
X862Y1092D01*
G37*
D02*
G36*
X778Y1084D02*
X778Y1082D01*
X882Y1082D01*
X882Y1084D01*
X778Y1084D01*
G37*
D02*
G36*
X778Y1084D02*
X778Y1082D01*
X882Y1082D01*
X882Y1084D01*
X778Y1084D01*
G37*
D02*
G36*
X778Y1082D02*
X778Y962D01*
X924Y962D01*
X924Y964D01*
X916Y964D01*
X916Y966D01*
X910Y966D01*
X910Y968D01*
X906Y968D01*
X906Y970D01*
X904Y970D01*
X904Y972D01*
X900Y972D01*
X900Y974D01*
X898Y974D01*
X898Y976D01*
X894Y976D01*
X894Y978D01*
X892Y978D01*
X892Y980D01*
X890Y980D01*
X890Y982D01*
X888Y982D01*
X888Y984D01*
X886Y984D01*
X886Y986D01*
X884Y986D01*
X884Y988D01*
X882Y988D01*
X882Y992D01*
X880Y992D01*
X880Y994D01*
X878Y994D01*
X878Y996D01*
X876Y996D01*
X876Y1000D01*
X874Y1000D01*
X874Y1004D01*
X872Y1004D01*
X872Y1010D01*
X870Y1010D01*
X870Y1018D01*
X868Y1018D01*
X868Y1046D01*
X870Y1046D01*
X870Y1054D01*
X872Y1054D01*
X872Y1060D01*
X874Y1060D01*
X874Y1064D01*
X876Y1064D01*
X876Y1068D01*
X878Y1068D01*
X878Y1070D01*
X880Y1070D01*
X880Y1072D01*
X882Y1072D01*
X882Y1082D01*
X778Y1082D01*
G37*
D02*
G36*
X1404Y992D02*
X1404Y990D01*
X1308Y990D01*
X1308Y964D01*
X1306Y964D01*
X1306Y962D01*
X1210Y962D01*
X1210Y960D01*
X1464Y960D01*
X1464Y992D01*
X1404Y992D01*
G37*
D02*
G36*
X778Y962D02*
X778Y960D01*
X1064Y960D01*
X1064Y962D01*
X778Y962D01*
G37*
D02*
G36*
X778Y962D02*
X778Y960D01*
X1064Y960D01*
X1064Y962D01*
X778Y962D01*
G37*
D02*
G36*
X778Y960D02*
X778Y958D01*
X1464Y958D01*
X1464Y960D01*
X778Y960D01*
G37*
D02*
G36*
X778Y960D02*
X778Y958D01*
X1464Y958D01*
X1464Y960D01*
X778Y960D01*
G37*
D02*
G36*
X778Y958D02*
X778Y880D01*
X1148Y880D01*
X1148Y878D01*
X1156Y878D01*
X1156Y876D01*
X1160Y876D01*
X1160Y874D01*
X1162Y874D01*
X1162Y872D01*
X1164Y872D01*
X1164Y870D01*
X1168Y870D01*
X1168Y866D01*
X1170Y866D01*
X1170Y864D01*
X1172Y864D01*
X1172Y862D01*
X1174Y862D01*
X1174Y858D01*
X1176Y858D01*
X1176Y852D01*
X1178Y852D01*
X1178Y818D01*
X1180Y818D01*
X1180Y794D01*
X1182Y794D01*
X1182Y792D01*
X1184Y792D01*
X1184Y790D01*
X1186Y790D01*
X1186Y788D01*
X1188Y788D01*
X1188Y786D01*
X1190Y786D01*
X1190Y784D01*
X1192Y784D01*
X1192Y782D01*
X1194Y782D01*
X1194Y780D01*
X1196Y780D01*
X1196Y778D01*
X1198Y778D01*
X1198Y774D01*
X1200Y774D01*
X1200Y772D01*
X1202Y772D01*
X1202Y768D01*
X1204Y768D01*
X1204Y766D01*
X1520Y766D01*
X1520Y768D01*
X1512Y768D01*
X1512Y770D01*
X1506Y770D01*
X1506Y772D01*
X1502Y772D01*
X1502Y774D01*
X1498Y774D01*
X1498Y776D01*
X1496Y776D01*
X1496Y778D01*
X1494Y778D01*
X1494Y780D01*
X1490Y780D01*
X1490Y782D01*
X1488Y782D01*
X1488Y784D01*
X1486Y784D01*
X1486Y786D01*
X1484Y786D01*
X1484Y788D01*
X1482Y788D01*
X1482Y790D01*
X1480Y790D01*
X1480Y792D01*
X1478Y792D01*
X1478Y796D01*
X1476Y796D01*
X1476Y798D01*
X1474Y798D01*
X1474Y802D01*
X1472Y802D01*
X1472Y804D01*
X1470Y804D01*
X1470Y808D01*
X1468Y808D01*
X1468Y814D01*
X1466Y814D01*
X1466Y822D01*
X1464Y822D01*
X1464Y848D01*
X1466Y848D01*
X1466Y858D01*
X1468Y858D01*
X1468Y862D01*
X1470Y862D01*
X1470Y866D01*
X1472Y866D01*
X1472Y870D01*
X1474Y870D01*
X1474Y874D01*
X1476Y874D01*
X1476Y876D01*
X1478Y876D01*
X1478Y896D01*
X1476Y896D01*
X1476Y898D01*
X1474Y898D01*
X1474Y902D01*
X1472Y902D01*
X1472Y904D01*
X1470Y904D01*
X1470Y908D01*
X1468Y908D01*
X1468Y914D01*
X1466Y914D01*
X1466Y922D01*
X1464Y922D01*
X1464Y958D01*
X778Y958D01*
G37*
D02*
G36*
X778Y880D02*
X778Y864D01*
X798Y864D01*
X798Y866D01*
X800Y866D01*
X800Y868D01*
X802Y868D01*
X802Y870D01*
X804Y870D01*
X804Y872D01*
X806Y872D01*
X806Y874D01*
X808Y874D01*
X808Y876D01*
X814Y876D01*
X814Y878D01*
X820Y878D01*
X820Y880D01*
X778Y880D01*
G37*
D02*
G36*
X1570Y776D02*
X1570Y774D01*
X1566Y774D01*
X1566Y772D01*
X1562Y772D01*
X1562Y770D01*
X1556Y770D01*
X1556Y768D01*
X1550Y768D01*
X1550Y766D01*
X1590Y766D01*
X1590Y776D01*
X1570Y776D01*
G37*
D02*
G36*
X1204Y766D02*
X1204Y764D01*
X1590Y764D01*
X1590Y766D01*
X1204Y766D01*
G37*
D02*
G36*
X1204Y766D02*
X1204Y764D01*
X1590Y764D01*
X1590Y766D01*
X1204Y766D01*
G37*
D02*
G36*
X1206Y764D02*
X1206Y760D01*
X1208Y760D01*
X1208Y754D01*
X1210Y754D01*
X1210Y702D01*
X1406Y702D01*
X1406Y700D01*
X1408Y700D01*
X1408Y680D01*
X1464Y680D01*
X1464Y704D01*
X1466Y704D01*
X1466Y706D01*
X1590Y706D01*
X1590Y764D01*
X1206Y764D01*
G37*
D02*
G36*
X44Y2388D02*
X44Y2338D01*
X592Y2338D01*
X592Y2336D01*
X602Y2336D01*
X602Y2334D01*
X608Y2334D01*
X608Y2332D01*
X612Y2332D01*
X612Y2330D01*
X618Y2330D01*
X618Y2328D01*
X622Y2328D01*
X622Y2326D01*
X624Y2326D01*
X624Y2324D01*
X628Y2324D01*
X628Y2322D01*
X630Y2322D01*
X630Y2320D01*
X634Y2320D01*
X634Y2318D01*
X636Y2318D01*
X636Y2316D01*
X638Y2316D01*
X638Y2314D01*
X642Y2314D01*
X642Y2312D01*
X644Y2312D01*
X644Y2310D01*
X646Y2310D01*
X646Y2308D01*
X648Y2308D01*
X648Y2306D01*
X650Y2306D01*
X650Y2304D01*
X652Y2304D01*
X652Y2300D01*
X654Y2300D01*
X654Y2298D01*
X656Y2298D01*
X656Y2296D01*
X658Y2296D01*
X658Y2294D01*
X660Y2294D01*
X660Y2290D01*
X662Y2290D01*
X662Y2286D01*
X664Y2286D01*
X664Y2284D01*
X666Y2284D01*
X666Y2280D01*
X668Y2280D01*
X668Y2276D01*
X670Y2276D01*
X670Y2270D01*
X672Y2270D01*
X672Y2264D01*
X674Y2264D01*
X674Y2256D01*
X676Y2256D01*
X676Y2216D01*
X674Y2216D01*
X674Y2208D01*
X672Y2208D01*
X672Y2202D01*
X670Y2202D01*
X670Y2196D01*
X668Y2196D01*
X668Y2192D01*
X666Y2192D01*
X666Y2188D01*
X664Y2188D01*
X664Y2184D01*
X662Y2184D01*
X662Y2182D01*
X660Y2182D01*
X660Y2180D01*
X3548Y2180D01*
X3548Y2178D01*
X3556Y2178D01*
X3556Y2176D01*
X3560Y2176D01*
X3560Y2174D01*
X3562Y2174D01*
X3562Y2172D01*
X3564Y2172D01*
X3564Y2170D01*
X3568Y2170D01*
X3568Y2166D01*
X3570Y2166D01*
X3570Y2164D01*
X3572Y2164D01*
X3572Y2162D01*
X3574Y2162D01*
X3574Y2158D01*
X3576Y2158D01*
X3576Y2152D01*
X3578Y2152D01*
X3578Y2102D01*
X3752Y2102D01*
X3752Y2100D01*
X3760Y2100D01*
X3760Y2098D01*
X3764Y2098D01*
X3764Y2096D01*
X3768Y2096D01*
X3768Y2094D01*
X3772Y2094D01*
X3772Y2092D01*
X3776Y2092D01*
X3776Y2090D01*
X3778Y2090D01*
X3778Y2088D01*
X3780Y2088D01*
X3780Y2086D01*
X3784Y2086D01*
X3784Y2084D01*
X3786Y2084D01*
X3786Y2082D01*
X3806Y2082D01*
X3806Y2388D01*
X44Y2388D01*
G37*
D02*
G36*
X44Y2338D02*
X44Y2134D01*
X314Y2134D01*
X314Y2136D01*
X306Y2136D01*
X306Y2138D01*
X300Y2138D01*
X300Y2140D01*
X294Y2140D01*
X294Y2142D01*
X290Y2142D01*
X290Y2144D01*
X286Y2144D01*
X286Y2146D01*
X282Y2146D01*
X282Y2148D01*
X280Y2148D01*
X280Y2150D01*
X276Y2150D01*
X276Y2152D01*
X274Y2152D01*
X274Y2154D01*
X272Y2154D01*
X272Y2156D01*
X268Y2156D01*
X268Y2158D01*
X266Y2158D01*
X266Y2160D01*
X264Y2160D01*
X264Y2162D01*
X262Y2162D01*
X262Y2164D01*
X260Y2164D01*
X260Y2166D01*
X258Y2166D01*
X258Y2168D01*
X256Y2168D01*
X256Y2170D01*
X254Y2170D01*
X254Y2174D01*
X252Y2174D01*
X252Y2176D01*
X250Y2176D01*
X250Y2178D01*
X248Y2178D01*
X248Y2182D01*
X246Y2182D01*
X246Y2184D01*
X244Y2184D01*
X244Y2188D01*
X242Y2188D01*
X242Y2192D01*
X240Y2192D01*
X240Y2196D01*
X238Y2196D01*
X238Y2202D01*
X236Y2202D01*
X236Y2208D01*
X234Y2208D01*
X234Y2218D01*
X232Y2218D01*
X232Y2254D01*
X234Y2254D01*
X234Y2264D01*
X236Y2264D01*
X236Y2270D01*
X238Y2270D01*
X238Y2274D01*
X240Y2274D01*
X240Y2280D01*
X242Y2280D01*
X242Y2284D01*
X244Y2284D01*
X244Y2286D01*
X246Y2286D01*
X246Y2290D01*
X248Y2290D01*
X248Y2292D01*
X250Y2292D01*
X250Y2296D01*
X252Y2296D01*
X252Y2298D01*
X254Y2298D01*
X254Y2300D01*
X256Y2300D01*
X256Y2304D01*
X258Y2304D01*
X258Y2306D01*
X260Y2306D01*
X260Y2308D01*
X262Y2308D01*
X262Y2310D01*
X264Y2310D01*
X264Y2312D01*
X266Y2312D01*
X266Y2314D01*
X270Y2314D01*
X270Y2316D01*
X272Y2316D01*
X272Y2318D01*
X274Y2318D01*
X274Y2320D01*
X278Y2320D01*
X278Y2322D01*
X280Y2322D01*
X280Y2324D01*
X284Y2324D01*
X284Y2326D01*
X286Y2326D01*
X286Y2328D01*
X290Y2328D01*
X290Y2330D01*
X296Y2330D01*
X296Y2332D01*
X300Y2332D01*
X300Y2334D01*
X306Y2334D01*
X306Y2336D01*
X316Y2336D01*
X316Y2338D01*
X44Y2338D01*
G37*
D02*
G36*
X352Y2338D02*
X352Y2336D01*
X362Y2336D01*
X362Y2334D01*
X368Y2334D01*
X368Y2332D01*
X372Y2332D01*
X372Y2330D01*
X378Y2330D01*
X378Y2328D01*
X382Y2328D01*
X382Y2326D01*
X384Y2326D01*
X384Y2324D01*
X388Y2324D01*
X388Y2322D01*
X390Y2322D01*
X390Y2320D01*
X394Y2320D01*
X394Y2318D01*
X396Y2318D01*
X396Y2316D01*
X398Y2316D01*
X398Y2314D01*
X402Y2314D01*
X402Y2312D01*
X404Y2312D01*
X404Y2310D01*
X406Y2310D01*
X406Y2308D01*
X408Y2308D01*
X408Y2306D01*
X410Y2306D01*
X410Y2304D01*
X412Y2304D01*
X412Y2300D01*
X414Y2300D01*
X414Y2298D01*
X416Y2298D01*
X416Y2296D01*
X418Y2296D01*
X418Y2294D01*
X420Y2294D01*
X420Y2290D01*
X422Y2290D01*
X422Y2286D01*
X424Y2286D01*
X424Y2284D01*
X426Y2284D01*
X426Y2280D01*
X428Y2280D01*
X428Y2276D01*
X430Y2276D01*
X430Y2270D01*
X432Y2270D01*
X432Y2264D01*
X434Y2264D01*
X434Y2256D01*
X436Y2256D01*
X436Y2216D01*
X434Y2216D01*
X434Y2208D01*
X432Y2208D01*
X432Y2202D01*
X430Y2202D01*
X430Y2196D01*
X428Y2196D01*
X428Y2192D01*
X426Y2192D01*
X426Y2188D01*
X424Y2188D01*
X424Y2184D01*
X422Y2184D01*
X422Y2182D01*
X420Y2182D01*
X420Y2178D01*
X418Y2178D01*
X418Y2176D01*
X416Y2176D01*
X416Y2174D01*
X414Y2174D01*
X414Y2170D01*
X412Y2170D01*
X412Y2168D01*
X410Y2168D01*
X410Y2166D01*
X408Y2166D01*
X408Y2164D01*
X406Y2164D01*
X406Y2162D01*
X404Y2162D01*
X404Y2160D01*
X402Y2160D01*
X402Y2158D01*
X400Y2158D01*
X400Y2156D01*
X398Y2156D01*
X398Y2154D01*
X394Y2154D01*
X394Y2152D01*
X392Y2152D01*
X392Y2150D01*
X388Y2150D01*
X388Y2148D01*
X472Y2148D01*
X472Y2146D01*
X482Y2146D01*
X482Y2144D01*
X488Y2144D01*
X488Y2142D01*
X492Y2142D01*
X492Y2140D01*
X498Y2140D01*
X498Y2138D01*
X502Y2138D01*
X502Y2136D01*
X504Y2136D01*
X504Y2134D01*
X554Y2134D01*
X554Y2136D01*
X546Y2136D01*
X546Y2138D01*
X540Y2138D01*
X540Y2140D01*
X534Y2140D01*
X534Y2142D01*
X530Y2142D01*
X530Y2144D01*
X526Y2144D01*
X526Y2146D01*
X522Y2146D01*
X522Y2148D01*
X520Y2148D01*
X520Y2150D01*
X516Y2150D01*
X516Y2152D01*
X514Y2152D01*
X514Y2154D01*
X512Y2154D01*
X512Y2156D01*
X508Y2156D01*
X508Y2158D01*
X506Y2158D01*
X506Y2160D01*
X504Y2160D01*
X504Y2162D01*
X502Y2162D01*
X502Y2164D01*
X500Y2164D01*
X500Y2166D01*
X498Y2166D01*
X498Y2168D01*
X496Y2168D01*
X496Y2170D01*
X494Y2170D01*
X494Y2174D01*
X492Y2174D01*
X492Y2176D01*
X490Y2176D01*
X490Y2178D01*
X488Y2178D01*
X488Y2182D01*
X486Y2182D01*
X486Y2184D01*
X484Y2184D01*
X484Y2188D01*
X482Y2188D01*
X482Y2192D01*
X480Y2192D01*
X480Y2196D01*
X478Y2196D01*
X478Y2202D01*
X476Y2202D01*
X476Y2208D01*
X474Y2208D01*
X474Y2218D01*
X472Y2218D01*
X472Y2254D01*
X474Y2254D01*
X474Y2264D01*
X476Y2264D01*
X476Y2270D01*
X478Y2270D01*
X478Y2274D01*
X480Y2274D01*
X480Y2280D01*
X482Y2280D01*
X482Y2284D01*
X484Y2284D01*
X484Y2286D01*
X486Y2286D01*
X486Y2290D01*
X488Y2290D01*
X488Y2292D01*
X490Y2292D01*
X490Y2296D01*
X492Y2296D01*
X492Y2298D01*
X494Y2298D01*
X494Y2300D01*
X496Y2300D01*
X496Y2304D01*
X498Y2304D01*
X498Y2306D01*
X500Y2306D01*
X500Y2308D01*
X502Y2308D01*
X502Y2310D01*
X504Y2310D01*
X504Y2312D01*
X506Y2312D01*
X506Y2314D01*
X510Y2314D01*
X510Y2316D01*
X512Y2316D01*
X512Y2318D01*
X514Y2318D01*
X514Y2320D01*
X518Y2320D01*
X518Y2322D01*
X520Y2322D01*
X520Y2324D01*
X524Y2324D01*
X524Y2326D01*
X526Y2326D01*
X526Y2328D01*
X530Y2328D01*
X530Y2330D01*
X536Y2330D01*
X536Y2332D01*
X540Y2332D01*
X540Y2334D01*
X546Y2334D01*
X546Y2336D01*
X556Y2336D01*
X556Y2338D01*
X352Y2338D01*
G37*
D02*
G36*
X660Y2180D02*
X660Y2178D01*
X658Y2178D01*
X658Y2176D01*
X656Y2176D01*
X656Y2174D01*
X654Y2174D01*
X654Y2170D01*
X652Y2170D01*
X652Y2168D01*
X650Y2168D01*
X650Y2166D01*
X648Y2166D01*
X648Y2164D01*
X646Y2164D01*
X646Y2162D01*
X644Y2162D01*
X644Y2160D01*
X642Y2160D01*
X642Y2158D01*
X640Y2158D01*
X640Y2156D01*
X638Y2156D01*
X638Y2154D01*
X634Y2154D01*
X634Y2152D01*
X632Y2152D01*
X632Y2150D01*
X628Y2150D01*
X628Y2148D01*
X626Y2148D01*
X626Y2146D01*
X622Y2146D01*
X622Y2144D01*
X618Y2144D01*
X618Y2142D01*
X614Y2142D01*
X614Y2140D01*
X610Y2140D01*
X610Y2138D01*
X604Y2138D01*
X604Y2136D01*
X594Y2136D01*
X594Y2134D01*
X1378Y2134D01*
X1378Y2136D01*
X1380Y2136D01*
X1380Y2140D01*
X1382Y2140D01*
X1382Y2142D01*
X1384Y2142D01*
X1384Y2146D01*
X1386Y2146D01*
X1386Y2148D01*
X1388Y2148D01*
X1388Y2152D01*
X1390Y2152D01*
X1390Y2156D01*
X1392Y2156D01*
X1392Y2158D01*
X1394Y2158D01*
X1394Y2162D01*
X1396Y2162D01*
X1396Y2164D01*
X1398Y2164D01*
X1398Y2166D01*
X1400Y2166D01*
X1400Y2170D01*
X1404Y2170D01*
X1404Y2172D01*
X1406Y2172D01*
X1406Y2174D01*
X1408Y2174D01*
X1408Y2176D01*
X1414Y2176D01*
X1414Y2178D01*
X1420Y2178D01*
X1420Y2180D01*
X660Y2180D01*
G37*
D02*
G36*
X1648Y2180D02*
X1648Y2178D01*
X1656Y2178D01*
X1656Y2176D01*
X1660Y2176D01*
X1660Y2174D01*
X1662Y2174D01*
X1662Y2172D01*
X1664Y2172D01*
X1664Y2170D01*
X1668Y2170D01*
X1668Y2166D01*
X1670Y2166D01*
X1670Y2164D01*
X1672Y2164D01*
X1672Y2162D01*
X1674Y2162D01*
X1674Y2158D01*
X1676Y2158D01*
X1676Y2152D01*
X1678Y2152D01*
X1678Y2102D01*
X3152Y2102D01*
X3152Y2100D01*
X3160Y2100D01*
X3160Y2098D01*
X3164Y2098D01*
X3164Y2096D01*
X3168Y2096D01*
X3168Y2094D01*
X3190Y2094D01*
X3190Y2152D01*
X3192Y2152D01*
X3192Y2158D01*
X3194Y2158D01*
X3194Y2162D01*
X3196Y2162D01*
X3196Y2164D01*
X3198Y2164D01*
X3198Y2166D01*
X3200Y2166D01*
X3200Y2170D01*
X3204Y2170D01*
X3204Y2172D01*
X3206Y2172D01*
X3206Y2174D01*
X3208Y2174D01*
X3208Y2176D01*
X3214Y2176D01*
X3214Y2178D01*
X3220Y2178D01*
X3220Y2180D01*
X1648Y2180D01*
G37*
D02*
G36*
X386Y2148D02*
X386Y2146D01*
X382Y2146D01*
X382Y2144D01*
X378Y2144D01*
X378Y2142D01*
X374Y2142D01*
X374Y2140D01*
X370Y2140D01*
X370Y2138D01*
X364Y2138D01*
X364Y2136D01*
X354Y2136D01*
X354Y2134D01*
X404Y2134D01*
X404Y2136D01*
X406Y2136D01*
X406Y2138D01*
X410Y2138D01*
X410Y2140D01*
X416Y2140D01*
X416Y2142D01*
X420Y2142D01*
X420Y2144D01*
X426Y2144D01*
X426Y2146D01*
X436Y2146D01*
X436Y2148D01*
X386Y2148D01*
G37*
D02*
G36*
X44Y2134D02*
X44Y2132D01*
X400Y2132D01*
X400Y2134D01*
X44Y2134D01*
G37*
D02*
G36*
X44Y2134D02*
X44Y2132D01*
X400Y2132D01*
X400Y2134D01*
X44Y2134D01*
G37*
D02*
G36*
X508Y2134D02*
X508Y2132D01*
X1376Y2132D01*
X1376Y2134D01*
X508Y2134D01*
G37*
D02*
G36*
X508Y2134D02*
X508Y2132D01*
X1376Y2132D01*
X1376Y2134D01*
X508Y2134D01*
G37*
D02*
G36*
X44Y2132D02*
X44Y1974D01*
X266Y1974D01*
X266Y1944D01*
X434Y1944D01*
X434Y1946D01*
X426Y1946D01*
X426Y1948D01*
X420Y1948D01*
X420Y1950D01*
X414Y1950D01*
X414Y1952D01*
X410Y1952D01*
X410Y1954D01*
X406Y1954D01*
X406Y1956D01*
X402Y1956D01*
X402Y1958D01*
X400Y1958D01*
X400Y1960D01*
X396Y1960D01*
X396Y1962D01*
X394Y1962D01*
X394Y1964D01*
X392Y1964D01*
X392Y1966D01*
X388Y1966D01*
X388Y1968D01*
X386Y1968D01*
X386Y1970D01*
X384Y1970D01*
X384Y1972D01*
X382Y1972D01*
X382Y1974D01*
X380Y1974D01*
X380Y1976D01*
X378Y1976D01*
X378Y1978D01*
X376Y1978D01*
X376Y1980D01*
X374Y1980D01*
X374Y1984D01*
X372Y1984D01*
X372Y1986D01*
X370Y1986D01*
X370Y1988D01*
X368Y1988D01*
X368Y1992D01*
X366Y1992D01*
X366Y1994D01*
X364Y1994D01*
X364Y1998D01*
X362Y1998D01*
X362Y2002D01*
X360Y2002D01*
X360Y2006D01*
X358Y2006D01*
X358Y2012D01*
X356Y2012D01*
X356Y2018D01*
X354Y2018D01*
X354Y2028D01*
X352Y2028D01*
X352Y2064D01*
X354Y2064D01*
X354Y2074D01*
X356Y2074D01*
X356Y2080D01*
X358Y2080D01*
X358Y2084D01*
X360Y2084D01*
X360Y2090D01*
X362Y2090D01*
X362Y2094D01*
X364Y2094D01*
X364Y2096D01*
X366Y2096D01*
X366Y2100D01*
X368Y2100D01*
X368Y2102D01*
X370Y2102D01*
X370Y2106D01*
X372Y2106D01*
X372Y2108D01*
X374Y2108D01*
X374Y2110D01*
X376Y2110D01*
X376Y2114D01*
X378Y2114D01*
X378Y2116D01*
X380Y2116D01*
X380Y2118D01*
X382Y2118D01*
X382Y2120D01*
X384Y2120D01*
X384Y2122D01*
X386Y2122D01*
X386Y2124D01*
X390Y2124D01*
X390Y2126D01*
X392Y2126D01*
X392Y2128D01*
X394Y2128D01*
X394Y2130D01*
X398Y2130D01*
X398Y2132D01*
X44Y2132D01*
G37*
D02*
G36*
X510Y2132D02*
X510Y2130D01*
X514Y2130D01*
X514Y2128D01*
X516Y2128D01*
X516Y2126D01*
X518Y2126D01*
X518Y2124D01*
X522Y2124D01*
X522Y2122D01*
X524Y2122D01*
X524Y2120D01*
X526Y2120D01*
X526Y2118D01*
X528Y2118D01*
X528Y2116D01*
X530Y2116D01*
X530Y2114D01*
X532Y2114D01*
X532Y2110D01*
X534Y2110D01*
X534Y2108D01*
X536Y2108D01*
X536Y2106D01*
X538Y2106D01*
X538Y2104D01*
X540Y2104D01*
X540Y2102D01*
X1282Y2102D01*
X1282Y2100D01*
X1290Y2100D01*
X1290Y2098D01*
X1294Y2098D01*
X1294Y2096D01*
X1298Y2096D01*
X1298Y2094D01*
X1302Y2094D01*
X1302Y2092D01*
X1306Y2092D01*
X1306Y2090D01*
X1308Y2090D01*
X1308Y2088D01*
X1328Y2088D01*
X1328Y2090D01*
X1330Y2090D01*
X1330Y2092D01*
X1334Y2092D01*
X1334Y2094D01*
X1336Y2094D01*
X1336Y2096D01*
X1340Y2096D01*
X1340Y2098D01*
X1346Y2098D01*
X1346Y2100D01*
X1354Y2100D01*
X1354Y2102D01*
X1358Y2102D01*
X1358Y2104D01*
X1360Y2104D01*
X1360Y2108D01*
X1362Y2108D01*
X1362Y2112D01*
X1364Y2112D01*
X1364Y2114D01*
X1366Y2114D01*
X1366Y2118D01*
X1368Y2118D01*
X1368Y2120D01*
X1370Y2120D01*
X1370Y2124D01*
X1372Y2124D01*
X1372Y2126D01*
X1374Y2126D01*
X1374Y2130D01*
X1376Y2130D01*
X1376Y2132D01*
X510Y2132D01*
G37*
D02*
G36*
X540Y2102D02*
X540Y2100D01*
X542Y2100D01*
X542Y2096D01*
X544Y2096D01*
X544Y2094D01*
X546Y2094D01*
X546Y2090D01*
X548Y2090D01*
X548Y2086D01*
X550Y2086D01*
X550Y2080D01*
X552Y2080D01*
X552Y2074D01*
X554Y2074D01*
X554Y2066D01*
X556Y2066D01*
X556Y2026D01*
X554Y2026D01*
X554Y2018D01*
X552Y2018D01*
X552Y2012D01*
X550Y2012D01*
X550Y2006D01*
X548Y2006D01*
X548Y2002D01*
X546Y2002D01*
X546Y1998D01*
X544Y1998D01*
X544Y1994D01*
X542Y1994D01*
X542Y1992D01*
X540Y1992D01*
X540Y1988D01*
X538Y1988D01*
X538Y1986D01*
X536Y1986D01*
X536Y1984D01*
X534Y1984D01*
X534Y1980D01*
X532Y1980D01*
X532Y1978D01*
X530Y1978D01*
X530Y1976D01*
X528Y1976D01*
X528Y1974D01*
X526Y1974D01*
X526Y1972D01*
X524Y1972D01*
X524Y1970D01*
X522Y1970D01*
X522Y1968D01*
X520Y1968D01*
X520Y1966D01*
X518Y1966D01*
X518Y1964D01*
X514Y1964D01*
X514Y1962D01*
X854Y1962D01*
X854Y1964D01*
X846Y1964D01*
X846Y1966D01*
X840Y1966D01*
X840Y1968D01*
X836Y1968D01*
X836Y1970D01*
X834Y1970D01*
X834Y1972D01*
X830Y1972D01*
X830Y1974D01*
X828Y1974D01*
X828Y1976D01*
X824Y1976D01*
X824Y1978D01*
X822Y1978D01*
X822Y1980D01*
X820Y1980D01*
X820Y1982D01*
X818Y1982D01*
X818Y1984D01*
X816Y1984D01*
X816Y1986D01*
X814Y1986D01*
X814Y1988D01*
X812Y1988D01*
X812Y1992D01*
X810Y1992D01*
X810Y1994D01*
X808Y1994D01*
X808Y1996D01*
X806Y1996D01*
X806Y2000D01*
X804Y2000D01*
X804Y2004D01*
X802Y2004D01*
X802Y2010D01*
X800Y2010D01*
X800Y2018D01*
X798Y2018D01*
X798Y2046D01*
X800Y2046D01*
X800Y2054D01*
X802Y2054D01*
X802Y2060D01*
X804Y2060D01*
X804Y2064D01*
X806Y2064D01*
X806Y2068D01*
X808Y2068D01*
X808Y2070D01*
X810Y2070D01*
X810Y2072D01*
X812Y2072D01*
X812Y2076D01*
X814Y2076D01*
X814Y2078D01*
X816Y2078D01*
X816Y2080D01*
X818Y2080D01*
X818Y2082D01*
X820Y2082D01*
X820Y2084D01*
X822Y2084D01*
X822Y2086D01*
X824Y2086D01*
X824Y2088D01*
X828Y2088D01*
X828Y2090D01*
X830Y2090D01*
X830Y2092D01*
X834Y2092D01*
X834Y2094D01*
X836Y2094D01*
X836Y2096D01*
X840Y2096D01*
X840Y2098D01*
X846Y2098D01*
X846Y2100D01*
X854Y2100D01*
X854Y2102D01*
X540Y2102D01*
G37*
D02*
G36*
X882Y2102D02*
X882Y2100D01*
X890Y2100D01*
X890Y2098D01*
X894Y2098D01*
X894Y2096D01*
X898Y2096D01*
X898Y2094D01*
X902Y2094D01*
X902Y2092D01*
X906Y2092D01*
X906Y2090D01*
X908Y2090D01*
X908Y2088D01*
X928Y2088D01*
X928Y2090D01*
X930Y2090D01*
X930Y2092D01*
X934Y2092D01*
X934Y2094D01*
X936Y2094D01*
X936Y2096D01*
X940Y2096D01*
X940Y2098D01*
X946Y2098D01*
X946Y2100D01*
X954Y2100D01*
X954Y2102D01*
X882Y2102D01*
G37*
D02*
G36*
X982Y2102D02*
X982Y2100D01*
X990Y2100D01*
X990Y2098D01*
X994Y2098D01*
X994Y2096D01*
X998Y2096D01*
X998Y2094D01*
X1002Y2094D01*
X1002Y2092D01*
X1006Y2092D01*
X1006Y2090D01*
X1008Y2090D01*
X1008Y2088D01*
X1028Y2088D01*
X1028Y2090D01*
X1030Y2090D01*
X1030Y2092D01*
X1034Y2092D01*
X1034Y2094D01*
X1036Y2094D01*
X1036Y2096D01*
X1040Y2096D01*
X1040Y2098D01*
X1046Y2098D01*
X1046Y2100D01*
X1054Y2100D01*
X1054Y2102D01*
X982Y2102D01*
G37*
D02*
G36*
X1082Y2102D02*
X1082Y2100D01*
X1090Y2100D01*
X1090Y2098D01*
X1094Y2098D01*
X1094Y2096D01*
X1098Y2096D01*
X1098Y2094D01*
X1102Y2094D01*
X1102Y2092D01*
X1106Y2092D01*
X1106Y2090D01*
X1108Y2090D01*
X1108Y2088D01*
X1128Y2088D01*
X1128Y2090D01*
X1130Y2090D01*
X1130Y2092D01*
X1134Y2092D01*
X1134Y2094D01*
X1136Y2094D01*
X1136Y2096D01*
X1140Y2096D01*
X1140Y2098D01*
X1146Y2098D01*
X1146Y2100D01*
X1154Y2100D01*
X1154Y2102D01*
X1082Y2102D01*
G37*
D02*
G36*
X1182Y2102D02*
X1182Y2100D01*
X1190Y2100D01*
X1190Y2098D01*
X1194Y2098D01*
X1194Y2096D01*
X1198Y2096D01*
X1198Y2094D01*
X1202Y2094D01*
X1202Y2092D01*
X1206Y2092D01*
X1206Y2090D01*
X1208Y2090D01*
X1208Y2088D01*
X1228Y2088D01*
X1228Y2090D01*
X1230Y2090D01*
X1230Y2092D01*
X1234Y2092D01*
X1234Y2094D01*
X1236Y2094D01*
X1236Y2096D01*
X1240Y2096D01*
X1240Y2098D01*
X1246Y2098D01*
X1246Y2100D01*
X1254Y2100D01*
X1254Y2102D01*
X1182Y2102D01*
G37*
D02*
G36*
X1678Y2102D02*
X1678Y2088D01*
X1698Y2088D01*
X1698Y2090D01*
X1700Y2090D01*
X1700Y2092D01*
X1704Y2092D01*
X1704Y2094D01*
X1706Y2094D01*
X1706Y2096D01*
X1710Y2096D01*
X1710Y2098D01*
X1716Y2098D01*
X1716Y2100D01*
X1724Y2100D01*
X1724Y2102D01*
X1678Y2102D01*
G37*
D02*
G36*
X1752Y2102D02*
X1752Y2100D01*
X1760Y2100D01*
X1760Y2098D01*
X1764Y2098D01*
X1764Y2096D01*
X1768Y2096D01*
X1768Y2094D01*
X1772Y2094D01*
X1772Y2092D01*
X1776Y2092D01*
X1776Y2090D01*
X1778Y2090D01*
X1778Y2088D01*
X1798Y2088D01*
X1798Y2090D01*
X1800Y2090D01*
X1800Y2092D01*
X1804Y2092D01*
X1804Y2094D01*
X1806Y2094D01*
X1806Y2096D01*
X1810Y2096D01*
X1810Y2098D01*
X1816Y2098D01*
X1816Y2100D01*
X1824Y2100D01*
X1824Y2102D01*
X1752Y2102D01*
G37*
D02*
G36*
X1852Y2102D02*
X1852Y2100D01*
X1860Y2100D01*
X1860Y2098D01*
X1864Y2098D01*
X1864Y2096D01*
X1868Y2096D01*
X1868Y2094D01*
X1872Y2094D01*
X1872Y2092D01*
X1876Y2092D01*
X1876Y2090D01*
X1878Y2090D01*
X1878Y2088D01*
X1898Y2088D01*
X1898Y2090D01*
X1900Y2090D01*
X1900Y2092D01*
X1904Y2092D01*
X1904Y2094D01*
X1906Y2094D01*
X1906Y2096D01*
X1910Y2096D01*
X1910Y2098D01*
X1916Y2098D01*
X1916Y2100D01*
X1924Y2100D01*
X1924Y2102D01*
X1852Y2102D01*
G37*
D02*
G36*
X1952Y2102D02*
X1952Y2100D01*
X1960Y2100D01*
X1960Y2098D01*
X1964Y2098D01*
X1964Y2096D01*
X1968Y2096D01*
X1968Y2094D01*
X1972Y2094D01*
X1972Y2092D01*
X1976Y2092D01*
X1976Y2090D01*
X1978Y2090D01*
X1978Y2088D01*
X1998Y2088D01*
X1998Y2090D01*
X2000Y2090D01*
X2000Y2092D01*
X2004Y2092D01*
X2004Y2094D01*
X2006Y2094D01*
X2006Y2096D01*
X2010Y2096D01*
X2010Y2098D01*
X2016Y2098D01*
X2016Y2100D01*
X2024Y2100D01*
X2024Y2102D01*
X1952Y2102D01*
G37*
D02*
G36*
X2052Y2102D02*
X2052Y2100D01*
X2060Y2100D01*
X2060Y2098D01*
X2064Y2098D01*
X2064Y2096D01*
X2068Y2096D01*
X2068Y2094D01*
X2072Y2094D01*
X2072Y2092D01*
X2076Y2092D01*
X2076Y2090D01*
X2078Y2090D01*
X2078Y2088D01*
X2098Y2088D01*
X2098Y2090D01*
X2100Y2090D01*
X2100Y2092D01*
X2104Y2092D01*
X2104Y2094D01*
X2106Y2094D01*
X2106Y2096D01*
X2110Y2096D01*
X2110Y2098D01*
X2116Y2098D01*
X2116Y2100D01*
X2124Y2100D01*
X2124Y2102D01*
X2052Y2102D01*
G37*
D02*
G36*
X2152Y2102D02*
X2152Y2100D01*
X2160Y2100D01*
X2160Y2098D01*
X2164Y2098D01*
X2164Y2096D01*
X2168Y2096D01*
X2168Y2094D01*
X2172Y2094D01*
X2172Y2092D01*
X2176Y2092D01*
X2176Y2090D01*
X2178Y2090D01*
X2178Y2088D01*
X2198Y2088D01*
X2198Y2090D01*
X2200Y2090D01*
X2200Y2092D01*
X2204Y2092D01*
X2204Y2094D01*
X2206Y2094D01*
X2206Y2096D01*
X2210Y2096D01*
X2210Y2098D01*
X2216Y2098D01*
X2216Y2100D01*
X2224Y2100D01*
X2224Y2102D01*
X2152Y2102D01*
G37*
D02*
G36*
X2252Y2102D02*
X2252Y2100D01*
X2260Y2100D01*
X2260Y2098D01*
X2264Y2098D01*
X2264Y2096D01*
X2268Y2096D01*
X2268Y2094D01*
X2272Y2094D01*
X2272Y2092D01*
X2276Y2092D01*
X2276Y2090D01*
X2278Y2090D01*
X2278Y2088D01*
X2298Y2088D01*
X2298Y2090D01*
X2300Y2090D01*
X2300Y2092D01*
X2304Y2092D01*
X2304Y2094D01*
X2306Y2094D01*
X2306Y2096D01*
X2310Y2096D01*
X2310Y2098D01*
X2316Y2098D01*
X2316Y2100D01*
X2324Y2100D01*
X2324Y2102D01*
X2252Y2102D01*
G37*
D02*
G36*
X2352Y2102D02*
X2352Y2100D01*
X2360Y2100D01*
X2360Y2098D01*
X2364Y2098D01*
X2364Y2096D01*
X2368Y2096D01*
X2368Y2094D01*
X2372Y2094D01*
X2372Y2092D01*
X2376Y2092D01*
X2376Y2090D01*
X2378Y2090D01*
X2378Y2088D01*
X2398Y2088D01*
X2398Y2090D01*
X2400Y2090D01*
X2400Y2092D01*
X2404Y2092D01*
X2404Y2094D01*
X2406Y2094D01*
X2406Y2096D01*
X2410Y2096D01*
X2410Y2098D01*
X2416Y2098D01*
X2416Y2100D01*
X2424Y2100D01*
X2424Y2102D01*
X2352Y2102D01*
G37*
D02*
G36*
X2452Y2102D02*
X2452Y2100D01*
X2460Y2100D01*
X2460Y2098D01*
X2464Y2098D01*
X2464Y2096D01*
X2468Y2096D01*
X2468Y2094D01*
X2472Y2094D01*
X2472Y2092D01*
X2476Y2092D01*
X2476Y2090D01*
X2478Y2090D01*
X2478Y2088D01*
X2480Y2088D01*
X2480Y2086D01*
X2484Y2086D01*
X2484Y2084D01*
X2486Y2084D01*
X2486Y2082D01*
X2488Y2082D01*
X2488Y2080D01*
X2490Y2080D01*
X2490Y2078D01*
X2492Y2078D01*
X2492Y2074D01*
X2494Y2074D01*
X2494Y2072D01*
X2496Y2072D01*
X2496Y2070D01*
X2498Y2070D01*
X2498Y2066D01*
X2500Y2066D01*
X2500Y2062D01*
X2502Y2062D01*
X2502Y2058D01*
X2504Y2058D01*
X2504Y2052D01*
X2506Y2052D01*
X2506Y2044D01*
X2508Y2044D01*
X2508Y2020D01*
X2506Y2020D01*
X2506Y2012D01*
X2504Y2012D01*
X2504Y2006D01*
X2502Y2006D01*
X2502Y2002D01*
X2500Y2002D01*
X2500Y1998D01*
X2498Y1998D01*
X2498Y1994D01*
X2496Y1994D01*
X2496Y1992D01*
X2494Y1992D01*
X2494Y1990D01*
X2492Y1990D01*
X2492Y1986D01*
X2490Y1986D01*
X2490Y1984D01*
X2488Y1984D01*
X2488Y1982D01*
X2486Y1982D01*
X2486Y1980D01*
X2484Y1980D01*
X2484Y1978D01*
X2480Y1978D01*
X2480Y1976D01*
X2478Y1976D01*
X2478Y1974D01*
X2476Y1974D01*
X2476Y1972D01*
X2472Y1972D01*
X2472Y1970D01*
X2468Y1970D01*
X2468Y1968D01*
X2464Y1968D01*
X2464Y1966D01*
X2460Y1966D01*
X2460Y1964D01*
X2452Y1964D01*
X2452Y1962D01*
X2624Y1962D01*
X2624Y1964D01*
X2616Y1964D01*
X2616Y1966D01*
X2610Y1966D01*
X2610Y1968D01*
X2606Y1968D01*
X2606Y1970D01*
X2604Y1970D01*
X2604Y1972D01*
X2600Y1972D01*
X2600Y1974D01*
X2598Y1974D01*
X2598Y1976D01*
X2594Y1976D01*
X2594Y1978D01*
X2592Y1978D01*
X2592Y1980D01*
X2590Y1980D01*
X2590Y1982D01*
X2588Y1982D01*
X2588Y1984D01*
X2586Y1984D01*
X2586Y1986D01*
X2584Y1986D01*
X2584Y1988D01*
X2582Y1988D01*
X2582Y1992D01*
X2580Y1992D01*
X2580Y1994D01*
X2578Y1994D01*
X2578Y1996D01*
X2576Y1996D01*
X2576Y2000D01*
X2574Y2000D01*
X2574Y2004D01*
X2572Y2004D01*
X2572Y2010D01*
X2570Y2010D01*
X2570Y2016D01*
X2568Y2016D01*
X2568Y2048D01*
X2570Y2048D01*
X2570Y2054D01*
X2572Y2054D01*
X2572Y2060D01*
X2574Y2060D01*
X2574Y2064D01*
X2576Y2064D01*
X2576Y2068D01*
X2578Y2068D01*
X2578Y2070D01*
X2580Y2070D01*
X2580Y2072D01*
X2582Y2072D01*
X2582Y2076D01*
X2584Y2076D01*
X2584Y2078D01*
X2586Y2078D01*
X2586Y2080D01*
X2588Y2080D01*
X2588Y2082D01*
X2590Y2082D01*
X2590Y2084D01*
X2592Y2084D01*
X2592Y2086D01*
X2594Y2086D01*
X2594Y2088D01*
X2598Y2088D01*
X2598Y2090D01*
X2600Y2090D01*
X2600Y2092D01*
X2604Y2092D01*
X2604Y2094D01*
X2606Y2094D01*
X2606Y2096D01*
X2610Y2096D01*
X2610Y2098D01*
X2616Y2098D01*
X2616Y2100D01*
X2624Y2100D01*
X2624Y2102D01*
X2452Y2102D01*
G37*
D02*
G36*
X2652Y2102D02*
X2652Y2100D01*
X2660Y2100D01*
X2660Y2098D01*
X2664Y2098D01*
X2664Y2096D01*
X2668Y2096D01*
X2668Y2094D01*
X2672Y2094D01*
X2672Y2092D01*
X2676Y2092D01*
X2676Y2090D01*
X2678Y2090D01*
X2678Y2088D01*
X2698Y2088D01*
X2698Y2090D01*
X2700Y2090D01*
X2700Y2092D01*
X2704Y2092D01*
X2704Y2094D01*
X2706Y2094D01*
X2706Y2096D01*
X2710Y2096D01*
X2710Y2098D01*
X2716Y2098D01*
X2716Y2100D01*
X2724Y2100D01*
X2724Y2102D01*
X2652Y2102D01*
G37*
D02*
G36*
X2752Y2102D02*
X2752Y2100D01*
X2760Y2100D01*
X2760Y2098D01*
X2764Y2098D01*
X2764Y2096D01*
X2768Y2096D01*
X2768Y2094D01*
X2772Y2094D01*
X2772Y2092D01*
X2776Y2092D01*
X2776Y2090D01*
X2778Y2090D01*
X2778Y2088D01*
X2798Y2088D01*
X2798Y2090D01*
X2800Y2090D01*
X2800Y2092D01*
X2804Y2092D01*
X2804Y2094D01*
X2806Y2094D01*
X2806Y2096D01*
X2810Y2096D01*
X2810Y2098D01*
X2816Y2098D01*
X2816Y2100D01*
X2824Y2100D01*
X2824Y2102D01*
X2752Y2102D01*
G37*
D02*
G36*
X2852Y2102D02*
X2852Y2100D01*
X2860Y2100D01*
X2860Y2098D01*
X2864Y2098D01*
X2864Y2096D01*
X2868Y2096D01*
X2868Y2094D01*
X2872Y2094D01*
X2872Y2092D01*
X2876Y2092D01*
X2876Y2090D01*
X2878Y2090D01*
X2878Y2088D01*
X2898Y2088D01*
X2898Y2090D01*
X2900Y2090D01*
X2900Y2092D01*
X2904Y2092D01*
X2904Y2094D01*
X2906Y2094D01*
X2906Y2096D01*
X2910Y2096D01*
X2910Y2098D01*
X2916Y2098D01*
X2916Y2100D01*
X2924Y2100D01*
X2924Y2102D01*
X2852Y2102D01*
G37*
D02*
G36*
X2952Y2102D02*
X2952Y2100D01*
X2960Y2100D01*
X2960Y2098D01*
X2964Y2098D01*
X2964Y2096D01*
X2968Y2096D01*
X2968Y2094D01*
X2972Y2094D01*
X2972Y2092D01*
X2976Y2092D01*
X2976Y2090D01*
X2978Y2090D01*
X2978Y2088D01*
X2998Y2088D01*
X2998Y2090D01*
X3000Y2090D01*
X3000Y2092D01*
X3004Y2092D01*
X3004Y2094D01*
X3006Y2094D01*
X3006Y2096D01*
X3010Y2096D01*
X3010Y2098D01*
X3016Y2098D01*
X3016Y2100D01*
X3024Y2100D01*
X3024Y2102D01*
X2952Y2102D01*
G37*
D02*
G36*
X3052Y2102D02*
X3052Y2100D01*
X3060Y2100D01*
X3060Y2098D01*
X3064Y2098D01*
X3064Y2096D01*
X3068Y2096D01*
X3068Y2094D01*
X3072Y2094D01*
X3072Y2092D01*
X3076Y2092D01*
X3076Y2090D01*
X3078Y2090D01*
X3078Y2088D01*
X3098Y2088D01*
X3098Y2090D01*
X3100Y2090D01*
X3100Y2092D01*
X3104Y2092D01*
X3104Y2094D01*
X3106Y2094D01*
X3106Y2096D01*
X3110Y2096D01*
X3110Y2098D01*
X3116Y2098D01*
X3116Y2100D01*
X3124Y2100D01*
X3124Y2102D01*
X3052Y2102D01*
G37*
D02*
G36*
X3578Y2102D02*
X3578Y2088D01*
X3598Y2088D01*
X3598Y2090D01*
X3600Y2090D01*
X3600Y2092D01*
X3604Y2092D01*
X3604Y2094D01*
X3606Y2094D01*
X3606Y2096D01*
X3610Y2096D01*
X3610Y2098D01*
X3616Y2098D01*
X3616Y2100D01*
X3624Y2100D01*
X3624Y2102D01*
X3578Y2102D01*
G37*
D02*
G36*
X3652Y2102D02*
X3652Y2100D01*
X3660Y2100D01*
X3660Y2098D01*
X3664Y2098D01*
X3664Y2096D01*
X3668Y2096D01*
X3668Y2094D01*
X3672Y2094D01*
X3672Y2092D01*
X3676Y2092D01*
X3676Y2090D01*
X3678Y2090D01*
X3678Y2088D01*
X3698Y2088D01*
X3698Y2090D01*
X3700Y2090D01*
X3700Y2092D01*
X3704Y2092D01*
X3704Y2094D01*
X3706Y2094D01*
X3706Y2096D01*
X3710Y2096D01*
X3710Y2098D01*
X3716Y2098D01*
X3716Y2100D01*
X3724Y2100D01*
X3724Y2102D01*
X3652Y2102D01*
G37*
D02*
G36*
X908Y1976D02*
X908Y1974D01*
X906Y1974D01*
X906Y1972D01*
X902Y1972D01*
X902Y1970D01*
X898Y1970D01*
X898Y1968D01*
X894Y1968D01*
X894Y1966D01*
X890Y1966D01*
X890Y1964D01*
X882Y1964D01*
X882Y1962D01*
X954Y1962D01*
X954Y1964D01*
X946Y1964D01*
X946Y1966D01*
X940Y1966D01*
X940Y1968D01*
X936Y1968D01*
X936Y1970D01*
X934Y1970D01*
X934Y1972D01*
X930Y1972D01*
X930Y1974D01*
X928Y1974D01*
X928Y1976D01*
X908Y1976D01*
G37*
D02*
G36*
X1008Y1976D02*
X1008Y1974D01*
X1006Y1974D01*
X1006Y1972D01*
X1002Y1972D01*
X1002Y1970D01*
X998Y1970D01*
X998Y1968D01*
X994Y1968D01*
X994Y1966D01*
X990Y1966D01*
X990Y1964D01*
X982Y1964D01*
X982Y1962D01*
X1054Y1962D01*
X1054Y1964D01*
X1046Y1964D01*
X1046Y1966D01*
X1040Y1966D01*
X1040Y1968D01*
X1036Y1968D01*
X1036Y1970D01*
X1034Y1970D01*
X1034Y1972D01*
X1030Y1972D01*
X1030Y1974D01*
X1028Y1974D01*
X1028Y1976D01*
X1008Y1976D01*
G37*
D02*
G36*
X1108Y1976D02*
X1108Y1974D01*
X1106Y1974D01*
X1106Y1972D01*
X1102Y1972D01*
X1102Y1970D01*
X1098Y1970D01*
X1098Y1968D01*
X1094Y1968D01*
X1094Y1966D01*
X1090Y1966D01*
X1090Y1964D01*
X1082Y1964D01*
X1082Y1962D01*
X1154Y1962D01*
X1154Y1964D01*
X1146Y1964D01*
X1146Y1966D01*
X1140Y1966D01*
X1140Y1968D01*
X1136Y1968D01*
X1136Y1970D01*
X1134Y1970D01*
X1134Y1972D01*
X1130Y1972D01*
X1130Y1974D01*
X1128Y1974D01*
X1128Y1976D01*
X1108Y1976D01*
G37*
D02*
G36*
X1208Y1976D02*
X1208Y1974D01*
X1206Y1974D01*
X1206Y1972D01*
X1202Y1972D01*
X1202Y1970D01*
X1198Y1970D01*
X1198Y1968D01*
X1194Y1968D01*
X1194Y1966D01*
X1190Y1966D01*
X1190Y1964D01*
X1182Y1964D01*
X1182Y1962D01*
X1254Y1962D01*
X1254Y1964D01*
X1246Y1964D01*
X1246Y1966D01*
X1240Y1966D01*
X1240Y1968D01*
X1236Y1968D01*
X1236Y1970D01*
X1234Y1970D01*
X1234Y1972D01*
X1230Y1972D01*
X1230Y1974D01*
X1228Y1974D01*
X1228Y1976D01*
X1208Y1976D01*
G37*
D02*
G36*
X1678Y1976D02*
X1678Y1962D01*
X1724Y1962D01*
X1724Y1964D01*
X1716Y1964D01*
X1716Y1966D01*
X1710Y1966D01*
X1710Y1968D01*
X1706Y1968D01*
X1706Y1970D01*
X1704Y1970D01*
X1704Y1972D01*
X1700Y1972D01*
X1700Y1974D01*
X1698Y1974D01*
X1698Y1976D01*
X1678Y1976D01*
G37*
D02*
G36*
X1778Y1976D02*
X1778Y1974D01*
X1776Y1974D01*
X1776Y1972D01*
X1772Y1972D01*
X1772Y1970D01*
X1768Y1970D01*
X1768Y1968D01*
X1764Y1968D01*
X1764Y1966D01*
X1760Y1966D01*
X1760Y1964D01*
X1752Y1964D01*
X1752Y1962D01*
X1824Y1962D01*
X1824Y1964D01*
X1816Y1964D01*
X1816Y1966D01*
X1810Y1966D01*
X1810Y1968D01*
X1806Y1968D01*
X1806Y1970D01*
X1804Y1970D01*
X1804Y1972D01*
X1800Y1972D01*
X1800Y1974D01*
X1798Y1974D01*
X1798Y1976D01*
X1778Y1976D01*
G37*
D02*
G36*
X1878Y1976D02*
X1878Y1974D01*
X1876Y1974D01*
X1876Y1972D01*
X1872Y1972D01*
X1872Y1970D01*
X1868Y1970D01*
X1868Y1968D01*
X1864Y1968D01*
X1864Y1966D01*
X1860Y1966D01*
X1860Y1964D01*
X1852Y1964D01*
X1852Y1962D01*
X1924Y1962D01*
X1924Y1964D01*
X1916Y1964D01*
X1916Y1966D01*
X1910Y1966D01*
X1910Y1968D01*
X1906Y1968D01*
X1906Y1970D01*
X1904Y1970D01*
X1904Y1972D01*
X1900Y1972D01*
X1900Y1974D01*
X1898Y1974D01*
X1898Y1976D01*
X1878Y1976D01*
G37*
D02*
G36*
X1978Y1976D02*
X1978Y1974D01*
X1976Y1974D01*
X1976Y1972D01*
X1972Y1972D01*
X1972Y1970D01*
X1968Y1970D01*
X1968Y1968D01*
X1964Y1968D01*
X1964Y1966D01*
X1960Y1966D01*
X1960Y1964D01*
X1952Y1964D01*
X1952Y1962D01*
X2024Y1962D01*
X2024Y1964D01*
X2016Y1964D01*
X2016Y1966D01*
X2010Y1966D01*
X2010Y1968D01*
X2006Y1968D01*
X2006Y1970D01*
X2004Y1970D01*
X2004Y1972D01*
X2000Y1972D01*
X2000Y1974D01*
X1998Y1974D01*
X1998Y1976D01*
X1978Y1976D01*
G37*
D02*
G36*
X2078Y1976D02*
X2078Y1974D01*
X2076Y1974D01*
X2076Y1972D01*
X2072Y1972D01*
X2072Y1970D01*
X2068Y1970D01*
X2068Y1968D01*
X2064Y1968D01*
X2064Y1966D01*
X2060Y1966D01*
X2060Y1964D01*
X2052Y1964D01*
X2052Y1962D01*
X2120Y1962D01*
X2120Y1964D01*
X2116Y1964D01*
X2116Y1966D01*
X2110Y1966D01*
X2110Y1968D01*
X2106Y1968D01*
X2106Y1970D01*
X2104Y1970D01*
X2104Y1972D01*
X2100Y1972D01*
X2100Y1974D01*
X2098Y1974D01*
X2098Y1976D01*
X2078Y1976D01*
G37*
D02*
G36*
X2378Y1976D02*
X2378Y1974D01*
X2376Y1974D01*
X2376Y1972D01*
X2372Y1972D01*
X2372Y1970D01*
X2368Y1970D01*
X2368Y1968D01*
X2364Y1968D01*
X2364Y1966D01*
X2360Y1966D01*
X2360Y1964D01*
X2352Y1964D01*
X2352Y1962D01*
X2424Y1962D01*
X2424Y1964D01*
X2416Y1964D01*
X2416Y1966D01*
X2410Y1966D01*
X2410Y1968D01*
X2406Y1968D01*
X2406Y1970D01*
X2404Y1970D01*
X2404Y1972D01*
X2400Y1972D01*
X2400Y1974D01*
X2398Y1974D01*
X2398Y1976D01*
X2378Y1976D01*
G37*
D02*
G36*
X2678Y1976D02*
X2678Y1974D01*
X2676Y1974D01*
X2676Y1972D01*
X2672Y1972D01*
X2672Y1970D01*
X2668Y1970D01*
X2668Y1968D01*
X2664Y1968D01*
X2664Y1966D01*
X2660Y1966D01*
X2660Y1964D01*
X2652Y1964D01*
X2652Y1962D01*
X2724Y1962D01*
X2724Y1964D01*
X2716Y1964D01*
X2716Y1966D01*
X2710Y1966D01*
X2710Y1968D01*
X2706Y1968D01*
X2706Y1970D01*
X2704Y1970D01*
X2704Y1972D01*
X2700Y1972D01*
X2700Y1974D01*
X2698Y1974D01*
X2698Y1976D01*
X2678Y1976D01*
G37*
D02*
G36*
X2778Y1976D02*
X2778Y1974D01*
X2776Y1974D01*
X2776Y1972D01*
X2772Y1972D01*
X2772Y1970D01*
X2768Y1970D01*
X2768Y1968D01*
X2764Y1968D01*
X2764Y1966D01*
X2760Y1966D01*
X2760Y1964D01*
X2752Y1964D01*
X2752Y1962D01*
X2824Y1962D01*
X2824Y1964D01*
X2816Y1964D01*
X2816Y1966D01*
X2810Y1966D01*
X2810Y1968D01*
X2806Y1968D01*
X2806Y1970D01*
X2804Y1970D01*
X2804Y1972D01*
X2800Y1972D01*
X2800Y1974D01*
X2798Y1974D01*
X2798Y1976D01*
X2778Y1976D01*
G37*
D02*
G36*
X2878Y1976D02*
X2878Y1974D01*
X2876Y1974D01*
X2876Y1972D01*
X2872Y1972D01*
X2872Y1970D01*
X2868Y1970D01*
X2868Y1968D01*
X2864Y1968D01*
X2864Y1966D01*
X2860Y1966D01*
X2860Y1964D01*
X2852Y1964D01*
X2852Y1962D01*
X2924Y1962D01*
X2924Y1964D01*
X2916Y1964D01*
X2916Y1966D01*
X2910Y1966D01*
X2910Y1968D01*
X2906Y1968D01*
X2906Y1970D01*
X2904Y1970D01*
X2904Y1972D01*
X2900Y1972D01*
X2900Y1974D01*
X2898Y1974D01*
X2898Y1976D01*
X2878Y1976D01*
G37*
D02*
G36*
X2978Y1976D02*
X2978Y1974D01*
X2976Y1974D01*
X2976Y1972D01*
X2972Y1972D01*
X2972Y1970D01*
X2968Y1970D01*
X2968Y1968D01*
X2964Y1968D01*
X2964Y1966D01*
X2960Y1966D01*
X2960Y1964D01*
X2952Y1964D01*
X2952Y1962D01*
X3024Y1962D01*
X3024Y1964D01*
X3016Y1964D01*
X3016Y1966D01*
X3010Y1966D01*
X3010Y1968D01*
X3006Y1968D01*
X3006Y1970D01*
X3004Y1970D01*
X3004Y1972D01*
X3000Y1972D01*
X3000Y1974D01*
X2998Y1974D01*
X2998Y1976D01*
X2978Y1976D01*
G37*
D02*
G36*
X3078Y1976D02*
X3078Y1974D01*
X3076Y1974D01*
X3076Y1972D01*
X3072Y1972D01*
X3072Y1970D01*
X3068Y1970D01*
X3068Y1968D01*
X3064Y1968D01*
X3064Y1966D01*
X3060Y1966D01*
X3060Y1964D01*
X3052Y1964D01*
X3052Y1962D01*
X3124Y1962D01*
X3124Y1964D01*
X3116Y1964D01*
X3116Y1966D01*
X3110Y1966D01*
X3110Y1968D01*
X3106Y1968D01*
X3106Y1970D01*
X3104Y1970D01*
X3104Y1972D01*
X3100Y1972D01*
X3100Y1974D01*
X3098Y1974D01*
X3098Y1976D01*
X3078Y1976D01*
G37*
D02*
G36*
X3178Y1976D02*
X3178Y1974D01*
X3176Y1974D01*
X3176Y1972D01*
X3172Y1972D01*
X3172Y1970D01*
X3168Y1970D01*
X3168Y1968D01*
X3164Y1968D01*
X3164Y1966D01*
X3160Y1966D01*
X3160Y1964D01*
X3152Y1964D01*
X3152Y1962D01*
X3224Y1962D01*
X3224Y1964D01*
X3216Y1964D01*
X3216Y1966D01*
X3210Y1966D01*
X3210Y1968D01*
X3206Y1968D01*
X3206Y1970D01*
X3204Y1970D01*
X3204Y1972D01*
X3200Y1972D01*
X3200Y1974D01*
X3198Y1974D01*
X3198Y1976D01*
X3178Y1976D01*
G37*
D02*
G36*
X3278Y1976D02*
X3278Y1974D01*
X3276Y1974D01*
X3276Y1972D01*
X3272Y1972D01*
X3272Y1970D01*
X3268Y1970D01*
X3268Y1968D01*
X3264Y1968D01*
X3264Y1966D01*
X3260Y1966D01*
X3260Y1964D01*
X3252Y1964D01*
X3252Y1962D01*
X3324Y1962D01*
X3324Y1964D01*
X3316Y1964D01*
X3316Y1966D01*
X3310Y1966D01*
X3310Y1968D01*
X3306Y1968D01*
X3306Y1970D01*
X3304Y1970D01*
X3304Y1972D01*
X3300Y1972D01*
X3300Y1974D01*
X3298Y1974D01*
X3298Y1976D01*
X3278Y1976D01*
G37*
D02*
G36*
X44Y1974D02*
X44Y1554D01*
X176Y1554D01*
X176Y1556D01*
X170Y1556D01*
X170Y1558D01*
X164Y1558D01*
X164Y1560D01*
X160Y1560D01*
X160Y1562D01*
X158Y1562D01*
X158Y1564D01*
X154Y1564D01*
X154Y1566D01*
X152Y1566D01*
X152Y1568D01*
X150Y1568D01*
X150Y1570D01*
X146Y1570D01*
X146Y1572D01*
X144Y1572D01*
X144Y1574D01*
X142Y1574D01*
X142Y1576D01*
X140Y1576D01*
X140Y1578D01*
X138Y1578D01*
X138Y1582D01*
X136Y1582D01*
X136Y1584D01*
X134Y1584D01*
X134Y1586D01*
X132Y1586D01*
X132Y1590D01*
X130Y1590D01*
X130Y1594D01*
X128Y1594D01*
X128Y1598D01*
X126Y1598D01*
X126Y1602D01*
X124Y1602D01*
X124Y1610D01*
X122Y1610D01*
X122Y1642D01*
X124Y1642D01*
X124Y1650D01*
X126Y1650D01*
X126Y1654D01*
X128Y1654D01*
X128Y1658D01*
X130Y1658D01*
X130Y1662D01*
X132Y1662D01*
X132Y1664D01*
X134Y1664D01*
X134Y1668D01*
X136Y1668D01*
X136Y1670D01*
X138Y1670D01*
X138Y1672D01*
X140Y1672D01*
X140Y1674D01*
X142Y1674D01*
X142Y1676D01*
X144Y1676D01*
X144Y1678D01*
X146Y1678D01*
X146Y1680D01*
X148Y1680D01*
X148Y1682D01*
X150Y1682D01*
X150Y1684D01*
X152Y1684D01*
X152Y1706D01*
X148Y1706D01*
X148Y1708D01*
X146Y1708D01*
X146Y1710D01*
X144Y1710D01*
X144Y1712D01*
X142Y1712D01*
X142Y1714D01*
X140Y1714D01*
X140Y1716D01*
X138Y1716D01*
X138Y1718D01*
X136Y1718D01*
X136Y1722D01*
X134Y1722D01*
X134Y1724D01*
X132Y1724D01*
X132Y1728D01*
X130Y1728D01*
X130Y1730D01*
X128Y1730D01*
X128Y1736D01*
X126Y1736D01*
X126Y1740D01*
X124Y1740D01*
X124Y1748D01*
X122Y1748D01*
X122Y1780D01*
X124Y1780D01*
X124Y1786D01*
X126Y1786D01*
X126Y1792D01*
X128Y1792D01*
X128Y1796D01*
X130Y1796D01*
X130Y1800D01*
X132Y1800D01*
X132Y1802D01*
X134Y1802D01*
X134Y1806D01*
X136Y1806D01*
X136Y1808D01*
X138Y1808D01*
X138Y1810D01*
X140Y1810D01*
X140Y1830D01*
X122Y1830D01*
X122Y1974D01*
X44Y1974D01*
G37*
D02*
G36*
X3368Y1970D02*
X3368Y1968D01*
X3364Y1968D01*
X3364Y1966D01*
X3360Y1966D01*
X3360Y1964D01*
X3352Y1964D01*
X3352Y1962D01*
X3390Y1962D01*
X3390Y1970D01*
X3368Y1970D01*
G37*
D02*
G36*
X512Y1962D02*
X512Y1960D01*
X1260Y1960D01*
X1260Y1962D01*
X512Y1962D01*
G37*
D02*
G36*
X512Y1962D02*
X512Y1960D01*
X1260Y1960D01*
X1260Y1962D01*
X512Y1962D01*
G37*
D02*
G36*
X512Y1962D02*
X512Y1960D01*
X1260Y1960D01*
X1260Y1962D01*
X512Y1962D01*
G37*
D02*
G36*
X512Y1962D02*
X512Y1960D01*
X1260Y1960D01*
X1260Y1962D01*
X512Y1962D01*
G37*
D02*
G36*
X512Y1962D02*
X512Y1960D01*
X1260Y1960D01*
X1260Y1962D01*
X512Y1962D01*
G37*
D02*
G36*
X1678Y1962D02*
X1678Y1960D01*
X2122Y1960D01*
X2122Y1962D01*
X1678Y1962D01*
G37*
D02*
G36*
X1678Y1962D02*
X1678Y1960D01*
X2122Y1960D01*
X2122Y1962D01*
X1678Y1962D01*
G37*
D02*
G36*
X1678Y1962D02*
X1678Y1960D01*
X2122Y1960D01*
X2122Y1962D01*
X1678Y1962D01*
G37*
D02*
G36*
X1678Y1962D02*
X1678Y1960D01*
X2122Y1960D01*
X2122Y1962D01*
X1678Y1962D01*
G37*
D02*
G36*
X1678Y1962D02*
X1678Y1960D01*
X2122Y1960D01*
X2122Y1962D01*
X1678Y1962D01*
G37*
D02*
G36*
X2334Y1962D02*
X2334Y1960D01*
X3390Y1960D01*
X3390Y1962D01*
X2334Y1962D01*
G37*
D02*
G36*
X2334Y1962D02*
X2334Y1960D01*
X3390Y1960D01*
X3390Y1962D01*
X2334Y1962D01*
G37*
D02*
G36*
X2334Y1962D02*
X2334Y1960D01*
X3390Y1960D01*
X3390Y1962D01*
X2334Y1962D01*
G37*
D02*
G36*
X2334Y1962D02*
X2334Y1960D01*
X3390Y1960D01*
X3390Y1962D01*
X2334Y1962D01*
G37*
D02*
G36*
X2334Y1962D02*
X2334Y1960D01*
X3390Y1960D01*
X3390Y1962D01*
X2334Y1962D01*
G37*
D02*
G36*
X2334Y1962D02*
X2334Y1960D01*
X3390Y1960D01*
X3390Y1962D01*
X2334Y1962D01*
G37*
D02*
G36*
X2334Y1962D02*
X2334Y1960D01*
X3390Y1960D01*
X3390Y1962D01*
X2334Y1962D01*
G37*
D02*
G36*
X2334Y1962D02*
X2334Y1960D01*
X3390Y1960D01*
X3390Y1962D01*
X2334Y1962D01*
G37*
D02*
G36*
X2334Y1962D02*
X2334Y1960D01*
X3390Y1960D01*
X3390Y1962D01*
X2334Y1962D01*
G37*
D02*
G36*
X2334Y1962D02*
X2334Y1960D01*
X3390Y1960D01*
X3390Y1962D01*
X2334Y1962D01*
G37*
D02*
G36*
X508Y1960D02*
X508Y1958D01*
X506Y1958D01*
X506Y1956D01*
X502Y1956D01*
X502Y1954D01*
X498Y1954D01*
X498Y1952D01*
X494Y1952D01*
X494Y1950D01*
X490Y1950D01*
X490Y1948D01*
X484Y1948D01*
X484Y1946D01*
X474Y1946D01*
X474Y1944D01*
X1270Y1944D01*
X1270Y1948D01*
X1268Y1948D01*
X1268Y1950D01*
X1266Y1950D01*
X1266Y1954D01*
X1264Y1954D01*
X1264Y1956D01*
X1262Y1956D01*
X1262Y1960D01*
X508Y1960D01*
G37*
D02*
G36*
X1678Y1960D02*
X1678Y1880D01*
X1848Y1880D01*
X1848Y1878D01*
X1856Y1878D01*
X1856Y1876D01*
X1860Y1876D01*
X1860Y1874D01*
X1862Y1874D01*
X1862Y1872D01*
X1864Y1872D01*
X1864Y1870D01*
X1868Y1870D01*
X1868Y1866D01*
X1870Y1866D01*
X1870Y1864D01*
X1872Y1864D01*
X1872Y1862D01*
X1874Y1862D01*
X1874Y1858D01*
X1876Y1858D01*
X1876Y1852D01*
X1878Y1852D01*
X1878Y1808D01*
X2108Y1808D01*
X2108Y1664D01*
X2106Y1664D01*
X2106Y1644D01*
X2108Y1644D01*
X2108Y1626D01*
X2106Y1626D01*
X2106Y1614D01*
X2104Y1614D01*
X2104Y1610D01*
X2102Y1610D01*
X2102Y1604D01*
X2100Y1604D01*
X2100Y1600D01*
X2098Y1600D01*
X2098Y1598D01*
X2096Y1598D01*
X2096Y1574D01*
X2098Y1574D01*
X2098Y1570D01*
X2100Y1570D01*
X2100Y1566D01*
X2102Y1566D01*
X2102Y1562D01*
X2104Y1562D01*
X2104Y1556D01*
X2106Y1556D01*
X2106Y1544D01*
X2108Y1544D01*
X2108Y1526D01*
X2106Y1526D01*
X2106Y1514D01*
X2104Y1514D01*
X2104Y1510D01*
X2102Y1510D01*
X2102Y1504D01*
X2100Y1504D01*
X2100Y1500D01*
X2098Y1500D01*
X2098Y1498D01*
X2096Y1498D01*
X2096Y1494D01*
X2094Y1494D01*
X2094Y1492D01*
X2092Y1492D01*
X2092Y1490D01*
X2090Y1490D01*
X2090Y1488D01*
X2088Y1488D01*
X2088Y1484D01*
X2086Y1484D01*
X2086Y1482D01*
X2082Y1482D01*
X2082Y1480D01*
X2080Y1480D01*
X2080Y1478D01*
X2078Y1478D01*
X2078Y1476D01*
X2076Y1476D01*
X2076Y1474D01*
X2072Y1474D01*
X2072Y1472D01*
X2070Y1472D01*
X2070Y1470D01*
X2066Y1470D01*
X2066Y1468D01*
X2062Y1468D01*
X2062Y1466D01*
X2056Y1466D01*
X2056Y1464D01*
X2046Y1464D01*
X2046Y1462D01*
X2194Y1462D01*
X2194Y1822D01*
X2192Y1822D01*
X2192Y1826D01*
X2190Y1826D01*
X2190Y1830D01*
X2188Y1830D01*
X2188Y1834D01*
X2186Y1834D01*
X2186Y1838D01*
X2184Y1838D01*
X2184Y1840D01*
X2182Y1840D01*
X2182Y1844D01*
X2180Y1844D01*
X2180Y1848D01*
X2178Y1848D01*
X2178Y1852D01*
X2176Y1852D01*
X2176Y1856D01*
X2174Y1856D01*
X2174Y1860D01*
X2172Y1860D01*
X2172Y1864D01*
X2170Y1864D01*
X2170Y1868D01*
X2168Y1868D01*
X2168Y1872D01*
X2166Y1872D01*
X2166Y1876D01*
X2164Y1876D01*
X2164Y1880D01*
X2162Y1880D01*
X2162Y1884D01*
X2160Y1884D01*
X2160Y1888D01*
X2158Y1888D01*
X2158Y1892D01*
X2156Y1892D01*
X2156Y1896D01*
X2154Y1896D01*
X2154Y1900D01*
X2152Y1900D01*
X2152Y1904D01*
X2150Y1904D01*
X2150Y1908D01*
X2148Y1908D01*
X2148Y1912D01*
X2146Y1912D01*
X2146Y1916D01*
X2144Y1916D01*
X2144Y1920D01*
X2142Y1920D01*
X2142Y1924D01*
X2140Y1924D01*
X2140Y1928D01*
X2138Y1928D01*
X2138Y1932D01*
X2136Y1932D01*
X2136Y1936D01*
X2134Y1936D01*
X2134Y1940D01*
X2132Y1940D01*
X2132Y1944D01*
X2130Y1944D01*
X2130Y1946D01*
X2128Y1946D01*
X2128Y1950D01*
X2126Y1950D01*
X2126Y1954D01*
X2124Y1954D01*
X2124Y1958D01*
X2122Y1958D01*
X2122Y1960D01*
X1678Y1960D01*
G37*
D02*
G36*
X2334Y1960D02*
X2334Y1940D01*
X2336Y1940D01*
X2336Y1936D01*
X2338Y1936D01*
X2338Y1930D01*
X2340Y1930D01*
X2340Y1926D01*
X2342Y1926D01*
X2342Y1922D01*
X2344Y1922D01*
X2344Y1918D01*
X2346Y1918D01*
X2346Y1914D01*
X2348Y1914D01*
X2348Y1910D01*
X2350Y1910D01*
X2350Y1906D01*
X2352Y1906D01*
X2352Y1904D01*
X3344Y1904D01*
X3344Y1902D01*
X3354Y1902D01*
X3354Y1900D01*
X3360Y1900D01*
X3360Y1898D01*
X3364Y1898D01*
X3364Y1896D01*
X3368Y1896D01*
X3368Y1894D01*
X3370Y1894D01*
X3370Y1892D01*
X3390Y1892D01*
X3390Y1960D01*
X2334Y1960D01*
G37*
D02*
G36*
X266Y1944D02*
X266Y1942D01*
X1272Y1942D01*
X1272Y1944D01*
X266Y1944D01*
G37*
D02*
G36*
X266Y1944D02*
X266Y1942D01*
X1272Y1942D01*
X1272Y1944D01*
X266Y1944D01*
G37*
D02*
G36*
X266Y1942D02*
X266Y1906D01*
X1210Y1906D01*
X1210Y1902D01*
X1288Y1902D01*
X1288Y1922D01*
X1286Y1922D01*
X1286Y1924D01*
X1284Y1924D01*
X1284Y1928D01*
X1282Y1928D01*
X1282Y1930D01*
X1280Y1930D01*
X1280Y1934D01*
X1278Y1934D01*
X1278Y1936D01*
X1276Y1936D01*
X1276Y1940D01*
X1274Y1940D01*
X1274Y1942D01*
X266Y1942D01*
G37*
D02*
G36*
X266Y1906D02*
X266Y1902D01*
X952Y1902D01*
X952Y1900D01*
X960Y1900D01*
X960Y1898D01*
X964Y1898D01*
X964Y1896D01*
X968Y1896D01*
X968Y1894D01*
X972Y1894D01*
X972Y1892D01*
X976Y1892D01*
X976Y1890D01*
X978Y1890D01*
X978Y1888D01*
X980Y1888D01*
X980Y1886D01*
X984Y1886D01*
X984Y1884D01*
X986Y1884D01*
X986Y1882D01*
X988Y1882D01*
X988Y1880D01*
X990Y1880D01*
X990Y1878D01*
X992Y1878D01*
X992Y1874D01*
X994Y1874D01*
X994Y1872D01*
X996Y1872D01*
X996Y1870D01*
X998Y1870D01*
X998Y1866D01*
X1000Y1866D01*
X1000Y1862D01*
X1002Y1862D01*
X1002Y1858D01*
X1004Y1858D01*
X1004Y1852D01*
X1006Y1852D01*
X1006Y1844D01*
X1008Y1844D01*
X1008Y1820D01*
X1006Y1820D01*
X1006Y1812D01*
X1004Y1812D01*
X1004Y1806D01*
X1002Y1806D01*
X1002Y1802D01*
X1000Y1802D01*
X1000Y1798D01*
X998Y1798D01*
X998Y1794D01*
X996Y1794D01*
X996Y1792D01*
X994Y1792D01*
X994Y1790D01*
X992Y1790D01*
X992Y1786D01*
X990Y1786D01*
X990Y1784D01*
X988Y1784D01*
X988Y1782D01*
X986Y1782D01*
X986Y1780D01*
X984Y1780D01*
X984Y1778D01*
X980Y1778D01*
X980Y1776D01*
X978Y1776D01*
X978Y1774D01*
X976Y1774D01*
X976Y1772D01*
X972Y1772D01*
X972Y1770D01*
X968Y1770D01*
X968Y1768D01*
X964Y1768D01*
X964Y1766D01*
X960Y1766D01*
X960Y1764D01*
X952Y1764D01*
X952Y1762D01*
X1064Y1762D01*
X1064Y1906D01*
X266Y1906D01*
G37*
D02*
G36*
X2352Y1904D02*
X2352Y1902D01*
X2354Y1902D01*
X2354Y1898D01*
X2356Y1898D01*
X2356Y1894D01*
X2358Y1894D01*
X2358Y1890D01*
X2360Y1890D01*
X2360Y1886D01*
X2362Y1886D01*
X2362Y1882D01*
X2364Y1882D01*
X2364Y1878D01*
X2366Y1878D01*
X2366Y1874D01*
X2368Y1874D01*
X2368Y1870D01*
X2370Y1870D01*
X2370Y1866D01*
X2372Y1866D01*
X2372Y1862D01*
X2374Y1862D01*
X2374Y1858D01*
X2376Y1858D01*
X2376Y1852D01*
X2378Y1852D01*
X2378Y1788D01*
X2546Y1788D01*
X2546Y1786D01*
X2552Y1786D01*
X2552Y1784D01*
X2558Y1784D01*
X2558Y1782D01*
X2560Y1782D01*
X2560Y1780D01*
X2580Y1780D01*
X2580Y1792D01*
X2578Y1792D01*
X2578Y1794D01*
X2576Y1794D01*
X2576Y1798D01*
X2574Y1798D01*
X2574Y1802D01*
X2572Y1802D01*
X2572Y1806D01*
X2570Y1806D01*
X2570Y1810D01*
X2568Y1810D01*
X2568Y1820D01*
X2566Y1820D01*
X2566Y1844D01*
X2568Y1844D01*
X2568Y1854D01*
X2570Y1854D01*
X2570Y1858D01*
X2572Y1858D01*
X2572Y1862D01*
X2574Y1862D01*
X2574Y1866D01*
X2576Y1866D01*
X2576Y1870D01*
X2578Y1870D01*
X2578Y1872D01*
X2580Y1872D01*
X2580Y1876D01*
X2582Y1876D01*
X2582Y1878D01*
X2584Y1878D01*
X2584Y1880D01*
X2586Y1880D01*
X2586Y1882D01*
X2588Y1882D01*
X2588Y1884D01*
X2590Y1884D01*
X2590Y1886D01*
X2592Y1886D01*
X2592Y1888D01*
X2594Y1888D01*
X2594Y1890D01*
X2598Y1890D01*
X2598Y1892D01*
X2600Y1892D01*
X2600Y1894D01*
X2604Y1894D01*
X2604Y1896D01*
X2608Y1896D01*
X2608Y1898D01*
X2612Y1898D01*
X2612Y1900D01*
X2618Y1900D01*
X2618Y1902D01*
X2630Y1902D01*
X2630Y1904D01*
X2352Y1904D01*
G37*
D02*
G36*
X2646Y1904D02*
X2646Y1902D01*
X2658Y1902D01*
X2658Y1900D01*
X2664Y1900D01*
X2664Y1898D01*
X2668Y1898D01*
X2668Y1896D01*
X2672Y1896D01*
X2672Y1894D01*
X2676Y1894D01*
X2676Y1892D01*
X2678Y1892D01*
X2678Y1890D01*
X2698Y1890D01*
X2698Y1892D01*
X2700Y1892D01*
X2700Y1894D01*
X2704Y1894D01*
X2704Y1896D01*
X2708Y1896D01*
X2708Y1898D01*
X2712Y1898D01*
X2712Y1900D01*
X2718Y1900D01*
X2718Y1902D01*
X2730Y1902D01*
X2730Y1904D01*
X2646Y1904D01*
G37*
D02*
G36*
X2746Y1904D02*
X2746Y1902D01*
X2758Y1902D01*
X2758Y1900D01*
X2764Y1900D01*
X2764Y1898D01*
X2768Y1898D01*
X2768Y1896D01*
X2772Y1896D01*
X2772Y1894D01*
X2776Y1894D01*
X2776Y1892D01*
X2778Y1892D01*
X2778Y1890D01*
X2780Y1890D01*
X2780Y1888D01*
X2784Y1888D01*
X2784Y1886D01*
X2786Y1886D01*
X2786Y1884D01*
X2788Y1884D01*
X2788Y1882D01*
X2790Y1882D01*
X2790Y1880D01*
X2792Y1880D01*
X2792Y1878D01*
X2794Y1878D01*
X2794Y1874D01*
X2796Y1874D01*
X2796Y1872D01*
X2798Y1872D01*
X2798Y1870D01*
X2800Y1870D01*
X2800Y1866D01*
X2802Y1866D01*
X2802Y1862D01*
X2804Y1862D01*
X2804Y1858D01*
X2806Y1858D01*
X2806Y1852D01*
X2808Y1852D01*
X2808Y1812D01*
X2806Y1812D01*
X2806Y1806D01*
X2804Y1806D01*
X2804Y1802D01*
X2802Y1802D01*
X2802Y1798D01*
X2800Y1798D01*
X2800Y1794D01*
X2798Y1794D01*
X2798Y1792D01*
X2796Y1792D01*
X2796Y1772D01*
X2798Y1772D01*
X2798Y1770D01*
X2800Y1770D01*
X2800Y1768D01*
X3126Y1768D01*
X3126Y1770D01*
X3118Y1770D01*
X3118Y1772D01*
X3114Y1772D01*
X3114Y1774D01*
X3110Y1774D01*
X3110Y1776D01*
X3106Y1776D01*
X3106Y1778D01*
X3104Y1778D01*
X3104Y1780D01*
X3100Y1780D01*
X3100Y1782D01*
X3098Y1782D01*
X3098Y1784D01*
X3096Y1784D01*
X3096Y1786D01*
X3094Y1786D01*
X3094Y1788D01*
X3092Y1788D01*
X3092Y1790D01*
X3090Y1790D01*
X3090Y1792D01*
X3088Y1792D01*
X3088Y1794D01*
X3086Y1794D01*
X3086Y1798D01*
X3084Y1798D01*
X3084Y1800D01*
X3082Y1800D01*
X3082Y1804D01*
X3080Y1804D01*
X3080Y1808D01*
X3078Y1808D01*
X3078Y1812D01*
X3076Y1812D01*
X3076Y1818D01*
X3074Y1818D01*
X3074Y1854D01*
X3076Y1854D01*
X3076Y1860D01*
X3078Y1860D01*
X3078Y1864D01*
X3080Y1864D01*
X3080Y1868D01*
X3082Y1868D01*
X3082Y1872D01*
X3084Y1872D01*
X3084Y1874D01*
X3086Y1874D01*
X3086Y1876D01*
X3088Y1876D01*
X3088Y1880D01*
X3090Y1880D01*
X3090Y1882D01*
X3092Y1882D01*
X3092Y1884D01*
X3094Y1884D01*
X3094Y1886D01*
X3096Y1886D01*
X3096Y1888D01*
X3098Y1888D01*
X3098Y1890D01*
X3102Y1890D01*
X3102Y1892D01*
X3104Y1892D01*
X3104Y1894D01*
X3108Y1894D01*
X3108Y1896D01*
X3112Y1896D01*
X3112Y1898D01*
X3116Y1898D01*
X3116Y1900D01*
X3120Y1900D01*
X3120Y1902D01*
X3130Y1902D01*
X3130Y1904D01*
X2746Y1904D01*
G37*
D02*
G36*
X3152Y1904D02*
X3152Y1902D01*
X3162Y1902D01*
X3162Y1900D01*
X3166Y1900D01*
X3166Y1898D01*
X3170Y1898D01*
X3170Y1896D01*
X3174Y1896D01*
X3174Y1894D01*
X3178Y1894D01*
X3178Y1892D01*
X3180Y1892D01*
X3180Y1890D01*
X3182Y1890D01*
X3182Y1888D01*
X3186Y1888D01*
X3186Y1886D01*
X3188Y1886D01*
X3188Y1884D01*
X3190Y1884D01*
X3190Y1882D01*
X3192Y1882D01*
X3192Y1880D01*
X3194Y1880D01*
X3194Y1876D01*
X3196Y1876D01*
X3196Y1874D01*
X3198Y1874D01*
X3198Y1872D01*
X3200Y1872D01*
X3200Y1868D01*
X3202Y1868D01*
X3202Y1864D01*
X3204Y1864D01*
X3204Y1860D01*
X3206Y1860D01*
X3206Y1854D01*
X3208Y1854D01*
X3208Y1818D01*
X3206Y1818D01*
X3206Y1812D01*
X3204Y1812D01*
X3204Y1808D01*
X3202Y1808D01*
X3202Y1804D01*
X3200Y1804D01*
X3200Y1800D01*
X3198Y1800D01*
X3198Y1798D01*
X3196Y1798D01*
X3196Y1794D01*
X3194Y1794D01*
X3194Y1792D01*
X3192Y1792D01*
X3192Y1790D01*
X3190Y1790D01*
X3190Y1788D01*
X3188Y1788D01*
X3188Y1786D01*
X3186Y1786D01*
X3186Y1784D01*
X3184Y1784D01*
X3184Y1782D01*
X3182Y1782D01*
X3182Y1780D01*
X3178Y1780D01*
X3178Y1778D01*
X3176Y1778D01*
X3176Y1776D01*
X3172Y1776D01*
X3172Y1774D01*
X3168Y1774D01*
X3168Y1772D01*
X3164Y1772D01*
X3164Y1770D01*
X3156Y1770D01*
X3156Y1768D01*
X3290Y1768D01*
X3290Y1786D01*
X3286Y1786D01*
X3286Y1788D01*
X3284Y1788D01*
X3284Y1792D01*
X3282Y1792D01*
X3282Y1794D01*
X3280Y1794D01*
X3280Y1796D01*
X3278Y1796D01*
X3278Y1798D01*
X3276Y1798D01*
X3276Y1802D01*
X3274Y1802D01*
X3274Y1806D01*
X3272Y1806D01*
X3272Y1810D01*
X3270Y1810D01*
X3270Y1814D01*
X3268Y1814D01*
X3268Y1824D01*
X3266Y1824D01*
X3266Y1848D01*
X3268Y1848D01*
X3268Y1856D01*
X3270Y1856D01*
X3270Y1862D01*
X3272Y1862D01*
X3272Y1866D01*
X3274Y1866D01*
X3274Y1870D01*
X3276Y1870D01*
X3276Y1872D01*
X3278Y1872D01*
X3278Y1876D01*
X3280Y1876D01*
X3280Y1878D01*
X3282Y1878D01*
X3282Y1880D01*
X3284Y1880D01*
X3284Y1882D01*
X3286Y1882D01*
X3286Y1884D01*
X3288Y1884D01*
X3288Y1886D01*
X3290Y1886D01*
X3290Y1888D01*
X3292Y1888D01*
X3292Y1890D01*
X3294Y1890D01*
X3294Y1892D01*
X3298Y1892D01*
X3298Y1894D01*
X3300Y1894D01*
X3300Y1896D01*
X3304Y1896D01*
X3304Y1898D01*
X3308Y1898D01*
X3308Y1900D01*
X3314Y1900D01*
X3314Y1902D01*
X3324Y1902D01*
X3324Y1904D01*
X3152Y1904D01*
G37*
D02*
G36*
X266Y1902D02*
X266Y1830D01*
X248Y1830D01*
X248Y1810D01*
X250Y1810D01*
X250Y1808D01*
X252Y1808D01*
X252Y1806D01*
X254Y1806D01*
X254Y1802D01*
X256Y1802D01*
X256Y1800D01*
X258Y1800D01*
X258Y1796D01*
X260Y1796D01*
X260Y1792D01*
X262Y1792D01*
X262Y1788D01*
X264Y1788D01*
X264Y1780D01*
X266Y1780D01*
X266Y1762D01*
X424Y1762D01*
X424Y1764D01*
X416Y1764D01*
X416Y1766D01*
X410Y1766D01*
X410Y1768D01*
X406Y1768D01*
X406Y1770D01*
X404Y1770D01*
X404Y1772D01*
X400Y1772D01*
X400Y1774D01*
X398Y1774D01*
X398Y1776D01*
X394Y1776D01*
X394Y1778D01*
X392Y1778D01*
X392Y1780D01*
X390Y1780D01*
X390Y1782D01*
X388Y1782D01*
X388Y1784D01*
X386Y1784D01*
X386Y1786D01*
X384Y1786D01*
X384Y1788D01*
X382Y1788D01*
X382Y1792D01*
X380Y1792D01*
X380Y1794D01*
X378Y1794D01*
X378Y1796D01*
X376Y1796D01*
X376Y1800D01*
X374Y1800D01*
X374Y1804D01*
X372Y1804D01*
X372Y1810D01*
X370Y1810D01*
X370Y1818D01*
X368Y1818D01*
X368Y1846D01*
X370Y1846D01*
X370Y1854D01*
X372Y1854D01*
X372Y1860D01*
X374Y1860D01*
X374Y1864D01*
X376Y1864D01*
X376Y1868D01*
X378Y1868D01*
X378Y1870D01*
X380Y1870D01*
X380Y1872D01*
X382Y1872D01*
X382Y1876D01*
X384Y1876D01*
X384Y1878D01*
X386Y1878D01*
X386Y1880D01*
X388Y1880D01*
X388Y1882D01*
X390Y1882D01*
X390Y1884D01*
X392Y1884D01*
X392Y1886D01*
X394Y1886D01*
X394Y1888D01*
X398Y1888D01*
X398Y1890D01*
X400Y1890D01*
X400Y1892D01*
X404Y1892D01*
X404Y1894D01*
X406Y1894D01*
X406Y1896D01*
X410Y1896D01*
X410Y1898D01*
X416Y1898D01*
X416Y1900D01*
X424Y1900D01*
X424Y1902D01*
X266Y1902D01*
G37*
D02*
G36*
X452Y1902D02*
X452Y1900D01*
X460Y1900D01*
X460Y1898D01*
X464Y1898D01*
X464Y1896D01*
X468Y1896D01*
X468Y1894D01*
X472Y1894D01*
X472Y1892D01*
X476Y1892D01*
X476Y1890D01*
X478Y1890D01*
X478Y1888D01*
X498Y1888D01*
X498Y1890D01*
X500Y1890D01*
X500Y1892D01*
X504Y1892D01*
X504Y1894D01*
X506Y1894D01*
X506Y1896D01*
X510Y1896D01*
X510Y1898D01*
X516Y1898D01*
X516Y1900D01*
X524Y1900D01*
X524Y1902D01*
X452Y1902D01*
G37*
D02*
G36*
X552Y1902D02*
X552Y1900D01*
X560Y1900D01*
X560Y1898D01*
X564Y1898D01*
X564Y1896D01*
X568Y1896D01*
X568Y1894D01*
X572Y1894D01*
X572Y1892D01*
X576Y1892D01*
X576Y1890D01*
X578Y1890D01*
X578Y1888D01*
X580Y1888D01*
X580Y1886D01*
X584Y1886D01*
X584Y1884D01*
X586Y1884D01*
X586Y1882D01*
X588Y1882D01*
X588Y1880D01*
X748Y1880D01*
X748Y1878D01*
X756Y1878D01*
X756Y1876D01*
X760Y1876D01*
X760Y1874D01*
X762Y1874D01*
X762Y1872D01*
X764Y1872D01*
X764Y1870D01*
X768Y1870D01*
X768Y1866D01*
X770Y1866D01*
X770Y1864D01*
X772Y1864D01*
X772Y1862D01*
X774Y1862D01*
X774Y1858D01*
X776Y1858D01*
X776Y1852D01*
X778Y1852D01*
X778Y1762D01*
X924Y1762D01*
X924Y1764D01*
X916Y1764D01*
X916Y1766D01*
X910Y1766D01*
X910Y1768D01*
X906Y1768D01*
X906Y1770D01*
X904Y1770D01*
X904Y1772D01*
X900Y1772D01*
X900Y1774D01*
X898Y1774D01*
X898Y1776D01*
X894Y1776D01*
X894Y1778D01*
X892Y1778D01*
X892Y1780D01*
X890Y1780D01*
X890Y1782D01*
X888Y1782D01*
X888Y1784D01*
X886Y1784D01*
X886Y1786D01*
X884Y1786D01*
X884Y1788D01*
X882Y1788D01*
X882Y1792D01*
X880Y1792D01*
X880Y1794D01*
X878Y1794D01*
X878Y1796D01*
X876Y1796D01*
X876Y1800D01*
X874Y1800D01*
X874Y1804D01*
X872Y1804D01*
X872Y1810D01*
X870Y1810D01*
X870Y1818D01*
X868Y1818D01*
X868Y1846D01*
X870Y1846D01*
X870Y1854D01*
X872Y1854D01*
X872Y1860D01*
X874Y1860D01*
X874Y1864D01*
X876Y1864D01*
X876Y1868D01*
X878Y1868D01*
X878Y1870D01*
X880Y1870D01*
X880Y1872D01*
X882Y1872D01*
X882Y1876D01*
X884Y1876D01*
X884Y1878D01*
X886Y1878D01*
X886Y1880D01*
X888Y1880D01*
X888Y1882D01*
X890Y1882D01*
X890Y1884D01*
X892Y1884D01*
X892Y1886D01*
X894Y1886D01*
X894Y1888D01*
X898Y1888D01*
X898Y1890D01*
X900Y1890D01*
X900Y1892D01*
X904Y1892D01*
X904Y1894D01*
X906Y1894D01*
X906Y1896D01*
X910Y1896D01*
X910Y1898D01*
X916Y1898D01*
X916Y1900D01*
X924Y1900D01*
X924Y1902D01*
X552Y1902D01*
G37*
D02*
G36*
X590Y1880D02*
X590Y1878D01*
X688Y1878D01*
X688Y1880D01*
X590Y1880D01*
G37*
D02*
G36*
X1878Y1808D02*
X1878Y1790D01*
X1880Y1790D01*
X1880Y1788D01*
X1882Y1788D01*
X1882Y1786D01*
X1884Y1786D01*
X1884Y1784D01*
X1886Y1784D01*
X1886Y1782D01*
X1888Y1782D01*
X1888Y1778D01*
X1890Y1778D01*
X1890Y1776D01*
X1892Y1776D01*
X1892Y1774D01*
X1894Y1774D01*
X1894Y1770D01*
X1896Y1770D01*
X1896Y1766D01*
X1898Y1766D01*
X1898Y1762D01*
X1900Y1762D01*
X1900Y1758D01*
X1902Y1758D01*
X1902Y1750D01*
X1904Y1750D01*
X1904Y1722D01*
X1902Y1722D01*
X1902Y1714D01*
X1900Y1714D01*
X1900Y1708D01*
X1898Y1708D01*
X1898Y1704D01*
X1896Y1704D01*
X1896Y1702D01*
X1894Y1702D01*
X1894Y1698D01*
X1892Y1698D01*
X1892Y1696D01*
X1890Y1696D01*
X1890Y1692D01*
X1888Y1692D01*
X1888Y1690D01*
X1886Y1690D01*
X1886Y1688D01*
X1884Y1688D01*
X1884Y1686D01*
X1882Y1686D01*
X1882Y1684D01*
X1880Y1684D01*
X1880Y1682D01*
X1878Y1682D01*
X1878Y1680D01*
X1874Y1680D01*
X1874Y1678D01*
X1872Y1678D01*
X1872Y1676D01*
X1870Y1676D01*
X1870Y1674D01*
X1866Y1674D01*
X1866Y1672D01*
X1862Y1672D01*
X1862Y1670D01*
X1856Y1670D01*
X1856Y1668D01*
X1850Y1668D01*
X1850Y1666D01*
X1802Y1666D01*
X1802Y1650D01*
X1804Y1650D01*
X1804Y1622D01*
X1802Y1622D01*
X1802Y1614D01*
X1800Y1614D01*
X1800Y1608D01*
X1798Y1608D01*
X1798Y1604D01*
X1796Y1604D01*
X1796Y1602D01*
X1794Y1602D01*
X1794Y1580D01*
X1970Y1580D01*
X1970Y1602D01*
X1968Y1602D01*
X1968Y1604D01*
X1966Y1604D01*
X1966Y1610D01*
X1964Y1610D01*
X1964Y1616D01*
X1962Y1616D01*
X1962Y1808D01*
X1878Y1808D01*
G37*
D02*
G36*
X1324Y1792D02*
X1324Y1790D01*
X1308Y1790D01*
X1308Y1764D01*
X1306Y1764D01*
X1306Y1762D01*
X1210Y1762D01*
X1210Y1760D01*
X1388Y1760D01*
X1388Y1762D01*
X1390Y1762D01*
X1390Y1766D01*
X1392Y1766D01*
X1392Y1768D01*
X1394Y1768D01*
X1394Y1770D01*
X1396Y1770D01*
X1396Y1772D01*
X1398Y1772D01*
X1398Y1792D01*
X1324Y1792D01*
G37*
D02*
G36*
X598Y1790D02*
X598Y1788D01*
X592Y1788D01*
X592Y1786D01*
X590Y1786D01*
X590Y1784D01*
X588Y1784D01*
X588Y1782D01*
X586Y1782D01*
X586Y1780D01*
X584Y1780D01*
X584Y1778D01*
X580Y1778D01*
X580Y1776D01*
X578Y1776D01*
X578Y1774D01*
X576Y1774D01*
X576Y1772D01*
X572Y1772D01*
X572Y1770D01*
X568Y1770D01*
X568Y1768D01*
X564Y1768D01*
X564Y1766D01*
X560Y1766D01*
X560Y1764D01*
X552Y1764D01*
X552Y1762D01*
X690Y1762D01*
X690Y1790D01*
X598Y1790D01*
G37*
D02*
G36*
X2378Y1788D02*
X2378Y1484D01*
X2520Y1484D01*
X2520Y1486D01*
X2514Y1486D01*
X2514Y1488D01*
X2510Y1488D01*
X2510Y1490D01*
X2506Y1490D01*
X2506Y1492D01*
X2504Y1492D01*
X2504Y1494D01*
X2502Y1494D01*
X2502Y1496D01*
X2498Y1496D01*
X2498Y1498D01*
X2496Y1498D01*
X2496Y1500D01*
X2494Y1500D01*
X2494Y1504D01*
X2492Y1504D01*
X2492Y1506D01*
X2490Y1506D01*
X2490Y1508D01*
X2488Y1508D01*
X2488Y1512D01*
X2486Y1512D01*
X2486Y1516D01*
X2484Y1516D01*
X2484Y1522D01*
X2482Y1522D01*
X2482Y1548D01*
X2484Y1548D01*
X2484Y1556D01*
X2486Y1556D01*
X2486Y1560D01*
X2488Y1560D01*
X2488Y1562D01*
X2490Y1562D01*
X2490Y1708D01*
X2488Y1708D01*
X2488Y1712D01*
X2486Y1712D01*
X2486Y1716D01*
X2484Y1716D01*
X2484Y1722D01*
X2482Y1722D01*
X2482Y1748D01*
X2484Y1748D01*
X2484Y1756D01*
X2486Y1756D01*
X2486Y1760D01*
X2488Y1760D01*
X2488Y1762D01*
X2490Y1762D01*
X2490Y1766D01*
X2492Y1766D01*
X2492Y1768D01*
X2494Y1768D01*
X2494Y1770D01*
X2496Y1770D01*
X2496Y1772D01*
X2498Y1772D01*
X2498Y1774D01*
X2500Y1774D01*
X2500Y1776D01*
X2502Y1776D01*
X2502Y1778D01*
X2504Y1778D01*
X2504Y1780D01*
X2508Y1780D01*
X2508Y1782D01*
X2510Y1782D01*
X2510Y1784D01*
X2516Y1784D01*
X2516Y1786D01*
X2522Y1786D01*
X2522Y1788D01*
X2378Y1788D01*
G37*
D02*
G36*
X478Y1776D02*
X478Y1774D01*
X476Y1774D01*
X476Y1772D01*
X472Y1772D01*
X472Y1770D01*
X468Y1770D01*
X468Y1768D01*
X464Y1768D01*
X464Y1766D01*
X460Y1766D01*
X460Y1764D01*
X452Y1764D01*
X452Y1762D01*
X524Y1762D01*
X524Y1764D01*
X516Y1764D01*
X516Y1766D01*
X510Y1766D01*
X510Y1768D01*
X506Y1768D01*
X506Y1770D01*
X504Y1770D01*
X504Y1772D01*
X500Y1772D01*
X500Y1774D01*
X498Y1774D01*
X498Y1776D01*
X478Y1776D01*
G37*
D02*
G36*
X2800Y1768D02*
X2800Y1766D01*
X3290Y1766D01*
X3290Y1768D01*
X2800Y1768D01*
G37*
D02*
G36*
X2800Y1768D02*
X2800Y1766D01*
X3290Y1766D01*
X3290Y1768D01*
X2800Y1768D01*
G37*
D02*
G36*
X2802Y1766D02*
X2802Y1762D01*
X2804Y1762D01*
X2804Y1758D01*
X2806Y1758D01*
X2806Y1752D01*
X2808Y1752D01*
X2808Y1706D01*
X3246Y1706D01*
X3246Y1704D01*
X3266Y1704D01*
X3266Y1706D01*
X3290Y1706D01*
X3290Y1766D01*
X2802Y1766D01*
G37*
D02*
G36*
X266Y1762D02*
X266Y1760D01*
X690Y1760D01*
X690Y1762D01*
X266Y1762D01*
G37*
D02*
G36*
X266Y1762D02*
X266Y1760D01*
X690Y1760D01*
X690Y1762D01*
X266Y1762D01*
G37*
D02*
G36*
X266Y1762D02*
X266Y1760D01*
X690Y1760D01*
X690Y1762D01*
X266Y1762D01*
G37*
D02*
G36*
X778Y1762D02*
X778Y1760D01*
X1064Y1760D01*
X1064Y1762D01*
X778Y1762D01*
G37*
D02*
G36*
X778Y1762D02*
X778Y1760D01*
X1064Y1760D01*
X1064Y1762D01*
X778Y1762D01*
G37*
D02*
G36*
X266Y1760D02*
X266Y1746D01*
X264Y1746D01*
X264Y1740D01*
X262Y1740D01*
X262Y1734D01*
X260Y1734D01*
X260Y1730D01*
X258Y1730D01*
X258Y1728D01*
X256Y1728D01*
X256Y1724D01*
X254Y1724D01*
X254Y1722D01*
X252Y1722D01*
X252Y1718D01*
X250Y1718D01*
X250Y1716D01*
X248Y1716D01*
X248Y1714D01*
X246Y1714D01*
X246Y1712D01*
X244Y1712D01*
X244Y1710D01*
X242Y1710D01*
X242Y1708D01*
X240Y1708D01*
X240Y1706D01*
X236Y1706D01*
X236Y1684D01*
X238Y1684D01*
X238Y1682D01*
X240Y1682D01*
X240Y1680D01*
X242Y1680D01*
X242Y1678D01*
X246Y1678D01*
X246Y1676D01*
X248Y1676D01*
X248Y1672D01*
X250Y1672D01*
X250Y1670D01*
X252Y1670D01*
X252Y1668D01*
X254Y1668D01*
X254Y1666D01*
X256Y1666D01*
X256Y1662D01*
X258Y1662D01*
X258Y1658D01*
X260Y1658D01*
X260Y1654D01*
X262Y1654D01*
X262Y1650D01*
X264Y1650D01*
X264Y1642D01*
X266Y1642D01*
X266Y1610D01*
X264Y1610D01*
X264Y1602D01*
X552Y1602D01*
X552Y1600D01*
X560Y1600D01*
X560Y1598D01*
X564Y1598D01*
X564Y1596D01*
X568Y1596D01*
X568Y1594D01*
X572Y1594D01*
X572Y1592D01*
X576Y1592D01*
X576Y1590D01*
X578Y1590D01*
X578Y1588D01*
X580Y1588D01*
X580Y1586D01*
X584Y1586D01*
X584Y1584D01*
X586Y1584D01*
X586Y1582D01*
X588Y1582D01*
X588Y1580D01*
X590Y1580D01*
X590Y1578D01*
X592Y1578D01*
X592Y1574D01*
X594Y1574D01*
X594Y1572D01*
X596Y1572D01*
X596Y1570D01*
X598Y1570D01*
X598Y1566D01*
X600Y1566D01*
X600Y1562D01*
X602Y1562D01*
X602Y1558D01*
X604Y1558D01*
X604Y1552D01*
X606Y1552D01*
X606Y1544D01*
X608Y1544D01*
X608Y1520D01*
X606Y1520D01*
X606Y1512D01*
X604Y1512D01*
X604Y1506D01*
X602Y1506D01*
X602Y1502D01*
X600Y1502D01*
X600Y1498D01*
X598Y1498D01*
X598Y1478D01*
X688Y1478D01*
X688Y1480D01*
X690Y1480D01*
X690Y1760D01*
X266Y1760D01*
G37*
D02*
G36*
X778Y1760D02*
X778Y1758D01*
X1386Y1758D01*
X1386Y1760D01*
X778Y1760D01*
G37*
D02*
G36*
X778Y1760D02*
X778Y1758D01*
X1386Y1758D01*
X1386Y1760D01*
X778Y1760D01*
G37*
D02*
G36*
X778Y1758D02*
X778Y1688D01*
X846Y1688D01*
X846Y1686D01*
X852Y1686D01*
X852Y1684D01*
X858Y1684D01*
X858Y1682D01*
X860Y1682D01*
X860Y1680D01*
X1148Y1680D01*
X1148Y1678D01*
X1156Y1678D01*
X1156Y1676D01*
X1160Y1676D01*
X1160Y1674D01*
X1162Y1674D01*
X1162Y1672D01*
X1164Y1672D01*
X1164Y1670D01*
X1168Y1670D01*
X1168Y1666D01*
X1170Y1666D01*
X1170Y1664D01*
X1172Y1664D01*
X1172Y1662D01*
X1174Y1662D01*
X1174Y1658D01*
X1176Y1658D01*
X1176Y1652D01*
X1178Y1652D01*
X1178Y1618D01*
X1180Y1618D01*
X1180Y1594D01*
X1182Y1594D01*
X1182Y1592D01*
X1184Y1592D01*
X1184Y1590D01*
X1186Y1590D01*
X1186Y1588D01*
X1188Y1588D01*
X1188Y1586D01*
X1190Y1586D01*
X1190Y1584D01*
X1192Y1584D01*
X1192Y1582D01*
X1194Y1582D01*
X1194Y1580D01*
X1196Y1580D01*
X1196Y1578D01*
X1198Y1578D01*
X1198Y1574D01*
X1200Y1574D01*
X1200Y1572D01*
X1202Y1572D01*
X1202Y1568D01*
X1204Y1568D01*
X1204Y1564D01*
X1206Y1564D01*
X1206Y1560D01*
X1208Y1560D01*
X1208Y1554D01*
X1210Y1554D01*
X1210Y1502D01*
X1264Y1502D01*
X1264Y1604D01*
X1266Y1604D01*
X1266Y1606D01*
X1390Y1606D01*
X1390Y1708D01*
X1388Y1708D01*
X1388Y1712D01*
X1386Y1712D01*
X1386Y1716D01*
X1384Y1716D01*
X1384Y1722D01*
X1382Y1722D01*
X1382Y1748D01*
X1384Y1748D01*
X1384Y1756D01*
X1386Y1756D01*
X1386Y1758D01*
X778Y1758D01*
G37*
D02*
G36*
X2808Y1706D02*
X2808Y1580D01*
X2974Y1580D01*
X2974Y1602D01*
X2972Y1602D01*
X2972Y1604D01*
X2970Y1604D01*
X2970Y1608D01*
X2968Y1608D01*
X2968Y1614D01*
X2966Y1614D01*
X2966Y1622D01*
X2964Y1622D01*
X2964Y1648D01*
X2966Y1648D01*
X2966Y1658D01*
X2968Y1658D01*
X2968Y1662D01*
X2970Y1662D01*
X2970Y1666D01*
X2972Y1666D01*
X2972Y1670D01*
X2974Y1670D01*
X2974Y1674D01*
X2976Y1674D01*
X2976Y1676D01*
X2978Y1676D01*
X2978Y1678D01*
X2980Y1678D01*
X2980Y1682D01*
X2982Y1682D01*
X2982Y1684D01*
X2984Y1684D01*
X2984Y1686D01*
X2986Y1686D01*
X2986Y1688D01*
X2988Y1688D01*
X2988Y1690D01*
X2992Y1690D01*
X2992Y1692D01*
X2994Y1692D01*
X2994Y1694D01*
X2996Y1694D01*
X2996Y1696D01*
X3000Y1696D01*
X3000Y1698D01*
X3004Y1698D01*
X3004Y1700D01*
X3008Y1700D01*
X3008Y1702D01*
X3014Y1702D01*
X3014Y1704D01*
X3022Y1704D01*
X3022Y1706D01*
X2808Y1706D01*
G37*
D02*
G36*
X3046Y1706D02*
X3046Y1704D01*
X3054Y1704D01*
X3054Y1702D01*
X3060Y1702D01*
X3060Y1700D01*
X3064Y1700D01*
X3064Y1698D01*
X3068Y1698D01*
X3068Y1696D01*
X3072Y1696D01*
X3072Y1694D01*
X3074Y1694D01*
X3074Y1692D01*
X3094Y1692D01*
X3094Y1694D01*
X3096Y1694D01*
X3096Y1696D01*
X3100Y1696D01*
X3100Y1698D01*
X3104Y1698D01*
X3104Y1700D01*
X3108Y1700D01*
X3108Y1702D01*
X3114Y1702D01*
X3114Y1704D01*
X3122Y1704D01*
X3122Y1706D01*
X3046Y1706D01*
G37*
D02*
G36*
X3146Y1706D02*
X3146Y1704D01*
X3154Y1704D01*
X3154Y1702D01*
X3160Y1702D01*
X3160Y1700D01*
X3164Y1700D01*
X3164Y1698D01*
X3168Y1698D01*
X3168Y1696D01*
X3172Y1696D01*
X3172Y1694D01*
X3174Y1694D01*
X3174Y1692D01*
X3194Y1692D01*
X3194Y1694D01*
X3196Y1694D01*
X3196Y1696D01*
X3200Y1696D01*
X3200Y1698D01*
X3204Y1698D01*
X3204Y1700D01*
X3208Y1700D01*
X3208Y1702D01*
X3214Y1702D01*
X3214Y1704D01*
X3222Y1704D01*
X3222Y1706D01*
X3146Y1706D01*
G37*
D02*
G36*
X778Y1688D02*
X778Y1672D01*
X798Y1672D01*
X798Y1674D01*
X800Y1674D01*
X800Y1676D01*
X802Y1676D01*
X802Y1678D01*
X804Y1678D01*
X804Y1680D01*
X808Y1680D01*
X808Y1682D01*
X810Y1682D01*
X810Y1684D01*
X816Y1684D01*
X816Y1686D01*
X822Y1686D01*
X822Y1688D01*
X778Y1688D01*
G37*
D02*
G36*
X262Y1602D02*
X262Y1598D01*
X260Y1598D01*
X260Y1594D01*
X258Y1594D01*
X258Y1590D01*
X256Y1590D01*
X256Y1586D01*
X254Y1586D01*
X254Y1584D01*
X252Y1584D01*
X252Y1582D01*
X250Y1582D01*
X250Y1578D01*
X248Y1578D01*
X248Y1576D01*
X246Y1576D01*
X246Y1574D01*
X244Y1574D01*
X244Y1572D01*
X242Y1572D01*
X242Y1570D01*
X240Y1570D01*
X240Y1568D01*
X236Y1568D01*
X236Y1566D01*
X234Y1566D01*
X234Y1564D01*
X230Y1564D01*
X230Y1562D01*
X228Y1562D01*
X228Y1560D01*
X224Y1560D01*
X224Y1558D01*
X218Y1558D01*
X218Y1556D01*
X212Y1556D01*
X212Y1554D01*
X368Y1554D01*
X368Y1602D01*
X262Y1602D01*
G37*
D02*
G36*
X2586Y1560D02*
X2586Y1522D01*
X2584Y1522D01*
X2584Y1516D01*
X2582Y1516D01*
X2582Y1512D01*
X2580Y1512D01*
X2580Y1508D01*
X2578Y1508D01*
X2578Y1506D01*
X2576Y1506D01*
X2576Y1504D01*
X2574Y1504D01*
X2574Y1500D01*
X2572Y1500D01*
X2572Y1498D01*
X2570Y1498D01*
X2570Y1496D01*
X2566Y1496D01*
X2566Y1494D01*
X2564Y1494D01*
X2564Y1492D01*
X2562Y1492D01*
X2562Y1490D01*
X2558Y1490D01*
X2558Y1488D01*
X2554Y1488D01*
X2554Y1486D01*
X2548Y1486D01*
X2548Y1484D01*
X2790Y1484D01*
X2790Y1560D01*
X2586Y1560D01*
G37*
D02*
G36*
X44Y1554D02*
X44Y1552D01*
X368Y1552D01*
X368Y1554D01*
X44Y1554D01*
G37*
D02*
G36*
X44Y1554D02*
X44Y1552D01*
X368Y1552D01*
X368Y1554D01*
X44Y1554D01*
G37*
D02*
G36*
X44Y1552D02*
X44Y1474D01*
X266Y1474D01*
X266Y1362D01*
X424Y1362D01*
X424Y1364D01*
X416Y1364D01*
X416Y1366D01*
X410Y1366D01*
X410Y1368D01*
X406Y1368D01*
X406Y1370D01*
X404Y1370D01*
X404Y1372D01*
X400Y1372D01*
X400Y1374D01*
X398Y1374D01*
X398Y1376D01*
X394Y1376D01*
X394Y1378D01*
X392Y1378D01*
X392Y1380D01*
X390Y1380D01*
X390Y1382D01*
X388Y1382D01*
X388Y1384D01*
X386Y1384D01*
X386Y1386D01*
X384Y1386D01*
X384Y1388D01*
X382Y1388D01*
X382Y1392D01*
X380Y1392D01*
X380Y1394D01*
X378Y1394D01*
X378Y1396D01*
X376Y1396D01*
X376Y1400D01*
X374Y1400D01*
X374Y1404D01*
X372Y1404D01*
X372Y1410D01*
X370Y1410D01*
X370Y1418D01*
X368Y1418D01*
X368Y1552D01*
X44Y1552D01*
G37*
D02*
G36*
X2378Y1484D02*
X2378Y1482D01*
X2790Y1482D01*
X2790Y1484D01*
X2378Y1484D01*
G37*
D02*
G36*
X2378Y1484D02*
X2378Y1482D01*
X2790Y1482D01*
X2790Y1484D01*
X2378Y1484D01*
G37*
D02*
G36*
X2378Y1482D02*
X2378Y1480D01*
X2452Y1480D01*
X2452Y1478D01*
X2458Y1478D01*
X2458Y1476D01*
X2462Y1476D01*
X2462Y1474D01*
X2466Y1474D01*
X2466Y1472D01*
X2468Y1472D01*
X2468Y1470D01*
X2470Y1470D01*
X2470Y1468D01*
X2472Y1468D01*
X2472Y1466D01*
X2474Y1466D01*
X2474Y1464D01*
X2476Y1464D01*
X2476Y1460D01*
X2478Y1460D01*
X2478Y1456D01*
X2480Y1456D01*
X2480Y1450D01*
X2482Y1450D01*
X2482Y1406D01*
X2554Y1406D01*
X2554Y1404D01*
X2560Y1404D01*
X2560Y1402D01*
X2564Y1402D01*
X2564Y1400D01*
X2568Y1400D01*
X2568Y1398D01*
X2572Y1398D01*
X2572Y1396D01*
X2574Y1396D01*
X2574Y1394D01*
X2576Y1394D01*
X2576Y1392D01*
X2580Y1392D01*
X2580Y1390D01*
X2582Y1390D01*
X2582Y1388D01*
X2584Y1388D01*
X2584Y1386D01*
X2586Y1386D01*
X2586Y1384D01*
X2588Y1384D01*
X2588Y1382D01*
X2590Y1382D01*
X2590Y1378D01*
X2592Y1378D01*
X2592Y1376D01*
X2594Y1376D01*
X2594Y1374D01*
X2596Y1374D01*
X2596Y1370D01*
X2598Y1370D01*
X2598Y1366D01*
X2600Y1366D01*
X2600Y1362D01*
X2602Y1362D01*
X2602Y1356D01*
X2604Y1356D01*
X2604Y1344D01*
X2606Y1344D01*
X2606Y1326D01*
X2604Y1326D01*
X2604Y1316D01*
X2602Y1316D01*
X2602Y1310D01*
X2600Y1310D01*
X2600Y1306D01*
X2598Y1306D01*
X2598Y1302D01*
X2596Y1302D01*
X2596Y1298D01*
X2594Y1298D01*
X2594Y1296D01*
X2592Y1296D01*
X2592Y1276D01*
X2594Y1276D01*
X2594Y1274D01*
X2596Y1274D01*
X2596Y1270D01*
X2598Y1270D01*
X2598Y1266D01*
X2600Y1266D01*
X2600Y1262D01*
X2602Y1262D01*
X2602Y1256D01*
X2604Y1256D01*
X2604Y1244D01*
X2606Y1244D01*
X2606Y1226D01*
X2604Y1226D01*
X2604Y1216D01*
X2602Y1216D01*
X2602Y1210D01*
X2600Y1210D01*
X2600Y1206D01*
X2598Y1206D01*
X2598Y1202D01*
X2596Y1202D01*
X2596Y1198D01*
X2594Y1198D01*
X2594Y1196D01*
X2592Y1196D01*
X2592Y1176D01*
X2594Y1176D01*
X2594Y1174D01*
X2596Y1174D01*
X2596Y1170D01*
X2598Y1170D01*
X2598Y1166D01*
X2600Y1166D01*
X2600Y1162D01*
X2602Y1162D01*
X2602Y1156D01*
X2604Y1156D01*
X2604Y1144D01*
X2606Y1144D01*
X2606Y1126D01*
X2604Y1126D01*
X2604Y1116D01*
X2602Y1116D01*
X2602Y1110D01*
X2600Y1110D01*
X2600Y1106D01*
X2598Y1106D01*
X2598Y1102D01*
X2596Y1102D01*
X2596Y1098D01*
X2594Y1098D01*
X2594Y1096D01*
X2592Y1096D01*
X2592Y1076D01*
X2594Y1076D01*
X2594Y1074D01*
X2596Y1074D01*
X2596Y1070D01*
X2598Y1070D01*
X2598Y1066D01*
X2600Y1066D01*
X2600Y1062D01*
X2602Y1062D01*
X2602Y1056D01*
X2604Y1056D01*
X2604Y1044D01*
X2606Y1044D01*
X2606Y1026D01*
X2604Y1026D01*
X2604Y1016D01*
X2602Y1016D01*
X2602Y1010D01*
X2600Y1010D01*
X2600Y1006D01*
X2598Y1006D01*
X2598Y1002D01*
X2596Y1002D01*
X2596Y998D01*
X2594Y998D01*
X2594Y996D01*
X2592Y996D01*
X2592Y992D01*
X2590Y992D01*
X2590Y990D01*
X2588Y990D01*
X2588Y988D01*
X2586Y988D01*
X2586Y986D01*
X2584Y986D01*
X2584Y984D01*
X2582Y984D01*
X2582Y982D01*
X2580Y982D01*
X2580Y980D01*
X2578Y980D01*
X2578Y978D01*
X2574Y978D01*
X2574Y976D01*
X2572Y976D01*
X2572Y974D01*
X2568Y974D01*
X2568Y972D01*
X2566Y972D01*
X2566Y970D01*
X2560Y970D01*
X2560Y968D01*
X2556Y968D01*
X2556Y966D01*
X2546Y966D01*
X2546Y964D01*
X2792Y964D01*
X2792Y1196D01*
X2790Y1196D01*
X2790Y1482D01*
X2378Y1482D01*
G37*
D02*
G36*
X44Y1474D02*
X44Y1054D01*
X176Y1054D01*
X176Y1056D01*
X170Y1056D01*
X170Y1058D01*
X164Y1058D01*
X164Y1060D01*
X160Y1060D01*
X160Y1062D01*
X158Y1062D01*
X158Y1064D01*
X154Y1064D01*
X154Y1066D01*
X152Y1066D01*
X152Y1068D01*
X150Y1068D01*
X150Y1070D01*
X146Y1070D01*
X146Y1072D01*
X144Y1072D01*
X144Y1074D01*
X142Y1074D01*
X142Y1076D01*
X140Y1076D01*
X140Y1078D01*
X138Y1078D01*
X138Y1082D01*
X136Y1082D01*
X136Y1084D01*
X134Y1084D01*
X134Y1086D01*
X132Y1086D01*
X132Y1090D01*
X130Y1090D01*
X130Y1094D01*
X128Y1094D01*
X128Y1098D01*
X126Y1098D01*
X126Y1102D01*
X124Y1102D01*
X124Y1110D01*
X122Y1110D01*
X122Y1142D01*
X124Y1142D01*
X124Y1150D01*
X126Y1150D01*
X126Y1154D01*
X128Y1154D01*
X128Y1158D01*
X130Y1158D01*
X130Y1162D01*
X132Y1162D01*
X132Y1164D01*
X134Y1164D01*
X134Y1168D01*
X136Y1168D01*
X136Y1170D01*
X138Y1170D01*
X138Y1172D01*
X140Y1172D01*
X140Y1174D01*
X142Y1174D01*
X142Y1176D01*
X144Y1176D01*
X144Y1178D01*
X146Y1178D01*
X146Y1180D01*
X148Y1180D01*
X148Y1182D01*
X150Y1182D01*
X150Y1184D01*
X152Y1184D01*
X152Y1206D01*
X148Y1206D01*
X148Y1208D01*
X146Y1208D01*
X146Y1210D01*
X144Y1210D01*
X144Y1212D01*
X142Y1212D01*
X142Y1214D01*
X140Y1214D01*
X140Y1216D01*
X138Y1216D01*
X138Y1218D01*
X136Y1218D01*
X136Y1222D01*
X134Y1222D01*
X134Y1224D01*
X132Y1224D01*
X132Y1228D01*
X130Y1228D01*
X130Y1230D01*
X128Y1230D01*
X128Y1236D01*
X126Y1236D01*
X126Y1240D01*
X124Y1240D01*
X124Y1248D01*
X122Y1248D01*
X122Y1280D01*
X124Y1280D01*
X124Y1286D01*
X126Y1286D01*
X126Y1292D01*
X128Y1292D01*
X128Y1296D01*
X130Y1296D01*
X130Y1300D01*
X132Y1300D01*
X132Y1302D01*
X134Y1302D01*
X134Y1306D01*
X136Y1306D01*
X136Y1308D01*
X138Y1308D01*
X138Y1310D01*
X140Y1310D01*
X140Y1330D01*
X122Y1330D01*
X122Y1474D01*
X44Y1474D01*
G37*
D02*
G36*
X1978Y1472D02*
X1978Y1462D01*
X2022Y1462D01*
X2022Y1464D01*
X2012Y1464D01*
X2012Y1466D01*
X2006Y1466D01*
X2006Y1468D01*
X2002Y1468D01*
X2002Y1470D01*
X1998Y1470D01*
X1998Y1472D01*
X1978Y1472D01*
G37*
D02*
G36*
X1978Y1462D02*
X1978Y1460D01*
X2194Y1460D01*
X2194Y1462D01*
X1978Y1462D01*
G37*
D02*
G36*
X1978Y1462D02*
X1978Y1460D01*
X2194Y1460D01*
X2194Y1462D01*
X1978Y1462D01*
G37*
D02*
G36*
X1978Y1460D02*
X1978Y1120D01*
X1976Y1120D01*
X1976Y1114D01*
X1974Y1114D01*
X1974Y1110D01*
X1972Y1110D01*
X1972Y1108D01*
X1970Y1108D01*
X1970Y1104D01*
X1968Y1104D01*
X1968Y1102D01*
X1966Y1102D01*
X1966Y1100D01*
X1964Y1100D01*
X1964Y1098D01*
X1960Y1098D01*
X1960Y1096D01*
X1956Y1096D01*
X1956Y1094D01*
X1950Y1094D01*
X1950Y1092D01*
X1794Y1092D01*
X1794Y1070D01*
X1796Y1070D01*
X1796Y1066D01*
X1798Y1066D01*
X1798Y1062D01*
X1800Y1062D01*
X1800Y1058D01*
X1802Y1058D01*
X1802Y1050D01*
X1804Y1050D01*
X1804Y1022D01*
X1802Y1022D01*
X1802Y1014D01*
X1800Y1014D01*
X1800Y1008D01*
X1798Y1008D01*
X1798Y1004D01*
X1796Y1004D01*
X1796Y1002D01*
X1794Y1002D01*
X1794Y998D01*
X1792Y998D01*
X1792Y996D01*
X1790Y996D01*
X1790Y992D01*
X1788Y992D01*
X1788Y990D01*
X1786Y990D01*
X1786Y988D01*
X1784Y988D01*
X1784Y986D01*
X1782Y986D01*
X1782Y984D01*
X1780Y984D01*
X1780Y982D01*
X1778Y982D01*
X1778Y980D01*
X1774Y980D01*
X1774Y978D01*
X1772Y978D01*
X1772Y976D01*
X1770Y976D01*
X1770Y974D01*
X1766Y974D01*
X1766Y972D01*
X1762Y972D01*
X1762Y970D01*
X1756Y970D01*
X1756Y968D01*
X1750Y968D01*
X1750Y966D01*
X2312Y966D01*
X2312Y968D01*
X2308Y968D01*
X2308Y970D01*
X2304Y970D01*
X2304Y972D01*
X2300Y972D01*
X2300Y974D01*
X2296Y974D01*
X2296Y976D01*
X2294Y976D01*
X2294Y978D01*
X2290Y978D01*
X2290Y980D01*
X2288Y980D01*
X2288Y982D01*
X2286Y982D01*
X2286Y984D01*
X2284Y984D01*
X2284Y986D01*
X2282Y986D01*
X2282Y988D01*
X2280Y988D01*
X2280Y990D01*
X2278Y990D01*
X2278Y992D01*
X2276Y992D01*
X2276Y996D01*
X2274Y996D01*
X2274Y998D01*
X2272Y998D01*
X2272Y1002D01*
X2270Y1002D01*
X2270Y1006D01*
X2268Y1006D01*
X2268Y1010D01*
X2266Y1010D01*
X2266Y1016D01*
X2264Y1016D01*
X2264Y1056D01*
X2266Y1056D01*
X2266Y1062D01*
X2268Y1062D01*
X2268Y1066D01*
X2270Y1066D01*
X2270Y1070D01*
X2272Y1070D01*
X2272Y1074D01*
X2274Y1074D01*
X2274Y1076D01*
X2276Y1076D01*
X2276Y1096D01*
X2274Y1096D01*
X2274Y1098D01*
X2272Y1098D01*
X2272Y1102D01*
X2270Y1102D01*
X2270Y1106D01*
X2268Y1106D01*
X2268Y1110D01*
X2266Y1110D01*
X2266Y1116D01*
X2264Y1116D01*
X2264Y1166D01*
X2220Y1166D01*
X2220Y1168D01*
X2212Y1168D01*
X2212Y1170D01*
X2206Y1170D01*
X2206Y1172D01*
X2202Y1172D01*
X2202Y1174D01*
X2198Y1174D01*
X2198Y1176D01*
X2196Y1176D01*
X2196Y1178D01*
X2194Y1178D01*
X2194Y1180D01*
X2190Y1180D01*
X2190Y1182D01*
X2188Y1182D01*
X2188Y1184D01*
X2186Y1184D01*
X2186Y1186D01*
X2184Y1186D01*
X2184Y1188D01*
X2182Y1188D01*
X2182Y1190D01*
X2180Y1190D01*
X2180Y1192D01*
X2178Y1192D01*
X2178Y1196D01*
X2176Y1196D01*
X2176Y1198D01*
X2174Y1198D01*
X2174Y1202D01*
X2172Y1202D01*
X2172Y1204D01*
X2170Y1204D01*
X2170Y1208D01*
X2168Y1208D01*
X2168Y1214D01*
X2166Y1214D01*
X2166Y1222D01*
X2164Y1222D01*
X2164Y1248D01*
X2166Y1248D01*
X2166Y1258D01*
X2168Y1258D01*
X2168Y1262D01*
X2170Y1262D01*
X2170Y1266D01*
X2172Y1266D01*
X2172Y1270D01*
X2174Y1270D01*
X2174Y1274D01*
X2176Y1274D01*
X2176Y1276D01*
X2178Y1276D01*
X2178Y1278D01*
X2180Y1278D01*
X2180Y1282D01*
X2182Y1282D01*
X2182Y1284D01*
X2184Y1284D01*
X2184Y1286D01*
X2186Y1286D01*
X2186Y1288D01*
X2188Y1288D01*
X2188Y1290D01*
X2190Y1290D01*
X2190Y1452D01*
X2192Y1452D01*
X2192Y1458D01*
X2194Y1458D01*
X2194Y1460D01*
X1978Y1460D01*
G37*
D02*
G36*
X2482Y1406D02*
X2482Y1400D01*
X2504Y1400D01*
X2504Y1402D01*
X2508Y1402D01*
X2508Y1404D01*
X2514Y1404D01*
X2514Y1406D01*
X2482Y1406D01*
G37*
D02*
G36*
X598Y1390D02*
X598Y1388D01*
X592Y1388D01*
X592Y1386D01*
X590Y1386D01*
X590Y1384D01*
X588Y1384D01*
X588Y1382D01*
X586Y1382D01*
X586Y1380D01*
X584Y1380D01*
X584Y1378D01*
X580Y1378D01*
X580Y1376D01*
X578Y1376D01*
X578Y1374D01*
X576Y1374D01*
X576Y1372D01*
X572Y1372D01*
X572Y1370D01*
X568Y1370D01*
X568Y1368D01*
X564Y1368D01*
X564Y1366D01*
X560Y1366D01*
X560Y1364D01*
X552Y1364D01*
X552Y1362D01*
X690Y1362D01*
X690Y1390D01*
X598Y1390D01*
G37*
D02*
G36*
X478Y1376D02*
X478Y1374D01*
X476Y1374D01*
X476Y1372D01*
X472Y1372D01*
X472Y1370D01*
X468Y1370D01*
X468Y1368D01*
X464Y1368D01*
X464Y1366D01*
X460Y1366D01*
X460Y1364D01*
X452Y1364D01*
X452Y1362D01*
X524Y1362D01*
X524Y1364D01*
X516Y1364D01*
X516Y1366D01*
X510Y1366D01*
X510Y1368D01*
X506Y1368D01*
X506Y1370D01*
X504Y1370D01*
X504Y1372D01*
X500Y1372D01*
X500Y1374D01*
X498Y1374D01*
X498Y1376D01*
X478Y1376D01*
G37*
D02*
G36*
X266Y1362D02*
X266Y1360D01*
X690Y1360D01*
X690Y1362D01*
X266Y1362D01*
G37*
D02*
G36*
X266Y1362D02*
X266Y1360D01*
X690Y1360D01*
X690Y1362D01*
X266Y1362D01*
G37*
D02*
G36*
X266Y1362D02*
X266Y1360D01*
X690Y1360D01*
X690Y1362D01*
X266Y1362D01*
G37*
D02*
G36*
X266Y1360D02*
X266Y1330D01*
X248Y1330D01*
X248Y1310D01*
X250Y1310D01*
X250Y1308D01*
X252Y1308D01*
X252Y1306D01*
X254Y1306D01*
X254Y1302D01*
X256Y1302D01*
X256Y1300D01*
X258Y1300D01*
X258Y1296D01*
X260Y1296D01*
X260Y1292D01*
X262Y1292D01*
X262Y1288D01*
X264Y1288D01*
X264Y1280D01*
X266Y1280D01*
X266Y1246D01*
X264Y1246D01*
X264Y1240D01*
X262Y1240D01*
X262Y1234D01*
X260Y1234D01*
X260Y1230D01*
X258Y1230D01*
X258Y1228D01*
X256Y1228D01*
X256Y1224D01*
X254Y1224D01*
X254Y1222D01*
X252Y1222D01*
X252Y1218D01*
X250Y1218D01*
X250Y1216D01*
X248Y1216D01*
X248Y1214D01*
X246Y1214D01*
X246Y1212D01*
X244Y1212D01*
X244Y1210D01*
X242Y1210D01*
X242Y1208D01*
X240Y1208D01*
X240Y1206D01*
X236Y1206D01*
X236Y1202D01*
X552Y1202D01*
X552Y1200D01*
X560Y1200D01*
X560Y1198D01*
X564Y1198D01*
X564Y1196D01*
X568Y1196D01*
X568Y1194D01*
X572Y1194D01*
X572Y1192D01*
X576Y1192D01*
X576Y1190D01*
X578Y1190D01*
X578Y1188D01*
X580Y1188D01*
X580Y1186D01*
X584Y1186D01*
X584Y1184D01*
X586Y1184D01*
X586Y1182D01*
X588Y1182D01*
X588Y1180D01*
X590Y1180D01*
X590Y1178D01*
X592Y1178D01*
X592Y1174D01*
X594Y1174D01*
X594Y1172D01*
X596Y1172D01*
X596Y1170D01*
X598Y1170D01*
X598Y1166D01*
X600Y1166D01*
X600Y1162D01*
X602Y1162D01*
X602Y1158D01*
X604Y1158D01*
X604Y1152D01*
X606Y1152D01*
X606Y1144D01*
X608Y1144D01*
X608Y1120D01*
X606Y1120D01*
X606Y1112D01*
X604Y1112D01*
X604Y1106D01*
X602Y1106D01*
X602Y1102D01*
X600Y1102D01*
X600Y1080D01*
X690Y1080D01*
X690Y1360D01*
X266Y1360D01*
G37*
D02*
G36*
X236Y1202D02*
X236Y1184D01*
X238Y1184D01*
X238Y1182D01*
X240Y1182D01*
X240Y1180D01*
X242Y1180D01*
X242Y1178D01*
X246Y1178D01*
X246Y1176D01*
X248Y1176D01*
X248Y1172D01*
X250Y1172D01*
X250Y1170D01*
X252Y1170D01*
X252Y1168D01*
X254Y1168D01*
X254Y1166D01*
X256Y1166D01*
X256Y1162D01*
X258Y1162D01*
X258Y1158D01*
X260Y1158D01*
X260Y1154D01*
X262Y1154D01*
X262Y1150D01*
X264Y1150D01*
X264Y1142D01*
X266Y1142D01*
X266Y1110D01*
X264Y1110D01*
X264Y1102D01*
X262Y1102D01*
X262Y1098D01*
X260Y1098D01*
X260Y1094D01*
X258Y1094D01*
X258Y1090D01*
X256Y1090D01*
X256Y1086D01*
X254Y1086D01*
X254Y1084D01*
X252Y1084D01*
X252Y1082D01*
X250Y1082D01*
X250Y1078D01*
X248Y1078D01*
X248Y1076D01*
X246Y1076D01*
X246Y1074D01*
X244Y1074D01*
X244Y1072D01*
X242Y1072D01*
X242Y1070D01*
X240Y1070D01*
X240Y1068D01*
X236Y1068D01*
X236Y1066D01*
X234Y1066D01*
X234Y1064D01*
X230Y1064D01*
X230Y1062D01*
X228Y1062D01*
X228Y1060D01*
X224Y1060D01*
X224Y1058D01*
X218Y1058D01*
X218Y1056D01*
X212Y1056D01*
X212Y1054D01*
X368Y1054D01*
X368Y1202D01*
X236Y1202D01*
G37*
D02*
G36*
X2404Y1166D02*
X2404Y1144D01*
X2406Y1144D01*
X2406Y1126D01*
X2404Y1126D01*
X2404Y1116D01*
X2402Y1116D01*
X2402Y1110D01*
X2400Y1110D01*
X2400Y1106D01*
X2398Y1106D01*
X2398Y1102D01*
X2396Y1102D01*
X2396Y1098D01*
X2394Y1098D01*
X2394Y1096D01*
X2392Y1096D01*
X2392Y1076D01*
X2394Y1076D01*
X2394Y1074D01*
X2396Y1074D01*
X2396Y1070D01*
X2398Y1070D01*
X2398Y1066D01*
X2400Y1066D01*
X2400Y1062D01*
X2402Y1062D01*
X2402Y1056D01*
X2404Y1056D01*
X2404Y1044D01*
X2406Y1044D01*
X2406Y1026D01*
X2404Y1026D01*
X2404Y1016D01*
X2402Y1016D01*
X2402Y1010D01*
X2400Y1010D01*
X2400Y1006D01*
X2398Y1006D01*
X2398Y1002D01*
X2396Y1002D01*
X2396Y998D01*
X2394Y998D01*
X2394Y996D01*
X2392Y996D01*
X2392Y992D01*
X2390Y992D01*
X2390Y990D01*
X2388Y990D01*
X2388Y988D01*
X2386Y988D01*
X2386Y986D01*
X2384Y986D01*
X2384Y984D01*
X2382Y984D01*
X2382Y982D01*
X2380Y982D01*
X2380Y980D01*
X2378Y980D01*
X2378Y978D01*
X2374Y978D01*
X2374Y976D01*
X2372Y976D01*
X2372Y974D01*
X2368Y974D01*
X2368Y972D01*
X2366Y972D01*
X2366Y970D01*
X2360Y970D01*
X2360Y968D01*
X2356Y968D01*
X2356Y966D01*
X2346Y966D01*
X2346Y964D01*
X2522Y964D01*
X2522Y966D01*
X2512Y966D01*
X2512Y968D01*
X2508Y968D01*
X2508Y970D01*
X2504Y970D01*
X2504Y972D01*
X2500Y972D01*
X2500Y974D01*
X2496Y974D01*
X2496Y976D01*
X2494Y976D01*
X2494Y978D01*
X2490Y978D01*
X2490Y980D01*
X2488Y980D01*
X2488Y982D01*
X2486Y982D01*
X2486Y984D01*
X2484Y984D01*
X2484Y986D01*
X2482Y986D01*
X2482Y988D01*
X2480Y988D01*
X2480Y990D01*
X2478Y990D01*
X2478Y992D01*
X2476Y992D01*
X2476Y996D01*
X2474Y996D01*
X2474Y998D01*
X2472Y998D01*
X2472Y1002D01*
X2470Y1002D01*
X2470Y1006D01*
X2468Y1006D01*
X2468Y1010D01*
X2466Y1010D01*
X2466Y1016D01*
X2464Y1016D01*
X2464Y1056D01*
X2466Y1056D01*
X2466Y1062D01*
X2468Y1062D01*
X2468Y1066D01*
X2470Y1066D01*
X2470Y1070D01*
X2472Y1070D01*
X2472Y1074D01*
X2474Y1074D01*
X2474Y1076D01*
X2476Y1076D01*
X2476Y1096D01*
X2474Y1096D01*
X2474Y1098D01*
X2472Y1098D01*
X2472Y1102D01*
X2470Y1102D01*
X2470Y1106D01*
X2468Y1106D01*
X2468Y1110D01*
X2466Y1110D01*
X2466Y1116D01*
X2464Y1116D01*
X2464Y1166D01*
X2404Y1166D01*
G37*
D02*
G36*
X44Y1054D02*
X44Y1052D01*
X368Y1052D01*
X368Y1054D01*
X44Y1054D01*
G37*
D02*
G36*
X44Y1054D02*
X44Y1052D01*
X368Y1052D01*
X368Y1054D01*
X44Y1054D01*
G37*
D02*
G36*
X44Y1052D02*
X44Y974D01*
X266Y974D01*
X266Y962D01*
X424Y962D01*
X424Y964D01*
X416Y964D01*
X416Y966D01*
X410Y966D01*
X410Y968D01*
X406Y968D01*
X406Y970D01*
X404Y970D01*
X404Y972D01*
X400Y972D01*
X400Y974D01*
X398Y974D01*
X398Y976D01*
X394Y976D01*
X394Y978D01*
X392Y978D01*
X392Y980D01*
X390Y980D01*
X390Y982D01*
X388Y982D01*
X388Y984D01*
X386Y984D01*
X386Y986D01*
X384Y986D01*
X384Y988D01*
X382Y988D01*
X382Y992D01*
X380Y992D01*
X380Y994D01*
X378Y994D01*
X378Y996D01*
X376Y996D01*
X376Y1000D01*
X374Y1000D01*
X374Y1004D01*
X372Y1004D01*
X372Y1010D01*
X370Y1010D01*
X370Y1018D01*
X368Y1018D01*
X368Y1052D01*
X44Y1052D01*
G37*
D02*
G36*
X598Y990D02*
X598Y988D01*
X592Y988D01*
X592Y986D01*
X590Y986D01*
X590Y984D01*
X588Y984D01*
X588Y982D01*
X586Y982D01*
X586Y980D01*
X584Y980D01*
X584Y978D01*
X580Y978D01*
X580Y976D01*
X578Y976D01*
X578Y974D01*
X576Y974D01*
X576Y972D01*
X572Y972D01*
X572Y970D01*
X568Y970D01*
X568Y968D01*
X564Y968D01*
X564Y966D01*
X560Y966D01*
X560Y964D01*
X552Y964D01*
X552Y962D01*
X690Y962D01*
X690Y990D01*
X598Y990D01*
G37*
D02*
G36*
X478Y976D02*
X478Y974D01*
X476Y974D01*
X476Y972D01*
X472Y972D01*
X472Y970D01*
X468Y970D01*
X468Y968D01*
X464Y968D01*
X464Y966D01*
X460Y966D01*
X460Y964D01*
X452Y964D01*
X452Y962D01*
X524Y962D01*
X524Y964D01*
X516Y964D01*
X516Y966D01*
X510Y966D01*
X510Y968D01*
X506Y968D01*
X506Y970D01*
X504Y970D01*
X504Y972D01*
X500Y972D01*
X500Y974D01*
X498Y974D01*
X498Y976D01*
X478Y976D01*
G37*
D02*
G36*
X1678Y976D02*
X1678Y966D01*
X1720Y966D01*
X1720Y968D01*
X1712Y968D01*
X1712Y970D01*
X1706Y970D01*
X1706Y972D01*
X1702Y972D01*
X1702Y974D01*
X1698Y974D01*
X1698Y976D01*
X1678Y976D01*
G37*
D02*
G36*
X44Y974D02*
X44Y554D01*
X176Y554D01*
X176Y556D01*
X170Y556D01*
X170Y558D01*
X164Y558D01*
X164Y560D01*
X160Y560D01*
X160Y562D01*
X158Y562D01*
X158Y564D01*
X154Y564D01*
X154Y566D01*
X152Y566D01*
X152Y568D01*
X150Y568D01*
X150Y570D01*
X146Y570D01*
X146Y572D01*
X144Y572D01*
X144Y574D01*
X142Y574D01*
X142Y576D01*
X140Y576D01*
X140Y578D01*
X138Y578D01*
X138Y582D01*
X136Y582D01*
X136Y584D01*
X134Y584D01*
X134Y586D01*
X132Y586D01*
X132Y590D01*
X130Y590D01*
X130Y594D01*
X128Y594D01*
X128Y598D01*
X126Y598D01*
X126Y602D01*
X124Y602D01*
X124Y610D01*
X122Y610D01*
X122Y642D01*
X124Y642D01*
X124Y650D01*
X126Y650D01*
X126Y654D01*
X128Y654D01*
X128Y658D01*
X130Y658D01*
X130Y662D01*
X132Y662D01*
X132Y664D01*
X134Y664D01*
X134Y668D01*
X136Y668D01*
X136Y670D01*
X138Y670D01*
X138Y672D01*
X140Y672D01*
X140Y674D01*
X142Y674D01*
X142Y676D01*
X144Y676D01*
X144Y678D01*
X146Y678D01*
X146Y680D01*
X148Y680D01*
X148Y682D01*
X150Y682D01*
X150Y684D01*
X152Y684D01*
X152Y706D01*
X148Y706D01*
X148Y708D01*
X146Y708D01*
X146Y710D01*
X144Y710D01*
X144Y712D01*
X142Y712D01*
X142Y714D01*
X140Y714D01*
X140Y716D01*
X138Y716D01*
X138Y718D01*
X136Y718D01*
X136Y722D01*
X134Y722D01*
X134Y724D01*
X132Y724D01*
X132Y728D01*
X130Y728D01*
X130Y730D01*
X128Y730D01*
X128Y736D01*
X126Y736D01*
X126Y740D01*
X124Y740D01*
X124Y748D01*
X122Y748D01*
X122Y780D01*
X124Y780D01*
X124Y786D01*
X126Y786D01*
X126Y792D01*
X128Y792D01*
X128Y796D01*
X130Y796D01*
X130Y800D01*
X132Y800D01*
X132Y802D01*
X134Y802D01*
X134Y806D01*
X136Y806D01*
X136Y808D01*
X138Y808D01*
X138Y810D01*
X140Y810D01*
X140Y830D01*
X122Y830D01*
X122Y974D01*
X44Y974D01*
G37*
D02*
G36*
X1678Y966D02*
X1678Y964D01*
X2322Y964D01*
X2322Y966D01*
X1678Y966D01*
G37*
D02*
G36*
X1678Y966D02*
X1678Y964D01*
X2322Y964D01*
X2322Y966D01*
X1678Y966D01*
G37*
D02*
G36*
X1678Y964D02*
X1678Y962D01*
X2792Y962D01*
X2792Y964D01*
X1678Y964D01*
G37*
D02*
G36*
X1678Y964D02*
X1678Y962D01*
X2792Y962D01*
X2792Y964D01*
X1678Y964D01*
G37*
D02*
G36*
X1678Y964D02*
X1678Y962D01*
X2792Y962D01*
X2792Y964D01*
X1678Y964D01*
G37*
D02*
G36*
X266Y962D02*
X266Y960D01*
X690Y960D01*
X690Y962D01*
X266Y962D01*
G37*
D02*
G36*
X266Y962D02*
X266Y960D01*
X690Y960D01*
X690Y962D01*
X266Y962D01*
G37*
D02*
G36*
X266Y962D02*
X266Y960D01*
X690Y960D01*
X690Y962D01*
X266Y962D01*
G37*
D02*
G36*
X1678Y962D02*
X1678Y906D01*
X2502Y906D01*
X2502Y904D01*
X2504Y904D01*
X2504Y766D01*
X2792Y766D01*
X2792Y962D01*
X1678Y962D01*
G37*
D02*
G36*
X266Y960D02*
X266Y830D01*
X248Y830D01*
X248Y810D01*
X250Y810D01*
X250Y808D01*
X252Y808D01*
X252Y806D01*
X254Y806D01*
X254Y802D01*
X552Y802D01*
X552Y800D01*
X560Y800D01*
X560Y798D01*
X564Y798D01*
X564Y796D01*
X568Y796D01*
X568Y794D01*
X572Y794D01*
X572Y792D01*
X576Y792D01*
X576Y790D01*
X578Y790D01*
X578Y788D01*
X580Y788D01*
X580Y786D01*
X584Y786D01*
X584Y784D01*
X586Y784D01*
X586Y782D01*
X588Y782D01*
X588Y780D01*
X590Y780D01*
X590Y778D01*
X592Y778D01*
X592Y774D01*
X594Y774D01*
X594Y772D01*
X596Y772D01*
X596Y770D01*
X598Y770D01*
X598Y766D01*
X600Y766D01*
X600Y762D01*
X602Y762D01*
X602Y758D01*
X604Y758D01*
X604Y752D01*
X606Y752D01*
X606Y744D01*
X608Y744D01*
X608Y720D01*
X606Y720D01*
X606Y712D01*
X604Y712D01*
X604Y706D01*
X602Y706D01*
X602Y702D01*
X600Y702D01*
X600Y698D01*
X598Y698D01*
X598Y678D01*
X688Y678D01*
X688Y680D01*
X690Y680D01*
X690Y960D01*
X266Y960D01*
G37*
D02*
G36*
X1678Y906D02*
X1678Y706D01*
X1790Y706D01*
X1790Y766D01*
X1764Y766D01*
X1764Y904D01*
X1766Y904D01*
X1766Y906D01*
X1678Y906D01*
G37*
D02*
G36*
X1902Y906D02*
X1902Y904D01*
X1904Y904D01*
X1904Y780D01*
X2014Y780D01*
X2014Y782D01*
X2016Y782D01*
X2016Y784D01*
X2018Y784D01*
X2018Y786D01*
X2020Y786D01*
X2020Y788D01*
X2022Y788D01*
X2022Y790D01*
X2024Y790D01*
X2024Y792D01*
X2026Y792D01*
X2026Y794D01*
X2028Y794D01*
X2028Y796D01*
X2030Y796D01*
X2030Y798D01*
X2032Y798D01*
X2032Y800D01*
X2034Y800D01*
X2034Y802D01*
X2036Y802D01*
X2036Y804D01*
X2038Y804D01*
X2038Y806D01*
X2040Y806D01*
X2040Y808D01*
X2042Y808D01*
X2042Y810D01*
X2044Y810D01*
X2044Y812D01*
X2046Y812D01*
X2046Y814D01*
X2048Y814D01*
X2048Y816D01*
X2050Y816D01*
X2050Y818D01*
X2052Y818D01*
X2052Y820D01*
X2054Y820D01*
X2054Y822D01*
X2056Y822D01*
X2056Y824D01*
X2058Y824D01*
X2058Y826D01*
X2060Y826D01*
X2060Y828D01*
X2062Y828D01*
X2062Y830D01*
X2064Y830D01*
X2064Y832D01*
X2066Y832D01*
X2066Y834D01*
X2068Y834D01*
X2068Y836D01*
X2070Y836D01*
X2070Y838D01*
X2072Y838D01*
X2072Y840D01*
X2074Y840D01*
X2074Y842D01*
X2076Y842D01*
X2076Y844D01*
X2078Y844D01*
X2078Y846D01*
X2080Y846D01*
X2080Y848D01*
X2082Y848D01*
X2082Y850D01*
X2084Y850D01*
X2084Y852D01*
X2086Y852D01*
X2086Y854D01*
X2088Y854D01*
X2088Y856D01*
X2090Y856D01*
X2090Y858D01*
X2092Y858D01*
X2092Y860D01*
X2094Y860D01*
X2094Y862D01*
X2096Y862D01*
X2096Y864D01*
X2098Y864D01*
X2098Y866D01*
X2100Y866D01*
X2100Y868D01*
X2102Y868D01*
X2102Y870D01*
X2104Y870D01*
X2104Y872D01*
X2106Y872D01*
X2106Y874D01*
X2108Y874D01*
X2108Y876D01*
X2114Y876D01*
X2114Y878D01*
X2120Y878D01*
X2120Y880D01*
X2164Y880D01*
X2164Y904D01*
X2166Y904D01*
X2166Y906D01*
X1902Y906D01*
G37*
D02*
G36*
X2302Y906D02*
X2302Y904D01*
X2304Y904D01*
X2304Y766D01*
X2364Y766D01*
X2364Y904D01*
X2366Y904D01*
X2366Y906D01*
X2302Y906D01*
G37*
D02*
G36*
X256Y802D02*
X256Y800D01*
X258Y800D01*
X258Y796D01*
X260Y796D01*
X260Y792D01*
X262Y792D01*
X262Y788D01*
X264Y788D01*
X264Y780D01*
X266Y780D01*
X266Y746D01*
X264Y746D01*
X264Y740D01*
X262Y740D01*
X262Y734D01*
X260Y734D01*
X260Y730D01*
X258Y730D01*
X258Y728D01*
X256Y728D01*
X256Y724D01*
X254Y724D01*
X254Y722D01*
X252Y722D01*
X252Y718D01*
X250Y718D01*
X250Y716D01*
X248Y716D01*
X248Y714D01*
X246Y714D01*
X246Y712D01*
X244Y712D01*
X244Y710D01*
X242Y710D01*
X242Y708D01*
X240Y708D01*
X240Y706D01*
X236Y706D01*
X236Y684D01*
X238Y684D01*
X238Y682D01*
X240Y682D01*
X240Y680D01*
X242Y680D01*
X242Y678D01*
X246Y678D01*
X246Y676D01*
X248Y676D01*
X248Y672D01*
X250Y672D01*
X250Y670D01*
X252Y670D01*
X252Y668D01*
X254Y668D01*
X254Y666D01*
X256Y666D01*
X256Y662D01*
X258Y662D01*
X258Y658D01*
X260Y658D01*
X260Y654D01*
X262Y654D01*
X262Y650D01*
X264Y650D01*
X264Y642D01*
X266Y642D01*
X266Y610D01*
X264Y610D01*
X264Y602D01*
X262Y602D01*
X262Y598D01*
X260Y598D01*
X260Y594D01*
X258Y594D01*
X258Y590D01*
X256Y590D01*
X256Y586D01*
X254Y586D01*
X254Y584D01*
X252Y584D01*
X252Y582D01*
X250Y582D01*
X250Y578D01*
X248Y578D01*
X248Y576D01*
X246Y576D01*
X246Y574D01*
X244Y574D01*
X244Y572D01*
X242Y572D01*
X242Y570D01*
X240Y570D01*
X240Y568D01*
X236Y568D01*
X236Y566D01*
X234Y566D01*
X234Y564D01*
X230Y564D01*
X230Y562D01*
X424Y562D01*
X424Y564D01*
X416Y564D01*
X416Y566D01*
X410Y566D01*
X410Y568D01*
X406Y568D01*
X406Y570D01*
X404Y570D01*
X404Y572D01*
X400Y572D01*
X400Y574D01*
X398Y574D01*
X398Y576D01*
X394Y576D01*
X394Y578D01*
X392Y578D01*
X392Y580D01*
X390Y580D01*
X390Y582D01*
X388Y582D01*
X388Y584D01*
X386Y584D01*
X386Y586D01*
X384Y586D01*
X384Y588D01*
X382Y588D01*
X382Y592D01*
X380Y592D01*
X380Y594D01*
X378Y594D01*
X378Y596D01*
X376Y596D01*
X376Y600D01*
X374Y600D01*
X374Y604D01*
X372Y604D01*
X372Y610D01*
X370Y610D01*
X370Y618D01*
X368Y618D01*
X368Y802D01*
X256Y802D01*
G37*
D02*
G36*
X994Y792D02*
X994Y772D01*
X996Y772D01*
X996Y770D01*
X998Y770D01*
X998Y766D01*
X1000Y766D01*
X1000Y762D01*
X1002Y762D01*
X1002Y758D01*
X1004Y758D01*
X1004Y752D01*
X1006Y752D01*
X1006Y744D01*
X1008Y744D01*
X1008Y720D01*
X1006Y720D01*
X1006Y712D01*
X1004Y712D01*
X1004Y706D01*
X1002Y706D01*
X1002Y702D01*
X1000Y702D01*
X1000Y698D01*
X998Y698D01*
X998Y694D01*
X996Y694D01*
X996Y692D01*
X994Y692D01*
X994Y672D01*
X996Y672D01*
X996Y670D01*
X998Y670D01*
X998Y666D01*
X1000Y666D01*
X1000Y662D01*
X1002Y662D01*
X1002Y658D01*
X1004Y658D01*
X1004Y652D01*
X1006Y652D01*
X1006Y644D01*
X1008Y644D01*
X1008Y620D01*
X1006Y620D01*
X1006Y612D01*
X1004Y612D01*
X1004Y606D01*
X1002Y606D01*
X1002Y602D01*
X1000Y602D01*
X1000Y598D01*
X998Y598D01*
X998Y594D01*
X996Y594D01*
X996Y592D01*
X994Y592D01*
X994Y590D01*
X992Y590D01*
X992Y586D01*
X990Y586D01*
X990Y584D01*
X988Y584D01*
X988Y582D01*
X986Y582D01*
X986Y580D01*
X984Y580D01*
X984Y578D01*
X980Y578D01*
X980Y576D01*
X978Y576D01*
X978Y574D01*
X976Y574D01*
X976Y572D01*
X972Y572D01*
X972Y570D01*
X968Y570D01*
X968Y568D01*
X964Y568D01*
X964Y566D01*
X960Y566D01*
X960Y564D01*
X952Y564D01*
X952Y562D01*
X1064Y562D01*
X1064Y746D01*
X1066Y746D01*
X1066Y756D01*
X1068Y756D01*
X1068Y762D01*
X1070Y762D01*
X1070Y766D01*
X1072Y766D01*
X1072Y770D01*
X1074Y770D01*
X1074Y772D01*
X1076Y772D01*
X1076Y792D01*
X994Y792D01*
G37*
D02*
G36*
X2144Y780D02*
X2144Y778D01*
X2142Y778D01*
X2142Y776D01*
X2140Y776D01*
X2140Y774D01*
X2138Y774D01*
X2138Y772D01*
X2136Y772D01*
X2136Y770D01*
X2134Y770D01*
X2134Y768D01*
X2132Y768D01*
X2132Y766D01*
X2164Y766D01*
X2164Y780D01*
X2144Y780D01*
G37*
D02*
G36*
X2130Y766D02*
X2130Y764D01*
X2792Y764D01*
X2792Y766D01*
X2130Y766D01*
G37*
D02*
G36*
X2130Y766D02*
X2130Y764D01*
X2792Y764D01*
X2792Y766D01*
X2130Y766D01*
G37*
D02*
G36*
X2130Y766D02*
X2130Y764D01*
X2792Y764D01*
X2792Y766D01*
X2130Y766D01*
G37*
D02*
G36*
X2128Y764D02*
X2128Y762D01*
X2126Y762D01*
X2126Y760D01*
X2124Y760D01*
X2124Y758D01*
X2122Y758D01*
X2122Y756D01*
X2120Y756D01*
X2120Y754D01*
X2118Y754D01*
X2118Y752D01*
X2116Y752D01*
X2116Y750D01*
X2114Y750D01*
X2114Y748D01*
X2112Y748D01*
X2112Y746D01*
X2110Y746D01*
X2110Y744D01*
X2108Y744D01*
X2108Y742D01*
X2106Y742D01*
X2106Y740D01*
X2104Y740D01*
X2104Y738D01*
X2102Y738D01*
X2102Y736D01*
X2100Y736D01*
X2100Y734D01*
X2098Y734D01*
X2098Y732D01*
X2096Y732D01*
X2096Y730D01*
X2094Y730D01*
X2094Y728D01*
X2092Y728D01*
X2092Y726D01*
X2090Y726D01*
X2090Y724D01*
X2088Y724D01*
X2088Y722D01*
X2086Y722D01*
X2086Y720D01*
X2084Y720D01*
X2084Y718D01*
X2082Y718D01*
X2082Y716D01*
X2080Y716D01*
X2080Y714D01*
X2078Y714D01*
X2078Y712D01*
X2076Y712D01*
X2076Y710D01*
X2074Y710D01*
X2074Y708D01*
X2072Y708D01*
X2072Y706D01*
X2070Y706D01*
X2070Y704D01*
X2068Y704D01*
X2068Y702D01*
X2066Y702D01*
X2066Y700D01*
X2064Y700D01*
X2064Y698D01*
X2060Y698D01*
X2060Y696D01*
X2056Y696D01*
X2056Y694D01*
X2050Y694D01*
X2050Y692D01*
X1878Y692D01*
X1878Y606D01*
X2654Y606D01*
X2654Y604D01*
X2660Y604D01*
X2660Y602D01*
X2664Y602D01*
X2664Y600D01*
X2668Y600D01*
X2668Y598D01*
X2672Y598D01*
X2672Y596D01*
X2674Y596D01*
X2674Y594D01*
X2676Y594D01*
X2676Y592D01*
X2680Y592D01*
X2680Y590D01*
X2682Y590D01*
X2682Y588D01*
X2684Y588D01*
X2684Y586D01*
X2686Y586D01*
X2686Y584D01*
X2688Y584D01*
X2688Y582D01*
X2690Y582D01*
X2690Y578D01*
X2692Y578D01*
X2692Y576D01*
X2694Y576D01*
X2694Y574D01*
X2696Y574D01*
X2696Y570D01*
X2698Y570D01*
X2698Y566D01*
X2700Y566D01*
X2700Y562D01*
X2702Y562D01*
X2702Y556D01*
X2704Y556D01*
X2704Y544D01*
X2706Y544D01*
X2706Y526D01*
X2704Y526D01*
X2704Y516D01*
X2702Y516D01*
X2702Y510D01*
X2700Y510D01*
X2700Y506D01*
X2698Y506D01*
X2698Y502D01*
X2696Y502D01*
X2696Y498D01*
X2694Y498D01*
X2694Y496D01*
X2692Y496D01*
X2692Y476D01*
X2694Y476D01*
X2694Y474D01*
X2696Y474D01*
X2696Y470D01*
X2698Y470D01*
X2698Y466D01*
X2700Y466D01*
X2700Y462D01*
X2702Y462D01*
X2702Y456D01*
X2704Y456D01*
X2704Y444D01*
X2706Y444D01*
X2706Y426D01*
X2704Y426D01*
X2704Y416D01*
X2702Y416D01*
X2702Y410D01*
X2700Y410D01*
X2700Y406D01*
X2698Y406D01*
X2698Y402D01*
X2696Y402D01*
X2696Y398D01*
X2694Y398D01*
X2694Y396D01*
X2692Y396D01*
X2692Y378D01*
X2712Y378D01*
X2712Y380D01*
X2714Y380D01*
X2714Y382D01*
X2716Y382D01*
X2716Y384D01*
X2718Y384D01*
X2718Y386D01*
X2720Y386D01*
X2720Y388D01*
X2722Y388D01*
X2722Y390D01*
X2724Y390D01*
X2724Y392D01*
X2726Y392D01*
X2726Y394D01*
X2728Y394D01*
X2728Y396D01*
X2732Y396D01*
X2732Y398D01*
X2734Y398D01*
X2734Y400D01*
X2736Y400D01*
X2736Y402D01*
X2738Y402D01*
X2738Y404D01*
X2740Y404D01*
X2740Y406D01*
X2742Y406D01*
X2742Y408D01*
X2744Y408D01*
X2744Y410D01*
X2746Y410D01*
X2746Y412D01*
X2748Y412D01*
X2748Y414D01*
X2750Y414D01*
X2750Y416D01*
X2752Y416D01*
X2752Y418D01*
X2754Y418D01*
X2754Y420D01*
X2756Y420D01*
X2756Y422D01*
X2760Y422D01*
X2760Y424D01*
X2762Y424D01*
X2762Y426D01*
X2764Y426D01*
X2764Y428D01*
X2766Y428D01*
X2766Y544D01*
X2768Y544D01*
X2768Y554D01*
X2770Y554D01*
X2770Y558D01*
X2772Y558D01*
X2772Y562D01*
X2774Y562D01*
X2774Y566D01*
X2776Y566D01*
X2776Y570D01*
X2778Y570D01*
X2778Y572D01*
X2780Y572D01*
X2780Y576D01*
X2782Y576D01*
X2782Y578D01*
X2784Y578D01*
X2784Y580D01*
X2786Y580D01*
X2786Y582D01*
X2788Y582D01*
X2788Y584D01*
X2790Y584D01*
X2790Y586D01*
X2792Y586D01*
X2792Y588D01*
X2794Y588D01*
X2794Y708D01*
X2792Y708D01*
X2792Y764D01*
X2128Y764D01*
G37*
D02*
G36*
X778Y698D02*
X778Y684D01*
X820Y684D01*
X820Y686D01*
X814Y686D01*
X814Y688D01*
X810Y688D01*
X810Y690D01*
X806Y690D01*
X806Y692D01*
X804Y692D01*
X804Y694D01*
X802Y694D01*
X802Y696D01*
X798Y696D01*
X798Y698D01*
X778Y698D01*
G37*
D02*
G36*
X862Y692D02*
X862Y690D01*
X858Y690D01*
X858Y688D01*
X854Y688D01*
X854Y686D01*
X848Y686D01*
X848Y684D01*
X882Y684D01*
X882Y692D01*
X862Y692D01*
G37*
D02*
G36*
X778Y684D02*
X778Y682D01*
X882Y682D01*
X882Y684D01*
X778Y684D01*
G37*
D02*
G36*
X778Y684D02*
X778Y682D01*
X882Y682D01*
X882Y684D01*
X778Y684D01*
G37*
D02*
G36*
X778Y682D02*
X778Y620D01*
X776Y620D01*
X776Y614D01*
X774Y614D01*
X774Y610D01*
X772Y610D01*
X772Y608D01*
X770Y608D01*
X770Y604D01*
X768Y604D01*
X768Y602D01*
X766Y602D01*
X766Y600D01*
X764Y600D01*
X764Y598D01*
X760Y598D01*
X760Y596D01*
X756Y596D01*
X756Y594D01*
X750Y594D01*
X750Y592D01*
X704Y592D01*
X704Y590D01*
X598Y590D01*
X598Y588D01*
X592Y588D01*
X592Y586D01*
X590Y586D01*
X590Y584D01*
X588Y584D01*
X588Y582D01*
X586Y582D01*
X586Y580D01*
X584Y580D01*
X584Y578D01*
X580Y578D01*
X580Y576D01*
X578Y576D01*
X578Y574D01*
X576Y574D01*
X576Y572D01*
X572Y572D01*
X572Y570D01*
X568Y570D01*
X568Y568D01*
X564Y568D01*
X564Y566D01*
X560Y566D01*
X560Y564D01*
X552Y564D01*
X552Y562D01*
X924Y562D01*
X924Y564D01*
X916Y564D01*
X916Y566D01*
X910Y566D01*
X910Y568D01*
X906Y568D01*
X906Y570D01*
X904Y570D01*
X904Y572D01*
X900Y572D01*
X900Y574D01*
X898Y574D01*
X898Y576D01*
X894Y576D01*
X894Y578D01*
X892Y578D01*
X892Y580D01*
X890Y580D01*
X890Y582D01*
X888Y582D01*
X888Y584D01*
X886Y584D01*
X886Y586D01*
X884Y586D01*
X884Y588D01*
X882Y588D01*
X882Y592D01*
X880Y592D01*
X880Y594D01*
X878Y594D01*
X878Y596D01*
X876Y596D01*
X876Y600D01*
X874Y600D01*
X874Y604D01*
X872Y604D01*
X872Y610D01*
X870Y610D01*
X870Y618D01*
X868Y618D01*
X868Y646D01*
X870Y646D01*
X870Y654D01*
X872Y654D01*
X872Y660D01*
X874Y660D01*
X874Y664D01*
X876Y664D01*
X876Y668D01*
X878Y668D01*
X878Y670D01*
X880Y670D01*
X880Y672D01*
X882Y672D01*
X882Y682D01*
X778Y682D01*
G37*
D02*
G36*
X1878Y606D02*
X1878Y596D01*
X1898Y596D01*
X1898Y598D01*
X1900Y598D01*
X1900Y600D01*
X1904Y600D01*
X1904Y602D01*
X1908Y602D01*
X1908Y604D01*
X1914Y604D01*
X1914Y606D01*
X1878Y606D01*
G37*
D02*
G36*
X1954Y606D02*
X1954Y604D01*
X1960Y604D01*
X1960Y602D01*
X1964Y602D01*
X1964Y600D01*
X1968Y600D01*
X1968Y598D01*
X1972Y598D01*
X1972Y596D01*
X1974Y596D01*
X1974Y594D01*
X1994Y594D01*
X1994Y596D01*
X1998Y596D01*
X1998Y598D01*
X2000Y598D01*
X2000Y600D01*
X2004Y600D01*
X2004Y602D01*
X2008Y602D01*
X2008Y604D01*
X2014Y604D01*
X2014Y606D01*
X1954Y606D01*
G37*
D02*
G36*
X2054Y606D02*
X2054Y604D01*
X2060Y604D01*
X2060Y602D01*
X2064Y602D01*
X2064Y600D01*
X2068Y600D01*
X2068Y598D01*
X2072Y598D01*
X2072Y596D01*
X2074Y596D01*
X2074Y594D01*
X2094Y594D01*
X2094Y596D01*
X2098Y596D01*
X2098Y598D01*
X2100Y598D01*
X2100Y600D01*
X2104Y600D01*
X2104Y602D01*
X2108Y602D01*
X2108Y604D01*
X2114Y604D01*
X2114Y606D01*
X2054Y606D01*
G37*
D02*
G36*
X2154Y606D02*
X2154Y604D01*
X2160Y604D01*
X2160Y602D01*
X2164Y602D01*
X2164Y600D01*
X2168Y600D01*
X2168Y598D01*
X2172Y598D01*
X2172Y596D01*
X2174Y596D01*
X2174Y594D01*
X2194Y594D01*
X2194Y596D01*
X2198Y596D01*
X2198Y598D01*
X2200Y598D01*
X2200Y600D01*
X2204Y600D01*
X2204Y602D01*
X2208Y602D01*
X2208Y604D01*
X2214Y604D01*
X2214Y606D01*
X2154Y606D01*
G37*
D02*
G36*
X2254Y606D02*
X2254Y604D01*
X2260Y604D01*
X2260Y602D01*
X2264Y602D01*
X2264Y600D01*
X2268Y600D01*
X2268Y598D01*
X2272Y598D01*
X2272Y596D01*
X2274Y596D01*
X2274Y594D01*
X2294Y594D01*
X2294Y596D01*
X2298Y596D01*
X2298Y598D01*
X2300Y598D01*
X2300Y600D01*
X2304Y600D01*
X2304Y602D01*
X2308Y602D01*
X2308Y604D01*
X2314Y604D01*
X2314Y606D01*
X2254Y606D01*
G37*
D02*
G36*
X2354Y606D02*
X2354Y604D01*
X2360Y604D01*
X2360Y602D01*
X2364Y602D01*
X2364Y600D01*
X2368Y600D01*
X2368Y598D01*
X2372Y598D01*
X2372Y596D01*
X2374Y596D01*
X2374Y594D01*
X2394Y594D01*
X2394Y596D01*
X2398Y596D01*
X2398Y598D01*
X2400Y598D01*
X2400Y600D01*
X2404Y600D01*
X2404Y602D01*
X2408Y602D01*
X2408Y604D01*
X2414Y604D01*
X2414Y606D01*
X2354Y606D01*
G37*
D02*
G36*
X2454Y606D02*
X2454Y604D01*
X2460Y604D01*
X2460Y602D01*
X2464Y602D01*
X2464Y600D01*
X2468Y600D01*
X2468Y598D01*
X2472Y598D01*
X2472Y596D01*
X2474Y596D01*
X2474Y594D01*
X2494Y594D01*
X2494Y596D01*
X2498Y596D01*
X2498Y598D01*
X2500Y598D01*
X2500Y600D01*
X2504Y600D01*
X2504Y602D01*
X2508Y602D01*
X2508Y604D01*
X2514Y604D01*
X2514Y606D01*
X2454Y606D01*
G37*
D02*
G36*
X2554Y606D02*
X2554Y604D01*
X2560Y604D01*
X2560Y602D01*
X2564Y602D01*
X2564Y600D01*
X2568Y600D01*
X2568Y598D01*
X2572Y598D01*
X2572Y596D01*
X2574Y596D01*
X2574Y594D01*
X2594Y594D01*
X2594Y596D01*
X2598Y596D01*
X2598Y598D01*
X2600Y598D01*
X2600Y600D01*
X2604Y600D01*
X2604Y602D01*
X2608Y602D01*
X2608Y604D01*
X2614Y604D01*
X2614Y606D01*
X2554Y606D01*
G37*
D02*
G36*
X1424Y592D02*
X1424Y590D01*
X1408Y590D01*
X1408Y564D01*
X1406Y564D01*
X1406Y562D01*
X1210Y562D01*
X1210Y560D01*
X1464Y560D01*
X1464Y592D01*
X1424Y592D01*
G37*
D02*
G36*
X478Y576D02*
X478Y574D01*
X476Y574D01*
X476Y572D01*
X472Y572D01*
X472Y570D01*
X468Y570D01*
X468Y568D01*
X464Y568D01*
X464Y566D01*
X460Y566D01*
X460Y564D01*
X452Y564D01*
X452Y562D01*
X524Y562D01*
X524Y564D01*
X516Y564D01*
X516Y566D01*
X510Y566D01*
X510Y568D01*
X506Y568D01*
X506Y570D01*
X504Y570D01*
X504Y572D01*
X500Y572D01*
X500Y574D01*
X498Y574D01*
X498Y576D01*
X478Y576D01*
G37*
D02*
G36*
X1678Y566D02*
X1678Y420D01*
X1676Y420D01*
X1676Y414D01*
X1674Y414D01*
X1674Y410D01*
X1672Y410D01*
X1672Y408D01*
X1670Y408D01*
X1670Y404D01*
X1668Y404D01*
X1668Y402D01*
X1666Y402D01*
X1666Y400D01*
X1664Y400D01*
X1664Y398D01*
X1660Y398D01*
X1660Y396D01*
X1656Y396D01*
X1656Y394D01*
X1650Y394D01*
X1650Y392D01*
X1588Y392D01*
X1588Y390D01*
X1586Y390D01*
X1586Y388D01*
X1584Y388D01*
X1584Y386D01*
X1582Y386D01*
X1582Y384D01*
X1580Y384D01*
X1580Y382D01*
X1578Y382D01*
X1578Y380D01*
X1574Y380D01*
X1574Y378D01*
X1572Y378D01*
X1572Y376D01*
X1570Y376D01*
X1570Y374D01*
X1566Y374D01*
X1566Y372D01*
X1562Y372D01*
X1562Y370D01*
X1556Y370D01*
X1556Y368D01*
X1550Y368D01*
X1550Y366D01*
X1790Y366D01*
X1790Y566D01*
X1678Y566D01*
G37*
D02*
G36*
X228Y562D02*
X228Y560D01*
X1064Y560D01*
X1064Y562D01*
X228Y562D01*
G37*
D02*
G36*
X228Y562D02*
X228Y560D01*
X1064Y560D01*
X1064Y562D01*
X228Y562D01*
G37*
D02*
G36*
X228Y562D02*
X228Y560D01*
X1064Y560D01*
X1064Y562D01*
X228Y562D01*
G37*
D02*
G36*
X228Y562D02*
X228Y560D01*
X1064Y560D01*
X1064Y562D01*
X228Y562D01*
G37*
D02*
G36*
X224Y560D02*
X224Y558D01*
X1464Y558D01*
X1464Y560D01*
X224Y560D01*
G37*
D02*
G36*
X224Y560D02*
X224Y558D01*
X1464Y558D01*
X1464Y560D01*
X224Y560D01*
G37*
D02*
G36*
X218Y558D02*
X218Y556D01*
X212Y556D01*
X212Y554D01*
X1464Y554D01*
X1464Y558D01*
X218Y558D01*
G37*
D02*
G36*
X44Y554D02*
X44Y552D01*
X1464Y552D01*
X1464Y554D01*
X44Y554D01*
G37*
D02*
G36*
X44Y554D02*
X44Y552D01*
X1464Y552D01*
X1464Y554D01*
X44Y554D01*
G37*
D02*
G36*
X44Y552D02*
X44Y474D01*
X266Y474D01*
X266Y406D01*
X1158Y406D01*
X1158Y404D01*
X1164Y404D01*
X1164Y402D01*
X1168Y402D01*
X1168Y400D01*
X1172Y400D01*
X1172Y398D01*
X1176Y398D01*
X1176Y396D01*
X1178Y396D01*
X1178Y394D01*
X1182Y394D01*
X1182Y392D01*
X1184Y392D01*
X1184Y390D01*
X1186Y390D01*
X1186Y388D01*
X1188Y388D01*
X1188Y386D01*
X1190Y386D01*
X1190Y384D01*
X1192Y384D01*
X1192Y382D01*
X1194Y382D01*
X1194Y380D01*
X1196Y380D01*
X1196Y378D01*
X1198Y378D01*
X1198Y374D01*
X1200Y374D01*
X1200Y372D01*
X1202Y372D01*
X1202Y368D01*
X1204Y368D01*
X1204Y366D01*
X1520Y366D01*
X1520Y368D01*
X1512Y368D01*
X1512Y370D01*
X1506Y370D01*
X1506Y372D01*
X1502Y372D01*
X1502Y374D01*
X1498Y374D01*
X1498Y376D01*
X1496Y376D01*
X1496Y378D01*
X1494Y378D01*
X1494Y380D01*
X1490Y380D01*
X1490Y382D01*
X1488Y382D01*
X1488Y384D01*
X1486Y384D01*
X1486Y386D01*
X1484Y386D01*
X1484Y388D01*
X1482Y388D01*
X1482Y390D01*
X1480Y390D01*
X1480Y392D01*
X1478Y392D01*
X1478Y396D01*
X1476Y396D01*
X1476Y398D01*
X1474Y398D01*
X1474Y402D01*
X1472Y402D01*
X1472Y404D01*
X1470Y404D01*
X1470Y408D01*
X1468Y408D01*
X1468Y414D01*
X1466Y414D01*
X1466Y422D01*
X1464Y422D01*
X1464Y448D01*
X1466Y448D01*
X1466Y458D01*
X1468Y458D01*
X1468Y462D01*
X1470Y462D01*
X1470Y466D01*
X1472Y466D01*
X1472Y470D01*
X1474Y470D01*
X1474Y474D01*
X1476Y474D01*
X1476Y476D01*
X1478Y476D01*
X1478Y496D01*
X1476Y496D01*
X1476Y498D01*
X1474Y498D01*
X1474Y502D01*
X1472Y502D01*
X1472Y504D01*
X1470Y504D01*
X1470Y508D01*
X1468Y508D01*
X1468Y514D01*
X1466Y514D01*
X1466Y522D01*
X1464Y522D01*
X1464Y552D01*
X44Y552D01*
G37*
D02*
G36*
X44Y474D02*
X44Y42D01*
X160Y42D01*
X160Y62D01*
X158Y62D01*
X158Y64D01*
X154Y64D01*
X154Y66D01*
X152Y66D01*
X152Y68D01*
X150Y68D01*
X150Y70D01*
X146Y70D01*
X146Y72D01*
X144Y72D01*
X144Y74D01*
X142Y74D01*
X142Y76D01*
X140Y76D01*
X140Y78D01*
X138Y78D01*
X138Y82D01*
X136Y82D01*
X136Y84D01*
X134Y84D01*
X134Y86D01*
X132Y86D01*
X132Y90D01*
X130Y90D01*
X130Y94D01*
X128Y94D01*
X128Y98D01*
X126Y98D01*
X126Y102D01*
X124Y102D01*
X124Y110D01*
X122Y110D01*
X122Y142D01*
X124Y142D01*
X124Y150D01*
X126Y150D01*
X126Y154D01*
X128Y154D01*
X128Y158D01*
X130Y158D01*
X130Y162D01*
X132Y162D01*
X132Y164D01*
X134Y164D01*
X134Y168D01*
X136Y168D01*
X136Y170D01*
X138Y170D01*
X138Y172D01*
X140Y172D01*
X140Y174D01*
X142Y174D01*
X142Y176D01*
X144Y176D01*
X144Y178D01*
X146Y178D01*
X146Y180D01*
X148Y180D01*
X148Y182D01*
X150Y182D01*
X150Y184D01*
X152Y184D01*
X152Y206D01*
X148Y206D01*
X148Y208D01*
X146Y208D01*
X146Y210D01*
X144Y210D01*
X144Y212D01*
X142Y212D01*
X142Y214D01*
X140Y214D01*
X140Y216D01*
X138Y216D01*
X138Y218D01*
X136Y218D01*
X136Y222D01*
X134Y222D01*
X134Y224D01*
X132Y224D01*
X132Y228D01*
X130Y228D01*
X130Y230D01*
X128Y230D01*
X128Y236D01*
X126Y236D01*
X126Y240D01*
X124Y240D01*
X124Y248D01*
X122Y248D01*
X122Y280D01*
X124Y280D01*
X124Y288D01*
X126Y288D01*
X126Y292D01*
X128Y292D01*
X128Y296D01*
X130Y296D01*
X130Y300D01*
X132Y300D01*
X132Y302D01*
X134Y302D01*
X134Y306D01*
X136Y306D01*
X136Y308D01*
X138Y308D01*
X138Y310D01*
X140Y310D01*
X140Y330D01*
X122Y330D01*
X122Y474D01*
X44Y474D01*
G37*
D02*
G36*
X266Y406D02*
X266Y402D01*
X952Y402D01*
X952Y400D01*
X960Y400D01*
X960Y398D01*
X964Y398D01*
X964Y396D01*
X968Y396D01*
X968Y394D01*
X972Y394D01*
X972Y392D01*
X976Y392D01*
X976Y390D01*
X978Y390D01*
X978Y388D01*
X980Y388D01*
X980Y386D01*
X984Y386D01*
X984Y384D01*
X986Y384D01*
X986Y382D01*
X988Y382D01*
X988Y380D01*
X990Y380D01*
X990Y378D01*
X992Y378D01*
X992Y374D01*
X994Y374D01*
X994Y372D01*
X996Y372D01*
X996Y370D01*
X998Y370D01*
X998Y366D01*
X1000Y366D01*
X1000Y362D01*
X1002Y362D01*
X1002Y358D01*
X1004Y358D01*
X1004Y352D01*
X1006Y352D01*
X1006Y344D01*
X1008Y344D01*
X1008Y320D01*
X1006Y320D01*
X1006Y312D01*
X1004Y312D01*
X1004Y306D01*
X1002Y306D01*
X1002Y302D01*
X1000Y302D01*
X1000Y298D01*
X998Y298D01*
X998Y294D01*
X996Y294D01*
X996Y292D01*
X994Y292D01*
X994Y290D01*
X992Y290D01*
X992Y286D01*
X990Y286D01*
X990Y284D01*
X988Y284D01*
X988Y282D01*
X986Y282D01*
X986Y280D01*
X984Y280D01*
X984Y278D01*
X980Y278D01*
X980Y276D01*
X978Y276D01*
X978Y274D01*
X976Y274D01*
X976Y272D01*
X972Y272D01*
X972Y270D01*
X968Y270D01*
X968Y268D01*
X964Y268D01*
X964Y266D01*
X960Y266D01*
X960Y264D01*
X952Y264D01*
X952Y262D01*
X1118Y262D01*
X1118Y264D01*
X1112Y264D01*
X1112Y266D01*
X1106Y266D01*
X1106Y268D01*
X1104Y268D01*
X1104Y270D01*
X1100Y270D01*
X1100Y272D01*
X1096Y272D01*
X1096Y274D01*
X1094Y274D01*
X1094Y276D01*
X1092Y276D01*
X1092Y278D01*
X1090Y278D01*
X1090Y280D01*
X1088Y280D01*
X1088Y282D01*
X1086Y282D01*
X1086Y284D01*
X1084Y284D01*
X1084Y286D01*
X1082Y286D01*
X1082Y288D01*
X1080Y288D01*
X1080Y290D01*
X1078Y290D01*
X1078Y292D01*
X1076Y292D01*
X1076Y296D01*
X1074Y296D01*
X1074Y298D01*
X1072Y298D01*
X1072Y302D01*
X1070Y302D01*
X1070Y306D01*
X1068Y306D01*
X1068Y312D01*
X1066Y312D01*
X1066Y322D01*
X1064Y322D01*
X1064Y346D01*
X1066Y346D01*
X1066Y356D01*
X1068Y356D01*
X1068Y362D01*
X1070Y362D01*
X1070Y366D01*
X1072Y366D01*
X1072Y370D01*
X1074Y370D01*
X1074Y372D01*
X1076Y372D01*
X1076Y376D01*
X1078Y376D01*
X1078Y378D01*
X1080Y378D01*
X1080Y380D01*
X1082Y380D01*
X1082Y382D01*
X1084Y382D01*
X1084Y384D01*
X1086Y384D01*
X1086Y386D01*
X1088Y386D01*
X1088Y388D01*
X1090Y388D01*
X1090Y390D01*
X1092Y390D01*
X1092Y392D01*
X1094Y392D01*
X1094Y394D01*
X1096Y394D01*
X1096Y396D01*
X1100Y396D01*
X1100Y398D01*
X1104Y398D01*
X1104Y400D01*
X1106Y400D01*
X1106Y402D01*
X1112Y402D01*
X1112Y404D01*
X1118Y404D01*
X1118Y406D01*
X266Y406D01*
G37*
D02*
G36*
X266Y402D02*
X266Y330D01*
X248Y330D01*
X248Y310D01*
X250Y310D01*
X250Y308D01*
X252Y308D01*
X252Y306D01*
X254Y306D01*
X254Y302D01*
X256Y302D01*
X256Y300D01*
X258Y300D01*
X258Y296D01*
X260Y296D01*
X260Y292D01*
X262Y292D01*
X262Y288D01*
X264Y288D01*
X264Y280D01*
X266Y280D01*
X266Y262D01*
X368Y262D01*
X368Y402D01*
X266Y402D01*
G37*
D02*
G36*
X552Y402D02*
X552Y400D01*
X560Y400D01*
X560Y398D01*
X564Y398D01*
X564Y396D01*
X568Y396D01*
X568Y394D01*
X572Y394D01*
X572Y392D01*
X576Y392D01*
X576Y390D01*
X578Y390D01*
X578Y388D01*
X580Y388D01*
X580Y386D01*
X584Y386D01*
X584Y384D01*
X586Y384D01*
X586Y382D01*
X588Y382D01*
X588Y380D01*
X590Y380D01*
X590Y378D01*
X592Y378D01*
X592Y374D01*
X594Y374D01*
X594Y372D01*
X596Y372D01*
X596Y370D01*
X598Y370D01*
X598Y366D01*
X600Y366D01*
X600Y362D01*
X602Y362D01*
X602Y358D01*
X604Y358D01*
X604Y352D01*
X606Y352D01*
X606Y344D01*
X608Y344D01*
X608Y320D01*
X606Y320D01*
X606Y312D01*
X604Y312D01*
X604Y306D01*
X602Y306D01*
X602Y302D01*
X600Y302D01*
X600Y298D01*
X598Y298D01*
X598Y294D01*
X596Y294D01*
X596Y292D01*
X594Y292D01*
X594Y290D01*
X592Y290D01*
X592Y286D01*
X590Y286D01*
X590Y284D01*
X588Y284D01*
X588Y282D01*
X586Y282D01*
X586Y280D01*
X584Y280D01*
X584Y278D01*
X580Y278D01*
X580Y276D01*
X578Y276D01*
X578Y274D01*
X576Y274D01*
X576Y272D01*
X572Y272D01*
X572Y270D01*
X568Y270D01*
X568Y268D01*
X564Y268D01*
X564Y266D01*
X560Y266D01*
X560Y264D01*
X552Y264D01*
X552Y262D01*
X924Y262D01*
X924Y264D01*
X916Y264D01*
X916Y266D01*
X910Y266D01*
X910Y268D01*
X906Y268D01*
X906Y270D01*
X904Y270D01*
X904Y272D01*
X900Y272D01*
X900Y274D01*
X898Y274D01*
X898Y276D01*
X894Y276D01*
X894Y278D01*
X892Y278D01*
X892Y280D01*
X890Y280D01*
X890Y282D01*
X888Y282D01*
X888Y284D01*
X886Y284D01*
X886Y286D01*
X884Y286D01*
X884Y288D01*
X882Y288D01*
X882Y292D01*
X880Y292D01*
X880Y294D01*
X878Y294D01*
X878Y296D01*
X876Y296D01*
X876Y300D01*
X874Y300D01*
X874Y304D01*
X872Y304D01*
X872Y310D01*
X870Y310D01*
X870Y316D01*
X868Y316D01*
X868Y346D01*
X870Y346D01*
X870Y354D01*
X872Y354D01*
X872Y360D01*
X874Y360D01*
X874Y364D01*
X876Y364D01*
X876Y368D01*
X878Y368D01*
X878Y370D01*
X880Y370D01*
X880Y372D01*
X882Y372D01*
X882Y376D01*
X884Y376D01*
X884Y378D01*
X886Y378D01*
X886Y380D01*
X888Y380D01*
X888Y382D01*
X890Y382D01*
X890Y384D01*
X892Y384D01*
X892Y386D01*
X894Y386D01*
X894Y388D01*
X898Y388D01*
X898Y390D01*
X900Y390D01*
X900Y392D01*
X904Y392D01*
X904Y394D01*
X906Y394D01*
X906Y396D01*
X910Y396D01*
X910Y398D01*
X916Y398D01*
X916Y400D01*
X924Y400D01*
X924Y402D01*
X552Y402D01*
G37*
D02*
G36*
X1204Y366D02*
X1204Y364D01*
X1790Y364D01*
X1790Y366D01*
X1204Y366D01*
G37*
D02*
G36*
X1204Y366D02*
X1204Y364D01*
X1790Y364D01*
X1790Y366D01*
X1204Y366D01*
G37*
D02*
G36*
X1206Y364D02*
X1206Y360D01*
X1208Y360D01*
X1208Y354D01*
X1210Y354D01*
X1210Y314D01*
X1208Y314D01*
X1208Y308D01*
X1206Y308D01*
X1206Y304D01*
X1204Y304D01*
X1204Y302D01*
X1352Y302D01*
X1352Y300D01*
X1360Y300D01*
X1360Y298D01*
X1364Y298D01*
X1364Y296D01*
X1368Y296D01*
X1368Y294D01*
X1372Y294D01*
X1372Y292D01*
X1376Y292D01*
X1376Y290D01*
X1378Y290D01*
X1378Y288D01*
X1380Y288D01*
X1380Y286D01*
X1384Y286D01*
X1384Y284D01*
X1386Y284D01*
X1386Y282D01*
X1388Y282D01*
X1388Y280D01*
X1390Y280D01*
X1390Y278D01*
X1392Y278D01*
X1392Y276D01*
X1414Y276D01*
X1414Y278D01*
X1420Y278D01*
X1420Y280D01*
X1790Y280D01*
X1790Y364D01*
X1206Y364D01*
G37*
D02*
G36*
X1204Y302D02*
X1204Y300D01*
X1202Y300D01*
X1202Y296D01*
X1200Y296D01*
X1200Y294D01*
X1198Y294D01*
X1198Y290D01*
X1196Y290D01*
X1196Y288D01*
X1194Y288D01*
X1194Y286D01*
X1192Y286D01*
X1192Y284D01*
X1190Y284D01*
X1190Y282D01*
X1188Y282D01*
X1188Y280D01*
X1186Y280D01*
X1186Y278D01*
X1184Y278D01*
X1184Y276D01*
X1182Y276D01*
X1182Y274D01*
X1178Y274D01*
X1178Y272D01*
X1176Y272D01*
X1176Y270D01*
X1172Y270D01*
X1172Y268D01*
X1168Y268D01*
X1168Y266D01*
X1164Y266D01*
X1164Y264D01*
X1158Y264D01*
X1158Y262D01*
X1274Y262D01*
X1274Y264D01*
X1276Y264D01*
X1276Y268D01*
X1278Y268D01*
X1278Y270D01*
X1280Y270D01*
X1280Y272D01*
X1282Y272D01*
X1282Y276D01*
X1284Y276D01*
X1284Y278D01*
X1286Y278D01*
X1286Y280D01*
X1288Y280D01*
X1288Y282D01*
X1290Y282D01*
X1290Y284D01*
X1292Y284D01*
X1292Y286D01*
X1294Y286D01*
X1294Y288D01*
X1298Y288D01*
X1298Y290D01*
X1300Y290D01*
X1300Y292D01*
X1304Y292D01*
X1304Y294D01*
X1306Y294D01*
X1306Y296D01*
X1310Y296D01*
X1310Y298D01*
X1316Y298D01*
X1316Y300D01*
X1324Y300D01*
X1324Y302D01*
X1204Y302D01*
G37*
D02*
G36*
X266Y262D02*
X266Y260D01*
X1274Y260D01*
X1274Y262D01*
X266Y262D01*
G37*
D02*
G36*
X266Y262D02*
X266Y260D01*
X1274Y260D01*
X1274Y262D01*
X266Y262D01*
G37*
D02*
G36*
X266Y262D02*
X266Y260D01*
X1274Y260D01*
X1274Y262D01*
X266Y262D01*
G37*
D02*
G36*
X266Y262D02*
X266Y260D01*
X1274Y260D01*
X1274Y262D01*
X266Y262D01*
G37*
D02*
G36*
X266Y260D02*
X266Y246D01*
X264Y246D01*
X264Y240D01*
X262Y240D01*
X262Y234D01*
X260Y234D01*
X260Y230D01*
X258Y230D01*
X258Y228D01*
X256Y228D01*
X256Y224D01*
X254Y224D01*
X254Y222D01*
X252Y222D01*
X252Y218D01*
X250Y218D01*
X250Y216D01*
X248Y216D01*
X248Y214D01*
X246Y214D01*
X246Y212D01*
X244Y212D01*
X244Y210D01*
X242Y210D01*
X242Y208D01*
X240Y208D01*
X240Y206D01*
X236Y206D01*
X236Y184D01*
X238Y184D01*
X238Y182D01*
X240Y182D01*
X240Y180D01*
X244Y180D01*
X244Y178D01*
X246Y178D01*
X246Y176D01*
X248Y176D01*
X248Y172D01*
X250Y172D01*
X250Y170D01*
X252Y170D01*
X252Y168D01*
X254Y168D01*
X254Y166D01*
X256Y166D01*
X256Y162D01*
X258Y162D01*
X258Y158D01*
X260Y158D01*
X260Y154D01*
X262Y154D01*
X262Y150D01*
X264Y150D01*
X264Y142D01*
X266Y142D01*
X266Y110D01*
X264Y110D01*
X264Y102D01*
X262Y102D01*
X262Y98D01*
X260Y98D01*
X260Y94D01*
X258Y94D01*
X258Y90D01*
X256Y90D01*
X256Y86D01*
X254Y86D01*
X254Y84D01*
X252Y84D01*
X252Y82D01*
X250Y82D01*
X250Y78D01*
X248Y78D01*
X248Y76D01*
X246Y76D01*
X246Y74D01*
X244Y74D01*
X244Y72D01*
X242Y72D01*
X242Y70D01*
X240Y70D01*
X240Y68D01*
X236Y68D01*
X236Y66D01*
X234Y66D01*
X234Y64D01*
X230Y64D01*
X230Y62D01*
X1224Y62D01*
X1224Y64D01*
X1216Y64D01*
X1216Y66D01*
X1210Y66D01*
X1210Y68D01*
X1206Y68D01*
X1206Y70D01*
X1204Y70D01*
X1204Y72D01*
X1200Y72D01*
X1200Y74D01*
X1198Y74D01*
X1198Y76D01*
X1194Y76D01*
X1194Y78D01*
X1192Y78D01*
X1192Y80D01*
X1190Y80D01*
X1190Y82D01*
X1188Y82D01*
X1188Y84D01*
X1186Y84D01*
X1186Y86D01*
X1184Y86D01*
X1184Y88D01*
X1182Y88D01*
X1182Y92D01*
X1180Y92D01*
X1180Y94D01*
X1178Y94D01*
X1178Y96D01*
X1176Y96D01*
X1176Y100D01*
X1174Y100D01*
X1174Y104D01*
X1172Y104D01*
X1172Y110D01*
X1170Y110D01*
X1170Y116D01*
X1168Y116D01*
X1168Y148D01*
X1170Y148D01*
X1170Y154D01*
X1172Y154D01*
X1172Y160D01*
X1174Y160D01*
X1174Y164D01*
X1176Y164D01*
X1176Y168D01*
X1178Y168D01*
X1178Y170D01*
X1180Y170D01*
X1180Y172D01*
X1182Y172D01*
X1182Y176D01*
X1184Y176D01*
X1184Y178D01*
X1186Y178D01*
X1186Y180D01*
X1188Y180D01*
X1188Y182D01*
X1190Y182D01*
X1190Y184D01*
X1192Y184D01*
X1192Y186D01*
X1194Y186D01*
X1194Y188D01*
X1198Y188D01*
X1198Y190D01*
X1200Y190D01*
X1200Y192D01*
X1204Y192D01*
X1204Y194D01*
X1206Y194D01*
X1206Y196D01*
X1210Y196D01*
X1210Y198D01*
X1216Y198D01*
X1216Y200D01*
X1224Y200D01*
X1224Y202D01*
X1270Y202D01*
X1270Y218D01*
X1268Y218D01*
X1268Y246D01*
X1270Y246D01*
X1270Y254D01*
X1272Y254D01*
X1272Y260D01*
X266Y260D01*
G37*
D02*
G36*
X1278Y76D02*
X1278Y74D01*
X1276Y74D01*
X1276Y72D01*
X1272Y72D01*
X1272Y70D01*
X1268Y70D01*
X1268Y68D01*
X1264Y68D01*
X1264Y66D01*
X1260Y66D01*
X1260Y64D01*
X1252Y64D01*
X1252Y62D01*
X1324Y62D01*
X1324Y64D01*
X1316Y64D01*
X1316Y66D01*
X1310Y66D01*
X1310Y68D01*
X1306Y68D01*
X1306Y70D01*
X1304Y70D01*
X1304Y72D01*
X1300Y72D01*
X1300Y74D01*
X1298Y74D01*
X1298Y76D01*
X1278Y76D01*
G37*
D02*
G36*
X1378Y76D02*
X1378Y74D01*
X1376Y74D01*
X1376Y72D01*
X1372Y72D01*
X1372Y70D01*
X1368Y70D01*
X1368Y68D01*
X1364Y68D01*
X1364Y66D01*
X1360Y66D01*
X1360Y64D01*
X1352Y64D01*
X1352Y62D01*
X1424Y62D01*
X1424Y64D01*
X1416Y64D01*
X1416Y66D01*
X1410Y66D01*
X1410Y68D01*
X1406Y68D01*
X1406Y70D01*
X1404Y70D01*
X1404Y72D01*
X1400Y72D01*
X1400Y74D01*
X1398Y74D01*
X1398Y76D01*
X1378Y76D01*
G37*
D02*
G36*
X1478Y76D02*
X1478Y74D01*
X1476Y74D01*
X1476Y72D01*
X1472Y72D01*
X1472Y70D01*
X1468Y70D01*
X1468Y68D01*
X1464Y68D01*
X1464Y66D01*
X1460Y66D01*
X1460Y64D01*
X1452Y64D01*
X1452Y62D01*
X1524Y62D01*
X1524Y64D01*
X1516Y64D01*
X1516Y66D01*
X1510Y66D01*
X1510Y68D01*
X1506Y68D01*
X1506Y70D01*
X1504Y70D01*
X1504Y72D01*
X1500Y72D01*
X1500Y74D01*
X1498Y74D01*
X1498Y76D01*
X1478Y76D01*
G37*
D02*
G36*
X1572Y72D02*
X1572Y70D01*
X1568Y70D01*
X1568Y68D01*
X1564Y68D01*
X1564Y66D01*
X1560Y66D01*
X1560Y64D01*
X1552Y64D01*
X1552Y62D01*
X1594Y62D01*
X1594Y72D01*
X1572Y72D01*
G37*
D02*
G36*
X228Y62D02*
X228Y60D01*
X1594Y60D01*
X1594Y62D01*
X228Y62D01*
G37*
D02*
G36*
X228Y62D02*
X228Y60D01*
X1594Y60D01*
X1594Y62D01*
X228Y62D01*
G37*
D02*
G36*
X228Y62D02*
X228Y60D01*
X1594Y60D01*
X1594Y62D01*
X228Y62D01*
G37*
D02*
G36*
X228Y62D02*
X228Y60D01*
X1594Y60D01*
X1594Y62D01*
X228Y62D01*
G37*
D02*
G36*
X228Y62D02*
X228Y60D01*
X1594Y60D01*
X1594Y62D01*
X228Y62D01*
G37*
D02*
G36*
X228Y60D02*
X228Y42D01*
X1594Y42D01*
X1594Y60D01*
X228Y60D01*
G37*
D02*
G36*
X2878Y1492D02*
X2878Y1266D01*
X3020Y1266D01*
X3020Y1268D01*
X3012Y1268D01*
X3012Y1270D01*
X3006Y1270D01*
X3006Y1272D01*
X3002Y1272D01*
X3002Y1274D01*
X2998Y1274D01*
X2998Y1276D01*
X2996Y1276D01*
X2996Y1278D01*
X2994Y1278D01*
X2994Y1280D01*
X2990Y1280D01*
X2990Y1282D01*
X2988Y1282D01*
X2988Y1284D01*
X2986Y1284D01*
X2986Y1286D01*
X2984Y1286D01*
X2984Y1288D01*
X2982Y1288D01*
X2982Y1290D01*
X2980Y1290D01*
X2980Y1292D01*
X2978Y1292D01*
X2978Y1296D01*
X2976Y1296D01*
X2976Y1298D01*
X2974Y1298D01*
X2974Y1302D01*
X2972Y1302D01*
X2972Y1304D01*
X2970Y1304D01*
X2970Y1308D01*
X2968Y1308D01*
X2968Y1314D01*
X2966Y1314D01*
X2966Y1322D01*
X2964Y1322D01*
X2964Y1348D01*
X2966Y1348D01*
X2966Y1358D01*
X2968Y1358D01*
X2968Y1362D01*
X2970Y1362D01*
X2970Y1366D01*
X2972Y1366D01*
X2972Y1370D01*
X2974Y1370D01*
X2974Y1374D01*
X2976Y1374D01*
X2976Y1376D01*
X2978Y1376D01*
X2978Y1378D01*
X2980Y1378D01*
X2980Y1382D01*
X2982Y1382D01*
X2982Y1384D01*
X2984Y1384D01*
X2984Y1386D01*
X2986Y1386D01*
X2986Y1388D01*
X2988Y1388D01*
X2988Y1390D01*
X2990Y1390D01*
X2990Y1452D01*
X2992Y1452D01*
X2992Y1458D01*
X2994Y1458D01*
X2994Y1462D01*
X2996Y1462D01*
X2996Y1464D01*
X2998Y1464D01*
X2998Y1466D01*
X3000Y1466D01*
X3000Y1468D01*
X3002Y1468D01*
X3002Y1470D01*
X3004Y1470D01*
X3004Y1472D01*
X3006Y1472D01*
X3006Y1492D01*
X2878Y1492D01*
G37*
D02*
G36*
X3556Y1396D02*
X3556Y1394D01*
X3550Y1394D01*
X3550Y1392D01*
X3394Y1392D01*
X3394Y1370D01*
X3396Y1370D01*
X3396Y1366D01*
X3398Y1366D01*
X3398Y1362D01*
X3400Y1362D01*
X3400Y1358D01*
X3402Y1358D01*
X3402Y1350D01*
X3404Y1350D01*
X3404Y1322D01*
X3402Y1322D01*
X3402Y1314D01*
X3400Y1314D01*
X3400Y1308D01*
X3398Y1308D01*
X3398Y1304D01*
X3396Y1304D01*
X3396Y1302D01*
X3394Y1302D01*
X3394Y1298D01*
X3392Y1298D01*
X3392Y1296D01*
X3390Y1296D01*
X3390Y1292D01*
X3388Y1292D01*
X3388Y1290D01*
X3386Y1290D01*
X3386Y1288D01*
X3384Y1288D01*
X3384Y1286D01*
X3382Y1286D01*
X3382Y1284D01*
X3380Y1284D01*
X3380Y1282D01*
X3378Y1282D01*
X3378Y1280D01*
X3374Y1280D01*
X3374Y1278D01*
X3372Y1278D01*
X3372Y1276D01*
X3370Y1276D01*
X3370Y1274D01*
X3366Y1274D01*
X3366Y1272D01*
X3362Y1272D01*
X3362Y1270D01*
X3356Y1270D01*
X3356Y1268D01*
X3350Y1268D01*
X3350Y1266D01*
X3308Y1266D01*
X3308Y1164D01*
X3306Y1164D01*
X3306Y1162D01*
X3464Y1162D01*
X3464Y1204D01*
X3466Y1204D01*
X3466Y1206D01*
X3568Y1206D01*
X3568Y1246D01*
X3570Y1246D01*
X3570Y1254D01*
X3572Y1254D01*
X3572Y1260D01*
X3574Y1260D01*
X3574Y1264D01*
X3576Y1264D01*
X3576Y1268D01*
X3578Y1268D01*
X3578Y1270D01*
X3580Y1270D01*
X3580Y1272D01*
X3582Y1272D01*
X3582Y1292D01*
X3580Y1292D01*
X3580Y1294D01*
X3578Y1294D01*
X3578Y1298D01*
X3576Y1298D01*
X3576Y1300D01*
X3574Y1300D01*
X3574Y1304D01*
X3572Y1304D01*
X3572Y1310D01*
X3570Y1310D01*
X3570Y1318D01*
X3568Y1318D01*
X3568Y1346D01*
X3570Y1346D01*
X3570Y1354D01*
X3572Y1354D01*
X3572Y1360D01*
X3574Y1360D01*
X3574Y1364D01*
X3576Y1364D01*
X3576Y1368D01*
X3578Y1368D01*
X3578Y1370D01*
X3580Y1370D01*
X3580Y1372D01*
X3582Y1372D01*
X3582Y1392D01*
X3580Y1392D01*
X3580Y1394D01*
X3578Y1394D01*
X3578Y1396D01*
X3556Y1396D01*
G37*
D02*
G36*
X3074Y1280D02*
X3074Y1278D01*
X3072Y1278D01*
X3072Y1276D01*
X3070Y1276D01*
X3070Y1274D01*
X3066Y1274D01*
X3066Y1272D01*
X3062Y1272D01*
X3062Y1270D01*
X3056Y1270D01*
X3056Y1268D01*
X3050Y1268D01*
X3050Y1266D01*
X3120Y1266D01*
X3120Y1268D01*
X3112Y1268D01*
X3112Y1270D01*
X3106Y1270D01*
X3106Y1272D01*
X3102Y1272D01*
X3102Y1274D01*
X3098Y1274D01*
X3098Y1276D01*
X3096Y1276D01*
X3096Y1278D01*
X3094Y1278D01*
X3094Y1280D01*
X3074Y1280D01*
G37*
D02*
G36*
X2878Y1266D02*
X2878Y1264D01*
X3168Y1264D01*
X3168Y1266D01*
X2878Y1266D01*
G37*
D02*
G36*
X2878Y1266D02*
X2878Y1264D01*
X3168Y1264D01*
X3168Y1266D01*
X2878Y1266D01*
G37*
D02*
G36*
X2878Y1264D02*
X2878Y1214D01*
X2880Y1214D01*
X2880Y1204D01*
X3046Y1204D01*
X3046Y1202D01*
X3058Y1202D01*
X3058Y1200D01*
X3064Y1200D01*
X3064Y1198D01*
X3068Y1198D01*
X3068Y1196D01*
X3072Y1196D01*
X3072Y1194D01*
X3076Y1194D01*
X3076Y1192D01*
X3078Y1192D01*
X3078Y1190D01*
X3080Y1190D01*
X3080Y1188D01*
X3084Y1188D01*
X3084Y1186D01*
X3086Y1186D01*
X3086Y1184D01*
X3088Y1184D01*
X3088Y1182D01*
X3090Y1182D01*
X3090Y1180D01*
X3092Y1180D01*
X3092Y1178D01*
X3094Y1178D01*
X3094Y1174D01*
X3096Y1174D01*
X3096Y1172D01*
X3098Y1172D01*
X3098Y1170D01*
X3100Y1170D01*
X3100Y1166D01*
X3102Y1166D01*
X3102Y1162D01*
X3168Y1162D01*
X3168Y1264D01*
X2878Y1264D01*
G37*
D02*
G36*
X2880Y1204D02*
X2880Y962D01*
X3018Y962D01*
X3018Y964D01*
X3012Y964D01*
X3012Y966D01*
X3008Y966D01*
X3008Y968D01*
X3004Y968D01*
X3004Y970D01*
X3000Y970D01*
X3000Y972D01*
X2998Y972D01*
X2998Y974D01*
X2994Y974D01*
X2994Y976D01*
X2992Y976D01*
X2992Y978D01*
X2990Y978D01*
X2990Y980D01*
X2988Y980D01*
X2988Y982D01*
X2986Y982D01*
X2986Y984D01*
X2984Y984D01*
X2984Y986D01*
X2982Y986D01*
X2982Y988D01*
X2980Y988D01*
X2980Y992D01*
X2978Y992D01*
X2978Y994D01*
X2976Y994D01*
X2976Y998D01*
X2974Y998D01*
X2974Y1002D01*
X2972Y1002D01*
X2972Y1006D01*
X2970Y1006D01*
X2970Y1010D01*
X2968Y1010D01*
X2968Y1020D01*
X2966Y1020D01*
X2966Y1044D01*
X2968Y1044D01*
X2968Y1054D01*
X2970Y1054D01*
X2970Y1058D01*
X2972Y1058D01*
X2972Y1062D01*
X2974Y1062D01*
X2974Y1066D01*
X2976Y1066D01*
X2976Y1070D01*
X2978Y1070D01*
X2978Y1072D01*
X2980Y1072D01*
X2980Y1092D01*
X2978Y1092D01*
X2978Y1094D01*
X2976Y1094D01*
X2976Y1098D01*
X2974Y1098D01*
X2974Y1102D01*
X2972Y1102D01*
X2972Y1106D01*
X2970Y1106D01*
X2970Y1110D01*
X2968Y1110D01*
X2968Y1120D01*
X2966Y1120D01*
X2966Y1144D01*
X2968Y1144D01*
X2968Y1154D01*
X2970Y1154D01*
X2970Y1158D01*
X2972Y1158D01*
X2972Y1162D01*
X2974Y1162D01*
X2974Y1166D01*
X2976Y1166D01*
X2976Y1170D01*
X2978Y1170D01*
X2978Y1172D01*
X2980Y1172D01*
X2980Y1176D01*
X2982Y1176D01*
X2982Y1178D01*
X2984Y1178D01*
X2984Y1180D01*
X2986Y1180D01*
X2986Y1182D01*
X2988Y1182D01*
X2988Y1184D01*
X2990Y1184D01*
X2990Y1186D01*
X2992Y1186D01*
X2992Y1188D01*
X2994Y1188D01*
X2994Y1190D01*
X2998Y1190D01*
X2998Y1192D01*
X3000Y1192D01*
X3000Y1194D01*
X3004Y1194D01*
X3004Y1196D01*
X3008Y1196D01*
X3008Y1198D01*
X3012Y1198D01*
X3012Y1200D01*
X3018Y1200D01*
X3018Y1202D01*
X3030Y1202D01*
X3030Y1204D01*
X2880Y1204D01*
G37*
D02*
G36*
X3104Y1162D02*
X3104Y1160D01*
X3464Y1160D01*
X3464Y1162D01*
X3104Y1162D01*
G37*
D02*
G36*
X3104Y1162D02*
X3104Y1160D01*
X3464Y1160D01*
X3464Y1162D01*
X3104Y1162D01*
G37*
D02*
G36*
X3104Y1160D02*
X3104Y1158D01*
X3106Y1158D01*
X3106Y1152D01*
X3108Y1152D01*
X3108Y1112D01*
X3106Y1112D01*
X3106Y1106D01*
X3104Y1106D01*
X3104Y1102D01*
X3102Y1102D01*
X3102Y1098D01*
X3100Y1098D01*
X3100Y1094D01*
X3098Y1094D01*
X3098Y1092D01*
X3096Y1092D01*
X3096Y1072D01*
X3098Y1072D01*
X3098Y1070D01*
X3100Y1070D01*
X3100Y1066D01*
X3102Y1066D01*
X3102Y1062D01*
X3104Y1062D01*
X3104Y1058D01*
X3106Y1058D01*
X3106Y1052D01*
X3108Y1052D01*
X3108Y1012D01*
X3106Y1012D01*
X3106Y1006D01*
X3104Y1006D01*
X3104Y1002D01*
X3102Y1002D01*
X3102Y998D01*
X3100Y998D01*
X3100Y994D01*
X3098Y994D01*
X3098Y992D01*
X3096Y992D01*
X3096Y990D01*
X3094Y990D01*
X3094Y986D01*
X3092Y986D01*
X3092Y984D01*
X3090Y984D01*
X3090Y982D01*
X3088Y982D01*
X3088Y980D01*
X3086Y980D01*
X3086Y978D01*
X3084Y978D01*
X3084Y976D01*
X3080Y976D01*
X3080Y974D01*
X3078Y974D01*
X3078Y972D01*
X3076Y972D01*
X3076Y970D01*
X3072Y970D01*
X3072Y968D01*
X3068Y968D01*
X3068Y966D01*
X3064Y966D01*
X3064Y964D01*
X3058Y964D01*
X3058Y962D01*
X3574Y962D01*
X3574Y964D01*
X3576Y964D01*
X3576Y968D01*
X3578Y968D01*
X3578Y970D01*
X3580Y970D01*
X3580Y972D01*
X3582Y972D01*
X3582Y992D01*
X3580Y992D01*
X3580Y994D01*
X3578Y994D01*
X3578Y996D01*
X3576Y996D01*
X3576Y1000D01*
X3574Y1000D01*
X3574Y1004D01*
X3572Y1004D01*
X3572Y1010D01*
X3570Y1010D01*
X3570Y1018D01*
X3568Y1018D01*
X3568Y1046D01*
X3570Y1046D01*
X3570Y1066D01*
X3464Y1066D01*
X3464Y1160D01*
X3104Y1160D01*
G37*
D02*
G36*
X2880Y962D02*
X2880Y960D01*
X3574Y960D01*
X3574Y962D01*
X2880Y962D01*
G37*
D02*
G36*
X2880Y962D02*
X2880Y960D01*
X3574Y960D01*
X3574Y962D01*
X2880Y962D01*
G37*
D02*
G36*
X2880Y960D02*
X2880Y902D01*
X3252Y902D01*
X3252Y900D01*
X3260Y900D01*
X3260Y898D01*
X3264Y898D01*
X3264Y896D01*
X3268Y896D01*
X3268Y894D01*
X3272Y894D01*
X3272Y892D01*
X3276Y892D01*
X3276Y890D01*
X3278Y890D01*
X3278Y888D01*
X3280Y888D01*
X3280Y886D01*
X3284Y886D01*
X3284Y884D01*
X3286Y884D01*
X3286Y882D01*
X3288Y882D01*
X3288Y880D01*
X3290Y880D01*
X3290Y878D01*
X3292Y878D01*
X3292Y874D01*
X3294Y874D01*
X3294Y872D01*
X3296Y872D01*
X3296Y870D01*
X3298Y870D01*
X3298Y866D01*
X3300Y866D01*
X3300Y862D01*
X3302Y862D01*
X3302Y858D01*
X3304Y858D01*
X3304Y854D01*
X3306Y854D01*
X3306Y844D01*
X3308Y844D01*
X3308Y820D01*
X3306Y820D01*
X3306Y812D01*
X3304Y812D01*
X3304Y806D01*
X3302Y806D01*
X3302Y802D01*
X3300Y802D01*
X3300Y798D01*
X3298Y798D01*
X3298Y794D01*
X3296Y794D01*
X3296Y792D01*
X3294Y792D01*
X3294Y790D01*
X3292Y790D01*
X3292Y786D01*
X3290Y786D01*
X3290Y784D01*
X3288Y784D01*
X3288Y782D01*
X3286Y782D01*
X3286Y780D01*
X3284Y780D01*
X3284Y778D01*
X3280Y778D01*
X3280Y776D01*
X3278Y776D01*
X3278Y774D01*
X3276Y774D01*
X3276Y772D01*
X3272Y772D01*
X3272Y770D01*
X3268Y770D01*
X3268Y768D01*
X3264Y768D01*
X3264Y766D01*
X3260Y766D01*
X3260Y764D01*
X3252Y764D01*
X3252Y762D01*
X3574Y762D01*
X3574Y764D01*
X3576Y764D01*
X3576Y768D01*
X3578Y768D01*
X3578Y770D01*
X3580Y770D01*
X3580Y772D01*
X3582Y772D01*
X3582Y792D01*
X3580Y792D01*
X3580Y794D01*
X3578Y794D01*
X3578Y796D01*
X3576Y796D01*
X3576Y800D01*
X3574Y800D01*
X3574Y804D01*
X3572Y804D01*
X3572Y810D01*
X3570Y810D01*
X3570Y818D01*
X3568Y818D01*
X3568Y846D01*
X3570Y846D01*
X3570Y854D01*
X3572Y854D01*
X3572Y860D01*
X3574Y860D01*
X3574Y864D01*
X3576Y864D01*
X3576Y868D01*
X3578Y868D01*
X3578Y870D01*
X3580Y870D01*
X3580Y872D01*
X3582Y872D01*
X3582Y892D01*
X3580Y892D01*
X3580Y894D01*
X3578Y894D01*
X3578Y896D01*
X3576Y896D01*
X3576Y900D01*
X3574Y900D01*
X3574Y904D01*
X3572Y904D01*
X3572Y910D01*
X3570Y910D01*
X3570Y918D01*
X3568Y918D01*
X3568Y946D01*
X3570Y946D01*
X3570Y954D01*
X3572Y954D01*
X3572Y960D01*
X2880Y960D01*
G37*
D02*
G36*
X2880Y902D02*
X2880Y762D01*
X3224Y762D01*
X3224Y764D01*
X3216Y764D01*
X3216Y766D01*
X3210Y766D01*
X3210Y768D01*
X3206Y768D01*
X3206Y770D01*
X3204Y770D01*
X3204Y772D01*
X3200Y772D01*
X3200Y774D01*
X3198Y774D01*
X3198Y776D01*
X3194Y776D01*
X3194Y778D01*
X3192Y778D01*
X3192Y780D01*
X3190Y780D01*
X3190Y782D01*
X3188Y782D01*
X3188Y784D01*
X3186Y784D01*
X3186Y786D01*
X3184Y786D01*
X3184Y788D01*
X3182Y788D01*
X3182Y792D01*
X3180Y792D01*
X3180Y794D01*
X3178Y794D01*
X3178Y796D01*
X3176Y796D01*
X3176Y800D01*
X3174Y800D01*
X3174Y804D01*
X3172Y804D01*
X3172Y810D01*
X3170Y810D01*
X3170Y818D01*
X3168Y818D01*
X3168Y846D01*
X3170Y846D01*
X3170Y854D01*
X3172Y854D01*
X3172Y860D01*
X3174Y860D01*
X3174Y864D01*
X3176Y864D01*
X3176Y868D01*
X3178Y868D01*
X3178Y870D01*
X3180Y870D01*
X3180Y872D01*
X3182Y872D01*
X3182Y876D01*
X3184Y876D01*
X3184Y878D01*
X3186Y878D01*
X3186Y880D01*
X3188Y880D01*
X3188Y882D01*
X3190Y882D01*
X3190Y884D01*
X3192Y884D01*
X3192Y886D01*
X3194Y886D01*
X3194Y888D01*
X3198Y888D01*
X3198Y890D01*
X3200Y890D01*
X3200Y892D01*
X3204Y892D01*
X3204Y894D01*
X3206Y894D01*
X3206Y896D01*
X3210Y896D01*
X3210Y898D01*
X3216Y898D01*
X3216Y900D01*
X3224Y900D01*
X3224Y902D01*
X2880Y902D01*
G37*
D02*
G36*
X2880Y762D02*
X2880Y760D01*
X3574Y760D01*
X3574Y762D01*
X2880Y762D01*
G37*
D02*
G36*
X2880Y762D02*
X2880Y760D01*
X3574Y760D01*
X3574Y762D01*
X2880Y762D01*
G37*
D02*
G36*
X2880Y760D02*
X2880Y726D01*
X2882Y726D01*
X2882Y588D01*
X2884Y588D01*
X2884Y586D01*
X2886Y586D01*
X2886Y584D01*
X2888Y584D01*
X2888Y582D01*
X2890Y582D01*
X2890Y580D01*
X2892Y580D01*
X2892Y578D01*
X2894Y578D01*
X2894Y574D01*
X2896Y574D01*
X2896Y572D01*
X2898Y572D01*
X2898Y570D01*
X2900Y570D01*
X2900Y566D01*
X2902Y566D01*
X2902Y562D01*
X2904Y562D01*
X2904Y558D01*
X2906Y558D01*
X2906Y552D01*
X2908Y552D01*
X2908Y360D01*
X2828Y360D01*
X2828Y358D01*
X2826Y358D01*
X2826Y356D01*
X2824Y356D01*
X2824Y354D01*
X2822Y354D01*
X2822Y352D01*
X2820Y352D01*
X2820Y350D01*
X2818Y350D01*
X2818Y348D01*
X2816Y348D01*
X2816Y346D01*
X2812Y346D01*
X2812Y344D01*
X2810Y344D01*
X2810Y342D01*
X2808Y342D01*
X2808Y340D01*
X2806Y340D01*
X2806Y338D01*
X2804Y338D01*
X2804Y336D01*
X2802Y336D01*
X2802Y334D01*
X2800Y334D01*
X2800Y332D01*
X2798Y332D01*
X2798Y330D01*
X2796Y330D01*
X2796Y328D01*
X2794Y328D01*
X2794Y326D01*
X2792Y326D01*
X2792Y324D01*
X2790Y324D01*
X2790Y322D01*
X2788Y322D01*
X2788Y320D01*
X2784Y320D01*
X2784Y318D01*
X2782Y318D01*
X2782Y316D01*
X2780Y316D01*
X2780Y314D01*
X2778Y314D01*
X2778Y262D01*
X3624Y262D01*
X3624Y264D01*
X3616Y264D01*
X3616Y266D01*
X3610Y266D01*
X3610Y268D01*
X3606Y268D01*
X3606Y270D01*
X3604Y270D01*
X3604Y272D01*
X3600Y272D01*
X3600Y274D01*
X3598Y274D01*
X3598Y276D01*
X3594Y276D01*
X3594Y278D01*
X3592Y278D01*
X3592Y280D01*
X3590Y280D01*
X3590Y282D01*
X3588Y282D01*
X3588Y284D01*
X3586Y284D01*
X3586Y286D01*
X3584Y286D01*
X3584Y288D01*
X3582Y288D01*
X3582Y292D01*
X3580Y292D01*
X3580Y294D01*
X3578Y294D01*
X3578Y296D01*
X3576Y296D01*
X3576Y300D01*
X3574Y300D01*
X3574Y304D01*
X3572Y304D01*
X3572Y310D01*
X3570Y310D01*
X3570Y318D01*
X3568Y318D01*
X3568Y346D01*
X3570Y346D01*
X3570Y354D01*
X3572Y354D01*
X3572Y360D01*
X3574Y360D01*
X3574Y364D01*
X3576Y364D01*
X3576Y368D01*
X3578Y368D01*
X3578Y370D01*
X3580Y370D01*
X3580Y372D01*
X3582Y372D01*
X3582Y392D01*
X3580Y392D01*
X3580Y394D01*
X3578Y394D01*
X3578Y396D01*
X3576Y396D01*
X3576Y400D01*
X3574Y400D01*
X3574Y404D01*
X3572Y404D01*
X3572Y410D01*
X3570Y410D01*
X3570Y418D01*
X3568Y418D01*
X3568Y446D01*
X3570Y446D01*
X3570Y454D01*
X3572Y454D01*
X3572Y460D01*
X3574Y460D01*
X3574Y464D01*
X3576Y464D01*
X3576Y468D01*
X3578Y468D01*
X3578Y470D01*
X3580Y470D01*
X3580Y472D01*
X3582Y472D01*
X3582Y492D01*
X3580Y492D01*
X3580Y494D01*
X3578Y494D01*
X3578Y496D01*
X3576Y496D01*
X3576Y500D01*
X3574Y500D01*
X3574Y504D01*
X3572Y504D01*
X3572Y510D01*
X3570Y510D01*
X3570Y518D01*
X3568Y518D01*
X3568Y546D01*
X3570Y546D01*
X3570Y554D01*
X3572Y554D01*
X3572Y560D01*
X3574Y560D01*
X3574Y564D01*
X3576Y564D01*
X3576Y568D01*
X3578Y568D01*
X3578Y570D01*
X3580Y570D01*
X3580Y572D01*
X3582Y572D01*
X3582Y592D01*
X3580Y592D01*
X3580Y594D01*
X3578Y594D01*
X3578Y596D01*
X3576Y596D01*
X3576Y600D01*
X3574Y600D01*
X3574Y604D01*
X3572Y604D01*
X3572Y610D01*
X3570Y610D01*
X3570Y618D01*
X3568Y618D01*
X3568Y646D01*
X3570Y646D01*
X3570Y654D01*
X3572Y654D01*
X3572Y660D01*
X3574Y660D01*
X3574Y664D01*
X3576Y664D01*
X3576Y668D01*
X3578Y668D01*
X3578Y670D01*
X3580Y670D01*
X3580Y672D01*
X3582Y672D01*
X3582Y692D01*
X3580Y692D01*
X3580Y694D01*
X3578Y694D01*
X3578Y696D01*
X3576Y696D01*
X3576Y700D01*
X3574Y700D01*
X3574Y704D01*
X3572Y704D01*
X3572Y710D01*
X3570Y710D01*
X3570Y718D01*
X3568Y718D01*
X3568Y746D01*
X3570Y746D01*
X3570Y754D01*
X3572Y754D01*
X3572Y760D01*
X2880Y760D01*
G37*
D02*
G36*
X3786Y282D02*
X3786Y280D01*
X3784Y280D01*
X3784Y278D01*
X3780Y278D01*
X3780Y276D01*
X3778Y276D01*
X3778Y274D01*
X3776Y274D01*
X3776Y272D01*
X3772Y272D01*
X3772Y270D01*
X3768Y270D01*
X3768Y268D01*
X3764Y268D01*
X3764Y266D01*
X3760Y266D01*
X3760Y264D01*
X3752Y264D01*
X3752Y262D01*
X3806Y262D01*
X3806Y282D01*
X3786Y282D01*
G37*
D02*
G36*
X3678Y276D02*
X3678Y274D01*
X3676Y274D01*
X3676Y272D01*
X3672Y272D01*
X3672Y270D01*
X3668Y270D01*
X3668Y268D01*
X3664Y268D01*
X3664Y266D01*
X3660Y266D01*
X3660Y264D01*
X3652Y264D01*
X3652Y262D01*
X3724Y262D01*
X3724Y264D01*
X3716Y264D01*
X3716Y266D01*
X3710Y266D01*
X3710Y268D01*
X3706Y268D01*
X3706Y270D01*
X3704Y270D01*
X3704Y272D01*
X3700Y272D01*
X3700Y274D01*
X3698Y274D01*
X3698Y276D01*
X3678Y276D01*
G37*
D02*
G36*
X2778Y262D02*
X2778Y260D01*
X3806Y260D01*
X3806Y262D01*
X2778Y262D01*
G37*
D02*
G36*
X2778Y262D02*
X2778Y260D01*
X3806Y260D01*
X3806Y262D01*
X2778Y262D01*
G37*
D02*
G36*
X2778Y262D02*
X2778Y260D01*
X3806Y260D01*
X3806Y262D01*
X2778Y262D01*
G37*
D02*
G36*
X2778Y260D02*
X2778Y220D01*
X2776Y220D01*
X2776Y214D01*
X2774Y214D01*
X2774Y210D01*
X2772Y210D01*
X2772Y208D01*
X2770Y208D01*
X2770Y204D01*
X2768Y204D01*
X2768Y202D01*
X3552Y202D01*
X3552Y200D01*
X3560Y200D01*
X3560Y198D01*
X3564Y198D01*
X3564Y196D01*
X3568Y196D01*
X3568Y194D01*
X3572Y194D01*
X3572Y192D01*
X3576Y192D01*
X3576Y190D01*
X3578Y190D01*
X3578Y188D01*
X3580Y188D01*
X3580Y186D01*
X3584Y186D01*
X3584Y184D01*
X3586Y184D01*
X3586Y182D01*
X3588Y182D01*
X3588Y180D01*
X3590Y180D01*
X3590Y178D01*
X3592Y178D01*
X3592Y174D01*
X3594Y174D01*
X3594Y172D01*
X3596Y172D01*
X3596Y170D01*
X3598Y170D01*
X3598Y166D01*
X3600Y166D01*
X3600Y162D01*
X3602Y162D01*
X3602Y158D01*
X3604Y158D01*
X3604Y154D01*
X3606Y154D01*
X3606Y144D01*
X3608Y144D01*
X3608Y120D01*
X3606Y120D01*
X3606Y112D01*
X3604Y112D01*
X3604Y106D01*
X3602Y106D01*
X3602Y102D01*
X3600Y102D01*
X3600Y98D01*
X3598Y98D01*
X3598Y94D01*
X3596Y94D01*
X3596Y92D01*
X3594Y92D01*
X3594Y90D01*
X3592Y90D01*
X3592Y86D01*
X3590Y86D01*
X3590Y84D01*
X3588Y84D01*
X3588Y82D01*
X3586Y82D01*
X3586Y80D01*
X3584Y80D01*
X3584Y78D01*
X3580Y78D01*
X3580Y76D01*
X3578Y76D01*
X3578Y74D01*
X3576Y74D01*
X3576Y72D01*
X3572Y72D01*
X3572Y70D01*
X3568Y70D01*
X3568Y68D01*
X3564Y68D01*
X3564Y66D01*
X3560Y66D01*
X3560Y64D01*
X3552Y64D01*
X3552Y62D01*
X3806Y62D01*
X3806Y260D01*
X2778Y260D01*
G37*
D02*
G36*
X2766Y202D02*
X2766Y200D01*
X2764Y200D01*
X2764Y198D01*
X2760Y198D01*
X2760Y196D01*
X2756Y196D01*
X2756Y194D01*
X2750Y194D01*
X2750Y192D01*
X2694Y192D01*
X2694Y172D01*
X2696Y172D01*
X2696Y170D01*
X2698Y170D01*
X2698Y166D01*
X2700Y166D01*
X2700Y162D01*
X2702Y162D01*
X2702Y158D01*
X2704Y158D01*
X2704Y152D01*
X2706Y152D01*
X2706Y144D01*
X2708Y144D01*
X2708Y120D01*
X2706Y120D01*
X2706Y112D01*
X2704Y112D01*
X2704Y106D01*
X2702Y106D01*
X2702Y102D01*
X2700Y102D01*
X2700Y98D01*
X2698Y98D01*
X2698Y94D01*
X2696Y94D01*
X2696Y92D01*
X2694Y92D01*
X2694Y90D01*
X2692Y90D01*
X2692Y86D01*
X2690Y86D01*
X2690Y84D01*
X2688Y84D01*
X2688Y82D01*
X2686Y82D01*
X2686Y80D01*
X2684Y80D01*
X2684Y78D01*
X2680Y78D01*
X2680Y76D01*
X2678Y76D01*
X2678Y74D01*
X2676Y74D01*
X2676Y72D01*
X2672Y72D01*
X2672Y70D01*
X2668Y70D01*
X2668Y68D01*
X2664Y68D01*
X2664Y66D01*
X2660Y66D01*
X2660Y64D01*
X2652Y64D01*
X2652Y62D01*
X2824Y62D01*
X2824Y64D01*
X2816Y64D01*
X2816Y66D01*
X2810Y66D01*
X2810Y68D01*
X2806Y68D01*
X2806Y70D01*
X2804Y70D01*
X2804Y72D01*
X2800Y72D01*
X2800Y74D01*
X2798Y74D01*
X2798Y76D01*
X2794Y76D01*
X2794Y78D01*
X2792Y78D01*
X2792Y80D01*
X2790Y80D01*
X2790Y82D01*
X2788Y82D01*
X2788Y84D01*
X2786Y84D01*
X2786Y86D01*
X2784Y86D01*
X2784Y88D01*
X2782Y88D01*
X2782Y92D01*
X2780Y92D01*
X2780Y94D01*
X2778Y94D01*
X2778Y96D01*
X2776Y96D01*
X2776Y100D01*
X2774Y100D01*
X2774Y104D01*
X2772Y104D01*
X2772Y110D01*
X2770Y110D01*
X2770Y116D01*
X2768Y116D01*
X2768Y148D01*
X2770Y148D01*
X2770Y154D01*
X2772Y154D01*
X2772Y160D01*
X2774Y160D01*
X2774Y164D01*
X2776Y164D01*
X2776Y168D01*
X2778Y168D01*
X2778Y170D01*
X2780Y170D01*
X2780Y172D01*
X2782Y172D01*
X2782Y176D01*
X2784Y176D01*
X2784Y178D01*
X2786Y178D01*
X2786Y180D01*
X2788Y180D01*
X2788Y182D01*
X2790Y182D01*
X2790Y184D01*
X2792Y184D01*
X2792Y186D01*
X2794Y186D01*
X2794Y188D01*
X2798Y188D01*
X2798Y190D01*
X2800Y190D01*
X2800Y192D01*
X2804Y192D01*
X2804Y194D01*
X2806Y194D01*
X2806Y196D01*
X2810Y196D01*
X2810Y198D01*
X2816Y198D01*
X2816Y200D01*
X2824Y200D01*
X2824Y202D01*
X2766Y202D01*
G37*
D02*
G36*
X2852Y202D02*
X2852Y200D01*
X2860Y200D01*
X2860Y198D01*
X2864Y198D01*
X2864Y196D01*
X2868Y196D01*
X2868Y194D01*
X2872Y194D01*
X2872Y192D01*
X2876Y192D01*
X2876Y190D01*
X2878Y190D01*
X2878Y188D01*
X2898Y188D01*
X2898Y190D01*
X2900Y190D01*
X2900Y192D01*
X2904Y192D01*
X2904Y194D01*
X2906Y194D01*
X2906Y196D01*
X2910Y196D01*
X2910Y198D01*
X2916Y198D01*
X2916Y200D01*
X2924Y200D01*
X2924Y202D01*
X2852Y202D01*
G37*
D02*
G36*
X2952Y202D02*
X2952Y200D01*
X2960Y200D01*
X2960Y198D01*
X2964Y198D01*
X2964Y196D01*
X2968Y196D01*
X2968Y194D01*
X2972Y194D01*
X2972Y192D01*
X2976Y192D01*
X2976Y190D01*
X2978Y190D01*
X2978Y188D01*
X2998Y188D01*
X2998Y190D01*
X3000Y190D01*
X3000Y192D01*
X3004Y192D01*
X3004Y194D01*
X3006Y194D01*
X3006Y196D01*
X3010Y196D01*
X3010Y198D01*
X3016Y198D01*
X3016Y200D01*
X3024Y200D01*
X3024Y202D01*
X2952Y202D01*
G37*
D02*
G36*
X3052Y202D02*
X3052Y200D01*
X3060Y200D01*
X3060Y198D01*
X3064Y198D01*
X3064Y196D01*
X3068Y196D01*
X3068Y194D01*
X3072Y194D01*
X3072Y192D01*
X3076Y192D01*
X3076Y190D01*
X3078Y190D01*
X3078Y188D01*
X3098Y188D01*
X3098Y190D01*
X3100Y190D01*
X3100Y192D01*
X3104Y192D01*
X3104Y194D01*
X3106Y194D01*
X3106Y196D01*
X3110Y196D01*
X3110Y198D01*
X3116Y198D01*
X3116Y200D01*
X3124Y200D01*
X3124Y202D01*
X3052Y202D01*
G37*
D02*
G36*
X3152Y202D02*
X3152Y200D01*
X3160Y200D01*
X3160Y198D01*
X3164Y198D01*
X3164Y196D01*
X3168Y196D01*
X3168Y194D01*
X3172Y194D01*
X3172Y192D01*
X3176Y192D01*
X3176Y190D01*
X3178Y190D01*
X3178Y188D01*
X3198Y188D01*
X3198Y190D01*
X3200Y190D01*
X3200Y192D01*
X3204Y192D01*
X3204Y194D01*
X3206Y194D01*
X3206Y196D01*
X3210Y196D01*
X3210Y198D01*
X3216Y198D01*
X3216Y200D01*
X3224Y200D01*
X3224Y202D01*
X3152Y202D01*
G37*
D02*
G36*
X3252Y202D02*
X3252Y200D01*
X3260Y200D01*
X3260Y198D01*
X3264Y198D01*
X3264Y196D01*
X3268Y196D01*
X3268Y194D01*
X3272Y194D01*
X3272Y192D01*
X3276Y192D01*
X3276Y190D01*
X3278Y190D01*
X3278Y188D01*
X3298Y188D01*
X3298Y190D01*
X3300Y190D01*
X3300Y192D01*
X3304Y192D01*
X3304Y194D01*
X3306Y194D01*
X3306Y196D01*
X3310Y196D01*
X3310Y198D01*
X3316Y198D01*
X3316Y200D01*
X3324Y200D01*
X3324Y202D01*
X3252Y202D01*
G37*
D02*
G36*
X3352Y202D02*
X3352Y200D01*
X3360Y200D01*
X3360Y198D01*
X3364Y198D01*
X3364Y196D01*
X3368Y196D01*
X3368Y194D01*
X3372Y194D01*
X3372Y192D01*
X3376Y192D01*
X3376Y190D01*
X3378Y190D01*
X3378Y188D01*
X3398Y188D01*
X3398Y190D01*
X3400Y190D01*
X3400Y192D01*
X3404Y192D01*
X3404Y194D01*
X3406Y194D01*
X3406Y196D01*
X3410Y196D01*
X3410Y198D01*
X3416Y198D01*
X3416Y200D01*
X3424Y200D01*
X3424Y202D01*
X3352Y202D01*
G37*
D02*
G36*
X3452Y202D02*
X3452Y200D01*
X3460Y200D01*
X3460Y198D01*
X3464Y198D01*
X3464Y196D01*
X3468Y196D01*
X3468Y194D01*
X3472Y194D01*
X3472Y192D01*
X3476Y192D01*
X3476Y190D01*
X3478Y190D01*
X3478Y188D01*
X3498Y188D01*
X3498Y190D01*
X3500Y190D01*
X3500Y192D01*
X3504Y192D01*
X3504Y194D01*
X3506Y194D01*
X3506Y196D01*
X3510Y196D01*
X3510Y198D01*
X3516Y198D01*
X3516Y200D01*
X3524Y200D01*
X3524Y202D01*
X3452Y202D01*
G37*
D02*
G36*
X1978Y76D02*
X1978Y74D01*
X1976Y74D01*
X1976Y72D01*
X1972Y72D01*
X1972Y70D01*
X1968Y70D01*
X1968Y68D01*
X1964Y68D01*
X1964Y66D01*
X1960Y66D01*
X1960Y64D01*
X1952Y64D01*
X1952Y62D01*
X2024Y62D01*
X2024Y64D01*
X2016Y64D01*
X2016Y66D01*
X2010Y66D01*
X2010Y68D01*
X2006Y68D01*
X2006Y70D01*
X2004Y70D01*
X2004Y72D01*
X2000Y72D01*
X2000Y74D01*
X1998Y74D01*
X1998Y76D01*
X1978Y76D01*
G37*
D02*
G36*
X2078Y76D02*
X2078Y74D01*
X2076Y74D01*
X2076Y72D01*
X2072Y72D01*
X2072Y70D01*
X2068Y70D01*
X2068Y68D01*
X2064Y68D01*
X2064Y66D01*
X2060Y66D01*
X2060Y64D01*
X2052Y64D01*
X2052Y62D01*
X2124Y62D01*
X2124Y64D01*
X2116Y64D01*
X2116Y66D01*
X2110Y66D01*
X2110Y68D01*
X2106Y68D01*
X2106Y70D01*
X2104Y70D01*
X2104Y72D01*
X2100Y72D01*
X2100Y74D01*
X2098Y74D01*
X2098Y76D01*
X2078Y76D01*
G37*
D02*
G36*
X2178Y76D02*
X2178Y74D01*
X2176Y74D01*
X2176Y72D01*
X2172Y72D01*
X2172Y70D01*
X2168Y70D01*
X2168Y68D01*
X2164Y68D01*
X2164Y66D01*
X2160Y66D01*
X2160Y64D01*
X2152Y64D01*
X2152Y62D01*
X2224Y62D01*
X2224Y64D01*
X2216Y64D01*
X2216Y66D01*
X2210Y66D01*
X2210Y68D01*
X2206Y68D01*
X2206Y70D01*
X2204Y70D01*
X2204Y72D01*
X2200Y72D01*
X2200Y74D01*
X2198Y74D01*
X2198Y76D01*
X2178Y76D01*
G37*
D02*
G36*
X2278Y76D02*
X2278Y74D01*
X2276Y74D01*
X2276Y72D01*
X2272Y72D01*
X2272Y70D01*
X2268Y70D01*
X2268Y68D01*
X2264Y68D01*
X2264Y66D01*
X2260Y66D01*
X2260Y64D01*
X2252Y64D01*
X2252Y62D01*
X2324Y62D01*
X2324Y64D01*
X2316Y64D01*
X2316Y66D01*
X2310Y66D01*
X2310Y68D01*
X2306Y68D01*
X2306Y70D01*
X2304Y70D01*
X2304Y72D01*
X2300Y72D01*
X2300Y74D01*
X2298Y74D01*
X2298Y76D01*
X2278Y76D01*
G37*
D02*
G36*
X2378Y76D02*
X2378Y74D01*
X2376Y74D01*
X2376Y72D01*
X2372Y72D01*
X2372Y70D01*
X2368Y70D01*
X2368Y68D01*
X2364Y68D01*
X2364Y66D01*
X2360Y66D01*
X2360Y64D01*
X2352Y64D01*
X2352Y62D01*
X2424Y62D01*
X2424Y64D01*
X2416Y64D01*
X2416Y66D01*
X2410Y66D01*
X2410Y68D01*
X2406Y68D01*
X2406Y70D01*
X2404Y70D01*
X2404Y72D01*
X2400Y72D01*
X2400Y74D01*
X2398Y74D01*
X2398Y76D01*
X2378Y76D01*
G37*
D02*
G36*
X2478Y76D02*
X2478Y74D01*
X2476Y74D01*
X2476Y72D01*
X2472Y72D01*
X2472Y70D01*
X2468Y70D01*
X2468Y68D01*
X2464Y68D01*
X2464Y66D01*
X2460Y66D01*
X2460Y64D01*
X2452Y64D01*
X2452Y62D01*
X2524Y62D01*
X2524Y64D01*
X2516Y64D01*
X2516Y66D01*
X2510Y66D01*
X2510Y68D01*
X2506Y68D01*
X2506Y70D01*
X2504Y70D01*
X2504Y72D01*
X2500Y72D01*
X2500Y74D01*
X2498Y74D01*
X2498Y76D01*
X2478Y76D01*
G37*
D02*
G36*
X2578Y76D02*
X2578Y74D01*
X2576Y74D01*
X2576Y72D01*
X2572Y72D01*
X2572Y70D01*
X2568Y70D01*
X2568Y68D01*
X2564Y68D01*
X2564Y66D01*
X2560Y66D01*
X2560Y64D01*
X2552Y64D01*
X2552Y62D01*
X2624Y62D01*
X2624Y64D01*
X2616Y64D01*
X2616Y66D01*
X2610Y66D01*
X2610Y68D01*
X2606Y68D01*
X2606Y70D01*
X2604Y70D01*
X2604Y72D01*
X2600Y72D01*
X2600Y74D01*
X2598Y74D01*
X2598Y76D01*
X2578Y76D01*
G37*
D02*
G36*
X2878Y76D02*
X2878Y74D01*
X2876Y74D01*
X2876Y72D01*
X2872Y72D01*
X2872Y70D01*
X2868Y70D01*
X2868Y68D01*
X2864Y68D01*
X2864Y66D01*
X2860Y66D01*
X2860Y64D01*
X2852Y64D01*
X2852Y62D01*
X2924Y62D01*
X2924Y64D01*
X2916Y64D01*
X2916Y66D01*
X2910Y66D01*
X2910Y68D01*
X2906Y68D01*
X2906Y70D01*
X2904Y70D01*
X2904Y72D01*
X2900Y72D01*
X2900Y74D01*
X2898Y74D01*
X2898Y76D01*
X2878Y76D01*
G37*
D02*
G36*
X2978Y76D02*
X2978Y74D01*
X2976Y74D01*
X2976Y72D01*
X2972Y72D01*
X2972Y70D01*
X2968Y70D01*
X2968Y68D01*
X2964Y68D01*
X2964Y66D01*
X2960Y66D01*
X2960Y64D01*
X2952Y64D01*
X2952Y62D01*
X3024Y62D01*
X3024Y64D01*
X3016Y64D01*
X3016Y66D01*
X3010Y66D01*
X3010Y68D01*
X3006Y68D01*
X3006Y70D01*
X3004Y70D01*
X3004Y72D01*
X3000Y72D01*
X3000Y74D01*
X2998Y74D01*
X2998Y76D01*
X2978Y76D01*
G37*
D02*
G36*
X3078Y76D02*
X3078Y74D01*
X3076Y74D01*
X3076Y72D01*
X3072Y72D01*
X3072Y70D01*
X3068Y70D01*
X3068Y68D01*
X3064Y68D01*
X3064Y66D01*
X3060Y66D01*
X3060Y64D01*
X3052Y64D01*
X3052Y62D01*
X3124Y62D01*
X3124Y64D01*
X3116Y64D01*
X3116Y66D01*
X3110Y66D01*
X3110Y68D01*
X3106Y68D01*
X3106Y70D01*
X3104Y70D01*
X3104Y72D01*
X3100Y72D01*
X3100Y74D01*
X3098Y74D01*
X3098Y76D01*
X3078Y76D01*
G37*
D02*
G36*
X3178Y76D02*
X3178Y74D01*
X3176Y74D01*
X3176Y72D01*
X3172Y72D01*
X3172Y70D01*
X3168Y70D01*
X3168Y68D01*
X3164Y68D01*
X3164Y66D01*
X3160Y66D01*
X3160Y64D01*
X3152Y64D01*
X3152Y62D01*
X3224Y62D01*
X3224Y64D01*
X3216Y64D01*
X3216Y66D01*
X3210Y66D01*
X3210Y68D01*
X3206Y68D01*
X3206Y70D01*
X3204Y70D01*
X3204Y72D01*
X3200Y72D01*
X3200Y74D01*
X3198Y74D01*
X3198Y76D01*
X3178Y76D01*
G37*
D02*
G36*
X3278Y76D02*
X3278Y74D01*
X3276Y74D01*
X3276Y72D01*
X3272Y72D01*
X3272Y70D01*
X3268Y70D01*
X3268Y68D01*
X3264Y68D01*
X3264Y66D01*
X3260Y66D01*
X3260Y64D01*
X3252Y64D01*
X3252Y62D01*
X3324Y62D01*
X3324Y64D01*
X3316Y64D01*
X3316Y66D01*
X3310Y66D01*
X3310Y68D01*
X3306Y68D01*
X3306Y70D01*
X3304Y70D01*
X3304Y72D01*
X3300Y72D01*
X3300Y74D01*
X3298Y74D01*
X3298Y76D01*
X3278Y76D01*
G37*
D02*
G36*
X3378Y76D02*
X3378Y74D01*
X3376Y74D01*
X3376Y72D01*
X3372Y72D01*
X3372Y70D01*
X3368Y70D01*
X3368Y68D01*
X3364Y68D01*
X3364Y66D01*
X3360Y66D01*
X3360Y64D01*
X3352Y64D01*
X3352Y62D01*
X3424Y62D01*
X3424Y64D01*
X3416Y64D01*
X3416Y66D01*
X3410Y66D01*
X3410Y68D01*
X3406Y68D01*
X3406Y70D01*
X3404Y70D01*
X3404Y72D01*
X3400Y72D01*
X3400Y74D01*
X3398Y74D01*
X3398Y76D01*
X3378Y76D01*
G37*
D02*
G36*
X3478Y76D02*
X3478Y74D01*
X3476Y74D01*
X3476Y72D01*
X3472Y72D01*
X3472Y70D01*
X3468Y70D01*
X3468Y68D01*
X3464Y68D01*
X3464Y66D01*
X3460Y66D01*
X3460Y64D01*
X3452Y64D01*
X3452Y62D01*
X3524Y62D01*
X3524Y64D01*
X3516Y64D01*
X3516Y66D01*
X3510Y66D01*
X3510Y68D01*
X3506Y68D01*
X3506Y70D01*
X3504Y70D01*
X3504Y72D01*
X3500Y72D01*
X3500Y74D01*
X3498Y74D01*
X3498Y76D01*
X3478Y76D01*
G37*
D02*
G36*
X1880Y74D02*
X1880Y64D01*
X1882Y64D01*
X1882Y62D01*
X1924Y62D01*
X1924Y64D01*
X1916Y64D01*
X1916Y66D01*
X1910Y66D01*
X1910Y68D01*
X1906Y68D01*
X1906Y70D01*
X1904Y70D01*
X1904Y72D01*
X1900Y72D01*
X1900Y74D01*
X1880Y74D01*
G37*
D02*
G36*
X1882Y62D02*
X1882Y60D01*
X3806Y60D01*
X3806Y62D01*
X1882Y62D01*
G37*
D02*
G36*
X1882Y62D02*
X1882Y60D01*
X3806Y60D01*
X3806Y62D01*
X1882Y62D01*
G37*
D02*
G36*
X1882Y62D02*
X1882Y60D01*
X3806Y60D01*
X3806Y62D01*
X1882Y62D01*
G37*
D02*
G36*
X1882Y62D02*
X1882Y60D01*
X3806Y60D01*
X3806Y62D01*
X1882Y62D01*
G37*
D02*
G36*
X1882Y62D02*
X1882Y60D01*
X3806Y60D01*
X3806Y62D01*
X1882Y62D01*
G37*
D02*
G36*
X1882Y62D02*
X1882Y60D01*
X3806Y60D01*
X3806Y62D01*
X1882Y62D01*
G37*
D02*
G36*
X1882Y62D02*
X1882Y60D01*
X3806Y60D01*
X3806Y62D01*
X1882Y62D01*
G37*
D02*
G36*
X1882Y62D02*
X1882Y60D01*
X3806Y60D01*
X3806Y62D01*
X1882Y62D01*
G37*
D02*
G36*
X1882Y62D02*
X1882Y60D01*
X3806Y60D01*
X3806Y62D01*
X1882Y62D01*
G37*
D02*
G36*
X1882Y62D02*
X1882Y60D01*
X3806Y60D01*
X3806Y62D01*
X1882Y62D01*
G37*
D02*
G36*
X1882Y62D02*
X1882Y60D01*
X3806Y60D01*
X3806Y62D01*
X1882Y62D01*
G37*
D02*
G36*
X1882Y62D02*
X1882Y60D01*
X3806Y60D01*
X3806Y62D01*
X1882Y62D01*
G37*
D02*
G36*
X1882Y62D02*
X1882Y60D01*
X3806Y60D01*
X3806Y62D01*
X1882Y62D01*
G37*
D02*
G36*
X1882Y62D02*
X1882Y60D01*
X3806Y60D01*
X3806Y62D01*
X1882Y62D01*
G37*
D02*
G36*
X1882Y62D02*
X1882Y60D01*
X3806Y60D01*
X3806Y62D01*
X1882Y62D01*
G37*
D02*
G36*
X1882Y62D02*
X1882Y60D01*
X3806Y60D01*
X3806Y62D01*
X1882Y62D01*
G37*
D02*
G36*
X1882Y62D02*
X1882Y60D01*
X3806Y60D01*
X3806Y62D01*
X1882Y62D01*
G37*
D02*
G36*
X1882Y60D02*
X1882Y42D01*
X3806Y42D01*
X3806Y60D01*
X1882Y60D01*
G37*
D02*
G04 End of Copper1*
M02*