G04 MADE WITH FRITZING*
G04 WWW.FRITZING.ORG*
G04 DOUBLE SIDED*
G04 HOLES PLATED*
G04 CONTOUR ON CENTER OF CONTOUR VECTOR*
%ASAXBY*%
%FSLAX23Y23*%
%MOIN*%
%OFA0B0*%
%SFA1.0B1.0*%
%ADD10C,0.086000*%
%ADD11C,0.084000*%
%ADD12C,0.081000*%
%ADD13C,0.088000*%
%ADD14C,0.076925*%
%ADD15C,0.076866*%
%ADD16C,0.146000*%
%ADD17C,0.045370*%
%ADD18R,0.086000X0.086000*%
%ADD19R,0.081000X0.081000*%
%ADD20R,0.088000X0.088000*%
%ADD21R,0.084000X0.084000*%
%LNMASK1*%
G90*
G70*
G54D10*
X194Y1401D03*
X194Y1263D03*
X194Y1126D03*
X194Y1901D03*
X194Y1763D03*
X194Y1626D03*
X194Y401D03*
X194Y263D03*
X194Y126D03*
X194Y901D03*
X194Y763D03*
X194Y626D03*
G54D11*
X2434Y536D03*
X2434Y436D03*
X2434Y336D03*
X2534Y536D03*
X2534Y436D03*
X2534Y336D03*
G54D12*
X868Y2032D03*
X968Y2032D03*
X1068Y2032D03*
X1168Y2032D03*
X1268Y2032D03*
X1368Y2032D03*
X1468Y2032D03*
X1568Y2032D03*
X1738Y2032D03*
X1838Y2032D03*
X1938Y2032D03*
X2038Y2032D03*
X2138Y2032D03*
X2238Y2032D03*
X2338Y2032D03*
X2438Y2032D03*
X1238Y132D03*
X1338Y132D03*
X1438Y132D03*
X1538Y132D03*
X1638Y132D03*
X1738Y132D03*
X1938Y132D03*
X2038Y132D03*
X2138Y132D03*
X2238Y132D03*
X2338Y132D03*
X2438Y132D03*
X2638Y2032D03*
X2738Y2032D03*
X2838Y2032D03*
X2938Y2032D03*
X3038Y2032D03*
X3138Y2032D03*
X3238Y2032D03*
X3338Y2032D03*
X2538Y132D03*
X2638Y132D03*
X2838Y132D03*
X2938Y132D03*
X3038Y132D03*
X3138Y132D03*
X3238Y132D03*
X3338Y132D03*
X3438Y132D03*
X3538Y132D03*
X3638Y2032D03*
X3738Y2032D03*
X3638Y1932D03*
X3738Y1932D03*
X3638Y1832D03*
X3738Y1832D03*
X3638Y1732D03*
X3738Y1732D03*
X3638Y1632D03*
X3738Y1632D03*
X3638Y1532D03*
X3738Y1532D03*
X3638Y1432D03*
X3738Y1432D03*
X3638Y1332D03*
X3738Y1332D03*
X3638Y1232D03*
X3738Y1232D03*
X3638Y1132D03*
X3738Y1132D03*
X3638Y1032D03*
X3738Y1032D03*
X3638Y932D03*
X3738Y932D03*
X3638Y832D03*
X3738Y832D03*
X3638Y732D03*
X3738Y732D03*
X3638Y632D03*
X3738Y632D03*
X3638Y532D03*
X3738Y532D03*
X3638Y432D03*
X3738Y432D03*
X3638Y332D03*
X3738Y332D03*
G54D11*
X2634Y536D03*
X2634Y436D03*
X2634Y336D03*
G54D12*
X1534Y836D03*
X1534Y936D03*
X1534Y1036D03*
X1534Y436D03*
X1534Y536D03*
X1534Y636D03*
X1534Y1636D03*
X1534Y1736D03*
X1534Y1836D03*
X1534Y1236D03*
X1534Y1336D03*
X1534Y1436D03*
X1734Y636D03*
X1734Y1036D03*
X1834Y1336D03*
X1834Y1736D03*
X1734Y1236D03*
X1734Y1636D03*
X1834Y836D03*
X1834Y1236D03*
X438Y732D03*
X538Y732D03*
X938Y732D03*
X938Y1032D03*
X538Y1032D03*
X438Y1032D03*
X438Y332D03*
X538Y332D03*
X938Y332D03*
X938Y632D03*
X538Y632D03*
X438Y632D03*
X438Y1532D03*
X538Y1532D03*
X938Y1532D03*
X938Y1832D03*
X538Y1832D03*
X438Y1832D03*
X438Y1132D03*
X538Y1132D03*
X938Y1132D03*
X938Y1432D03*
X538Y1432D03*
X438Y1432D03*
G54D13*
X1138Y1432D03*
X1138Y1134D03*
X1138Y1032D03*
X1138Y734D03*
X1138Y1832D03*
X1138Y1534D03*
X1138Y632D03*
X1138Y334D03*
X2034Y1736D03*
X2034Y1636D03*
X2034Y1536D03*
G54D12*
X3334Y1636D03*
X3334Y1336D03*
X3234Y1636D03*
X3234Y1336D03*
X3134Y1636D03*
X3134Y1336D03*
X3034Y1636D03*
X3034Y1336D03*
G54D14*
X3141Y1835D03*
G54D15*
X3334Y1836D03*
G54D11*
X2838Y432D03*
X2838Y532D03*
G54D12*
X3534Y1136D03*
X3534Y1536D03*
G54D11*
X2638Y1632D03*
X2638Y1732D03*
X2638Y1832D03*
X2738Y1632D03*
X2738Y1732D03*
X2738Y1832D03*
G54D12*
X2234Y836D03*
X2234Y1236D03*
X2434Y836D03*
X2434Y1236D03*
G54D11*
X1934Y536D03*
X1934Y436D03*
X1934Y336D03*
X2234Y536D03*
X2234Y436D03*
X2234Y336D03*
X2034Y536D03*
X2034Y436D03*
X2034Y336D03*
X2334Y536D03*
X2334Y436D03*
X2334Y336D03*
X2134Y536D03*
X2134Y436D03*
X2134Y336D03*
G54D16*
X574Y2236D03*
X334Y2236D03*
X454Y2046D03*
G54D12*
X1334Y1536D03*
X1334Y1136D03*
X1338Y632D03*
X1338Y232D03*
X1238Y1832D03*
X1238Y1432D03*
X1238Y1032D03*
X1238Y632D03*
G54D11*
X2334Y1336D03*
X2334Y1236D03*
X2334Y1136D03*
X2334Y1036D03*
X2534Y1336D03*
X2534Y1236D03*
X2534Y1136D03*
X2534Y1036D03*
G54D17*
X834Y736D03*
X1434Y1736D03*
X2534Y1736D03*
X2534Y1536D03*
X3234Y1536D03*
X1434Y1936D03*
X834Y1136D03*
X834Y1636D03*
G54D12*
X3238Y1232D03*
X3238Y832D03*
G54D11*
X3038Y1132D03*
X3038Y1032D03*
G54D18*
X194Y1401D03*
X194Y1901D03*
X194Y401D03*
X194Y901D03*
G54D19*
X1534Y1036D03*
X1534Y636D03*
X1534Y1836D03*
X1534Y1436D03*
X1734Y636D03*
X1834Y1336D03*
X1734Y1236D03*
X1834Y836D03*
X438Y732D03*
X438Y332D03*
X438Y1532D03*
X438Y1132D03*
G54D20*
X1138Y1433D03*
X1138Y1033D03*
X1138Y1833D03*
X1138Y633D03*
X2034Y1736D03*
G54D19*
X3334Y1636D03*
G54D21*
X2838Y432D03*
G54D19*
X3534Y1136D03*
G54D21*
X2638Y1632D03*
X2738Y1632D03*
G54D19*
X2234Y836D03*
X2434Y836D03*
X1334Y1536D03*
X1338Y632D03*
X1238Y1832D03*
X1238Y1032D03*
X3238Y1232D03*
G04 End of Mask1*
M02*