M48
M72,TZ
T10C0.040000
T11C0.038000
T12C0.035000
T13C0.042000
T14C0.031555
T15C0.031496
T16C0.100000
T17C0.015748
%
T10
X0.194078Y0.625530
X0.194078Y0.763330
X0.194078Y0.901120
X0.194078Y0.125530
X0.194078Y0.263330
X0.194078Y0.401120
X0.194078Y1.625531
X0.194078Y1.763326
X0.194078Y1.901121
X0.194078Y1.125530
X0.194078Y1.263330
X0.194078Y1.401120
T11
X3.037780Y1.031830
X3.037780Y1.131830
X2.534070Y1.035530
X2.534070Y1.135530
X2.534070Y1.235530
X2.534070Y1.335530
X2.334070Y1.035530
X2.334070Y1.135530
X2.334070Y1.235530
X2.334070Y1.335530
X2.134070Y0.335530
X2.134070Y0.435530
X2.134070Y0.535530
X2.334070Y0.335530
X2.334070Y0.435530
X2.334070Y0.535530
X2.034070Y0.335530
X2.034070Y0.435530
X2.034070Y0.535530
X2.234070Y0.335530
X2.234070Y0.435530
X2.234070Y0.535530
X1.934070Y0.335530
X1.934070Y0.435530
X1.934070Y0.535530
X2.737780Y1.831830
X2.737780Y1.731830
X2.737780Y1.631830
X2.637780Y1.831830
X2.637780Y1.731830
X2.637780Y1.631830
X2.837780Y0.531830
X2.837780Y0.431830
X2.634080Y0.335530
X2.634080Y0.435530
X2.634080Y0.535530
X2.534070Y0.335530
X2.534070Y0.435530
X2.534070Y0.535530
X2.434070Y0.335530
X2.434070Y0.435530
X2.434070Y0.535530
T12
X3.237780Y0.831830
X3.237780Y1.231830
X1.237780Y0.631830
X1.237780Y1.031830
X1.237780Y1.431830
X1.237780Y1.831830
X1.337780Y0.231830
X1.337780Y0.631830
X1.334070Y1.135530
X1.334070Y1.535530
X2.434070Y1.235530
X2.434070Y0.835530
X2.234070Y1.235530
X2.234070Y0.835530
X3.534080Y1.535530
X3.534080Y1.135530
X3.034070Y1.335530
X3.034070Y1.635530
X3.134070Y1.335530
X3.134070Y1.635530
X3.234070Y1.335530
X3.234070Y1.635530
X3.334070Y1.335530
X3.334070Y1.635530
X0.437778Y1.431830
X0.537778Y1.431830
X0.937778Y1.431830
X0.937778Y1.131830
X0.537778Y1.131830
X0.437778Y1.131830
X0.437778Y1.831830
X0.537778Y1.831830
X0.937778Y1.831830
X0.937778Y1.531830
X0.537778Y1.531830
X0.437778Y1.531830
X0.437778Y0.631830
X0.537778Y0.631830
X0.937778Y0.631830
X0.937778Y0.331830
X0.537778Y0.331830
X0.437778Y0.331830
X0.437778Y1.031830
X0.537778Y1.031830
X0.937778Y1.031830
X0.937778Y0.731830
X0.537778Y0.731830
X0.437778Y0.731830
X1.834070Y1.235530
X1.834070Y0.835530
X1.734070Y1.635530
X1.734070Y1.235530
X1.834070Y1.735530
X1.834070Y1.335530
X1.734070Y1.035530
X1.734070Y0.635530
X1.534070Y1.435530
X1.534070Y1.335530
X1.534070Y1.235530
X1.534070Y1.835530
X1.534070Y1.735530
X1.534070Y1.635530
X1.534070Y0.635530
X1.534070Y0.535530
X1.534070Y0.435530
X1.534070Y1.035530
X1.534070Y0.935530
X1.534070Y0.835530
X3.737780Y0.331830
X3.637780Y0.331830
X3.737780Y0.431830
X3.637780Y0.431830
X3.737780Y0.531830
X3.637780Y0.531830
X3.737780Y0.631830
X3.637780Y0.631830
X3.737780Y0.731830
X3.637780Y0.731830
X3.737780Y0.831830
X3.637780Y0.831830
X3.737780Y0.931830
X3.637780Y0.931830
X3.737780Y1.031830
X3.637780Y1.031830
X3.737780Y1.131830
X3.637780Y1.131830
X3.737780Y1.231830
X3.637780Y1.231830
X3.737780Y1.331830
X3.637780Y1.331830
X3.737780Y1.431830
X3.637780Y1.431830
X3.737780Y1.531830
X3.637780Y1.531830
X3.737780Y1.631830
X3.637780Y1.631830
X3.737780Y1.731830
X3.637780Y1.731830
X3.737780Y1.831830
X3.637780Y1.831830
X3.737780Y1.931830
X3.637780Y1.931830
X3.737780Y2.031830
X3.637780Y2.031830
X3.537780Y0.131830
X3.437780Y0.131830
X3.337780Y0.131830
X3.237780Y0.131830
X3.137780Y0.131830
X3.037780Y0.131830
X2.937780Y0.131830
X2.837780Y0.131830
X2.637780Y0.131830
X2.537780Y0.131830
X3.337780Y2.031830
X3.237780Y2.031830
X3.137780Y2.031830
X3.037780Y2.031830
X2.937780Y2.031830
X2.837780Y2.031830
X2.737780Y2.031830
X2.637780Y2.031830
X2.437780Y0.131830
X2.337780Y0.131830
X2.237780Y0.131830
X2.137780Y0.131830
X2.037780Y0.131830
X1.937780Y0.131830
X1.737780Y0.131830
X1.637780Y0.131830
X1.537780Y0.131830
X1.437780Y0.131830
X1.337780Y0.131830
X1.237780Y0.131830
X2.437780Y2.031830
X2.337780Y2.031830
X2.237780Y2.031830
X2.137780Y2.031830
X2.037780Y2.031830
X1.937780Y2.031830
X1.837780Y2.031830
X1.737780Y2.031830
X1.567780Y2.031830
X1.467780Y2.031830
X1.367780Y2.031830
X1.267780Y2.031830
X1.167780Y2.031830
X1.067780Y2.031830
X0.967778Y2.031830
X0.867778Y2.031830
T13
X2.034070Y1.535530
X2.034070Y1.635530
X2.034070Y1.735530
X1.137780Y0.333830
X1.137780Y0.631830
X1.137780Y1.533830
X1.137780Y1.831830
X1.137780Y0.733830
X1.137780Y1.031830
X1.137780Y1.133830
X1.137780Y1.431830
T14
X3.140990Y1.835498
T15
X3.334080Y1.835527
T16
X0.454074Y2.045530
X0.334074Y2.235530
X0.574074Y2.235530
T17
X0.834074Y1.635530
X0.834074Y1.135530
X1.434080Y1.935530
X3.234080Y1.535530
X2.534080Y1.535530
X2.534080Y1.735530
X1.434080Y1.735530
X0.834074Y0.735530
T00
M30
